<svg xmlns="http://www.w3.org/2000/svg" xmlns:xlink="http://www.w3.org/1999/xlink" xml:lang="en" height="201.34pt" width="566.912pt" viewBox="-78.4 -137.60000000000002 566.912 201.34" style="background-color:white;"><path d="M 12.6,17.640000000000004 L 30.599999999999998,17.640000000000004 L 31.11428571428571,17.632653061224495 L 31.628571428571426,17.61061224489796 L 32.14285714285714,17.57387755102041 L 32.65714285714286,17.52244897959184 L 33.17142857142857,17.456326530612248 L 33.68571428571428,17.375510204081635 L 34.199999999999996,17.280000000000005 L 34.714285714285715,17.169795918367353 L 35.22857142857143,17.04489795918368 L 35.74285714285715,16.905306122448984 L 36.25714285714285,16.751020408163267 L 36.77142857142857,16.582040816326533 L 37.28571428571428,16.398367346938777 L 37.8,16.200000000000003 L 38.31428571428572,15.986938775510207 L 38.828571428571436,15.75918367346939 L 39.34285714285715,15.516734693877552 L 39.85714285714286,15.259591836734696 L 40.371428571428574,14.98775510204082 L 40.885714285714286,14.701224489795921 L 41.4,14.400000000000002 L 41.91428571428571,14.084081632653064 L 42.42857142857143,13.753469387755105 L 42.94285714285714,13.408163265306126 L 43.45714285714286,13.048163265306126 L 43.971428571428575,12.673469387755105 L 44.48571428571429,12.284081632653065 L 45.0,11.880000000000003 L 45.51428571428571,11.46122448979592 L 46.028571428571425,11.02775510204082 L 46.54285714285714,10.579591836734696 L 47.05714285714286,10.116734693877552 L 47.57142857142858,9.63918367346939 L 48.08571428571429,9.146938775510206 L 48.6,8.640000000000004 L 49.114285714285714,8.118367346938777 L 49.628571428571426,7.582040816326534 L 50.14285714285714,7.031020408163266 L 50.65714285714285,6.465306122448983 L 51.17142857142858,5.884897959183674 L 51.6857142857143,5.289795918367348 L 52.2,4.68 L 52.71428571428572,4.055510204081635 L 53.22857142857143,3.4163265306122437 L 53.74285714285715,2.762448979591838 L 54.25714285714285,2.093877551020407 L 54.77142857142857,1.41061224489796 L 55.28571428571428,0.7126530612244923 L 55.80000000000001,-0.0 L 55.80000000000001,-0.0 L 55.28571428571428,-0.7126530612244923 L 54.77142857142857,-1.41061224489796 L 54.25714285714285,-2.093877551020407 L 53.74285714285715,-2.762448979591838 L 53.22857142857143,-3.4163265306122437 L 52.71428571428572,-4.055510204081635 L 52.2,-4.68 L 51.6857142857143,-5.289795918367348 L 51.17142857142858,-5.884897959183674 L 50.65714285714285,-6.465306122448983 L 50.14285714285714,-7.031020408163266 L 49.628571428571426,-7.582040816326534 L 49.114285714285714,-8.118367346938777 L 48.6,-8.640000000000004 L 48.08571428571429,-9.146938775510206 L 47.57142857142858,-9.63918367346939 L 47.05714285714286,-10.116734693877552 L 46.54285714285714,-10.579591836734696 L 46.028571428571425,-11.02775510204082 L 45.51428571428571,-11.46122448979592 L 45.0,-11.880000000000003 L 44.48571428571429,-12.284081632653065 L 43.971428571428575,-12.673469387755105 L 43.45714285714286,-13.048163265306126 L 42.94285714285714,-13.408163265306126 L 42.42857142857143,-13.753469387755105 L 41.91428571428571,-14.084081632653064 L 41.4,-14.400000000000002 L 40.885714285714286,-14.701224489795921 L 40.371428571428574,-14.98775510204082 L 39.85714285714286,-15.259591836734696 L 39.34285714285715,-15.516734693877552 L 38.828571428571436,-15.75918367346939 L 38.31428571428572,-15.986938775510207 L 37.8,-16.200000000000003 L 37.28571428571428,-16.398367346938777 L 36.77142857142857,-16.582040816326533 L 36.25714285714285,-16.751020408163267 L 35.74285714285715,-16.905306122448984 L 35.22857142857143,-17.04489795918368 L 34.714285714285715,-17.169795918367353 L 34.199999999999996,-17.280000000000005 L 33.68571428571428,-17.375510204081635 L 33.17142857142857,-17.456326530612248 L 32.65714285714286,-17.52244897959184 L 32.14285714285714,-17.57387755102041 L 31.628571428571426,-17.61061224489796 L 31.11428571428571,-17.632653061224495 L 30.599999999999998,-17.640000000000004 L 12.6,-17.640000000000004 L 12.6,-17.640000000000004 L 13.2912,-16.92 L 13.9536,-16.200000000000003 L 14.5872,-15.480000000000002 L 15.192000000000002,-14.760000000000002 L 15.768000000000002,-14.040000000000001 L 16.3152,-13.320000000000004 L 16.8336,-12.600000000000003 L 17.3232,-11.880000000000003 L 17.784000000000002,-11.160000000000002 L 18.216,-10.440000000000001 L 18.619200000000003,-9.72 L 18.9936,-9.0 L 19.3392,-8.280000000000003 L 19.656000000000002,-7.560000000000002 L 19.944000000000003,-6.840000000000002 L 20.203200000000002,-6.120000000000001 L 20.433600000000006,-5.4 L 20.6352,-4.68 L 20.808000000000003,-3.9599999999999995 L 20.952,-3.239999999999999 L 21.067200000000003,-2.5199999999999982 L 21.153600000000004,-1.8000000000000016 L 21.2112,-1.080000000000001 L 21.240000000000002,-0.3600000000000003 L 21.240000000000002,0.3600000000000003 L 21.2112,1.080000000000001 L 21.153600000000004,1.8000000000000016 L 21.067200000000003,2.5200000000000005 L 20.952,3.240000000000001 L 20.808000000000003,3.9600000000000017 L 20.6352,4.68 L 20.433600000000006,5.4 L 20.203200000000002,6.120000000000001 L 19.944000000000003,6.840000000000002 L 19.656000000000002,7.560000000000002 L 19.339200000000005,8.280000000000001 L 18.9936,9.000000000000002 L 18.619200000000003,9.720000000000002 L 18.216,10.440000000000001 L 17.784000000000002,11.160000000000002 L 17.3232,11.880000000000003 L 16.8336,12.600000000000003 L 16.3152,13.320000000000004 L 15.768000000000002,14.040000000000003 L 15.192,14.760000000000003 L 14.5872,15.480000000000004 L 13.9536,16.200000000000003 L 13.2912,16.92 L 12.6,17.640000000000004" style="stroke:black;fill:none;stroke-width:2.0;stroke-dasharray:-;stroke-linecap:round;stroke-linejoin:round;" /><path d="M 0.0,9.0 L 18.9936,9.0" style="stroke:black;fill:none;stroke-width:2.0;stroke-dasharray:-;stroke-linecap:round;stroke-linejoin:round;" /><path d="M 0.0,-9.0 L 18.9936,-9.0" style="stroke:black;fill:none;stroke-width:2.0;stroke-dasharray:-;stroke-linecap:round;stroke-linejoin:round;" /><path d="M 55.80000000000001,-0.0 L 68.4,-0.0" style="stroke:black;fill:none;stroke-width:2.0;stroke-dasharray:-;stroke-linecap:round;stroke-linejoin:round;" /><path d="M 0.0,-9.0 L -24.3,-9.000000000000002 L -48.6,-9.000000000000005" style="stroke:black;fill:none;stroke-width:2.0;stroke-dasharray:-;stroke-linecap:round;stroke-linejoin:round;" /><path d="M 0.0,9.0 L -24.3,8.999999999999996 L -48.6,8.999999999999995" style="stroke:black;fill:none;stroke-width:2.0;stroke-dasharray:-;stroke-linecap:round;stroke-linejoin:round;" /><path d="M 68.4,-0.0 L 100.80000000000001,-0.0 L 133.20000000000002,-0.0" style="stroke:black;fill:none;stroke-width:2.0;stroke-dasharray:-;stroke-linecap:round;stroke-linejoin:round;" /><text x="34.2" y="-33.24" dominant-baseline="ideographic" fill="black" font-size="12" font-family="sans" text-anchor="middle"><tspan x="34.2" dy="12">OR</tspan></text><text x="-24.3" y="-24.6" dominant-baseline="ideographic" fill="black" font-size="12" font-family="sans" text-anchor="middle"><tspan x="-24.3" dy="12">A</tspan></text><text x="-24.3" y="0.5999999999999979" dominant-baseline="hanging" fill="black" font-size="12" font-family="sans" text-anchor="middle"><tspan x="-24.3" dy="12">B</tspan></text><text x="100.80000000000001" y="-15.6" dominant-baseline="ideographic" fill="black" font-size="12" font-family="sans" text-anchor="middle"><tspan x="100.80000000000001" dy="12">Y</tspan></text><text x="3.6" y="-114.80000000000001" dominant-baseline="central" fill="black" font-size="14" font-family="sans" text-anchor="middle"><tspan x="3.6" dy="14">OR Gate</tspan></text><text x="360.0" y="-84.0" dominant-baseline="central" fill="black" font-size="12" font-family="sans" text-anchor="start"><tspan x="360.0" dy="12">Inputs</tspan></text><text x="334.08" y="-70.75999999999999" dominant-baseline="central" fill="black" font-size="11" font-family="sans" text-anchor="end"><tspan x="334.08" dy="11">A:</tspan></text><text x="360.0" y="-70.75999999999999" dominant-baseline="central" fill="black" font-size="11" font-family="sans" text-anchor="start"><tspan x="360.0" dy="11">1</tspan></text><text x="334.08" y="-58.519999999999996" dominant-baseline="central" fill="black" font-size="11" font-family="sans" text-anchor="end"><tspan x="334.08" dy="11">B:</tspan></text><text x="360.0" y="-58.519999999999996" dominant-baseline="central" fill="black" font-size="11" font-family="sans" text-anchor="start"><tspan x="360.0" dy="11">1</tspan></text><text x="334.08" y="-46.27999999999999" dominant-baseline="central" fill="black" font-size="11" font-family="sans" text-anchor="end"><tspan x="334.08" dy="11">supply voltage V:</tspan></text><text x="360.0" y="-46.27999999999999" dominant-baseline="central" fill="black" font-size="11" font-family="sans" text-anchor="start"><tspan x="360.0" dy="11">4.999</tspan></text><text x="334.08" y="-34.039999999999985" dominant-baseline="central" fill="black" font-size="11" font-family="sans" text-anchor="end"><tspan x="334.08" dy="11">propagation delay ns:</tspan></text><text x="360.0" y="-34.039999999999985" dominant-baseline="central" fill="black" font-size="11" font-family="sans" text-anchor="start"><tspan x="360.0" dy="11">27.71</tspan></text><text x="334.08" y="-21.799999999999986" dominant-baseline="central" fill="black" font-size="11" font-family="sans" text-anchor="end"><tspan x="334.08" dy="11">temperature C:</tspan></text><text x="360.0" y="-21.799999999999986" dominant-baseline="central" fill="black" font-size="11" font-family="sans" text-anchor="start"><tspan x="360.0" dy="11">50.05</tspan></text><text x="360.0" y="4.200000000000003" dominant-baseline="central" fill="black" font-size="12" font-family="sans" text-anchor="start"><tspan x="360.0" dy="12">Predicted Outputs</tspan></text><text x="334.08" y="17.440000000000005" dominant-baseline="central" fill="black" font-size="11" font-family="sans" text-anchor="end"><tspan x="334.08" dy="11">Y:</tspan></text><text x="360.0" y="17.440000000000005" dominant-baseline="central" fill="black" font-size="11" font-family="sans" text-anchor="start"><tspan x="360.0" dy="11">0</tspan></text></svg>