<svg xmlns="http://www.w3.org/2000/svg" xmlns:xlink="http://www.w3.org/1999/xlink" xml:lang="en" height="320.04pt" width="622.136pt" viewBox="-166.6 -195.20000000000002 622.136 320.04" style="background-color:white;"><path d="M 0.0,22.5 L 0.0,-22.5 L 77.94228634059947,22.5 L 0.0,67.5 L 0.0,22.5 M 77.94228634059947,22.5" style="stroke:black;fill:none;stroke-width:2.0;stroke-dasharray:-;stroke-linecap:round;stroke-linejoin:round;" /><path d="M 6.142785792574934,-0.0 L 13.342785792574933,-0.0" style="stroke:black;fill:none;stroke-width:2.0;stroke-dasharray:-;stroke-linecap:round;stroke-linejoin:round;" /><path d="M 6.142785792574934,45.0 L 13.342785792574933,45.0" style="stroke:black;fill:none;stroke-width:2.0;stroke-dasharray:-;stroke-linecap:round;stroke-linejoin:round;" /><path d="M 9.742785792574933,48.6 L 9.742785792574933,41.4" style="stroke:black;fill:none;stroke-width:2.0;stroke-dasharray:-;stroke-linecap:round;stroke-linejoin:round;" /><path d="M -64.8,-21.599999999999998 L -86.39999999999999,-21.6 L -108.0,-21.6" style="stroke:black;fill:none;stroke-width:2.0;stroke-dasharray:-;stroke-linecap:round;stroke-linejoin:round;" /><path d="M -64.8,-21.599999999999998 L -82.8,-21.6 L -85.8,-12.600000000000003 L -91.8,-30.6 L -97.80000000000001,-12.600000000000003 L -103.8,-30.6 L -109.8,-12.600000000000005 L -115.80000000000001,-30.6 L -118.8,-21.60000000000001 L -136.79999999999998,-21.60000000000001" style="stroke:black;fill:none;stroke-width:2.0;stroke-dasharray:-;stroke-linecap:round;stroke-linejoin:round;" /><path d="M 64.8,-0.0 L 93.60000000000001,-0.0 L 122.4,-0.0" style="stroke:black;fill:none;stroke-width:2.0;stroke-dasharray:-;stroke-linecap:round;stroke-linejoin:round;" /><path d="M 28.8,-0.0 L 28.799999999999997,18.0 L 37.8,21.0 L 19.799999999999997,27.0 L 37.8,33.0 L 19.799999999999994,39.0 L 37.8,45.0 L 19.799999999999994,50.99999999999999 L 28.799999999999994,54.0 L 28.79999999999999,72.0" style="stroke:black;fill:none;stroke-width:2.0;stroke-dasharray:-;stroke-linecap:round;stroke-linejoin:round;" /><path d="M 28.79999999999999,72.0 L 28.79999999999999,86.39999999999999 L 19.79999999999999,86.39999999999999 L 37.8,86.39999999999999 M 22.499999999999993,90.72 L 35.09999999999999,90.72 M 26.99999999999999,95.04 L 30.59999999999999,95.04" style="stroke:black;fill:none;stroke-width:2.0;stroke-dasharray:-;stroke-linecap:round;stroke-linejoin:round;" /><text x="38.97114317029973" y="-38.1" dominant-baseline="ideographic" fill="black" font-size="12" font-family="sans" text-anchor="middle"><tspan x="38.97114317029973" dy="12">U1</tspan></text><text x="-86.39999999999999" y="-37.2" dominant-baseline="ideographic" fill="black" font-size="12" font-family="sans" text-anchor="middle"><tspan x="-86.39999999999999" dy="12">Vin</tspan></text><text x="93.60000000000001" y="-15.6" dominant-baseline="ideographic" fill="black" font-size="12" font-family="sans" text-anchor="middle"><tspan x="93.60000000000001" dy="12">Vout</tspan></text><text x="147.6" y="-172.4" dominant-baseline="central" fill="black" font-size="14" font-family="sans" text-anchor="middle"><tspan x="147.6" dy="14">Antilog Amplifier</tspan></text><text x="320.40000000000003" y="-166.8" dominant-baseline="central" fill="black" font-size="12" font-family="sans" text-anchor="start"><tspan x="320.40000000000003" dy="12">Inputs</tspan></text><text x="320.40000000000003" y="-153.56" dominant-baseline="central" fill="black" font-size="11" font-family="sans" text-anchor="start"><tspan x="320.40000000000003" dy="11">Vin: 0.276 V</tspan></text><text x="320.40000000000003" y="-102.0" dominant-baseline="central" fill="black" font-size="12" font-family="sans" text-anchor="start"><tspan x="320.40000000000003" dy="12">Predicted Outputs</tspan></text><text x="320.40000000000003" y="-88.76" dominant-baseline="central" fill="black" font-size="11" font-family="sans" text-anchor="start"><tspan x="320.40000000000003" dy="11">Vout: -0.2965 V</tspan></text><text x="320.40000000000003" y="-76.52" dominant-baseline="central" fill="black" font-size="11" font-family="sans" text-anchor="start"><tspan x="320.40000000000003" dy="11">R: 50.67 kohm</tspan></text><text x="320.40000000000003" y="-64.28" dominant-baseline="central" fill="black" font-size="11" font-family="sans" text-anchor="start"><tspan x="320.40000000000003" dy="11">Is: 4.999e-10</tspan></text><text x="320.40000000000003" y="-52.04" dominant-baseline="central" fill="black" font-size="11" font-family="sans" text-anchor="start"><tspan x="320.40000000000003" dy="11">temperature: 311.7 C</tspan></text></svg>