<svg xmlns="http://www.w3.org/2000/svg" xmlns:xlink="http://www.w3.org/1999/xlink" xml:lang="en" height="201.34pt" width="566.912pt" viewBox="-78.4 -137.60000000000002 566.912 201.34" style="background-color:white;"><path d="M 36.0,18.0 L 37.15326395965283,17.963017069506055 L 38.30178891032111,17.85222024881843 L 39.440855316624706,17.668064825839174 L 40.565782510371136,17.41130753470253 L 41.671947924425176,17.083003446192034 L 42.75480608782874,16.68450163222839 L 43.809907304116045,16.217439622243546 L 44.832915936070876,15.68373667422101 L 45.81962822178988,15.085585888053133 L 46.76598954884188,14.42544519362322 L 47.6681111155402,13.70602725064442 L 48.52228591086275,12.930288301759097 L 49.32500394735568,12.101416024703703 L 50.07296668442453,11.222816433457202 L 50.76310058274521,10.298099882199054 L 51.39256973409623,9.331066229589451 L 51.958787514714004,8.325689224335036 L 52.45942721428463,7.286100176203091 L 52.89243159689569,6.2165709795835395 L 53.2560213546599,5.121496559358587 L 53.54870241927282,4.005376811213659 L 53.7692721014601,2.8727981106008262 L 53.91682403308557,1.7284144663382728 L 53.990751891612376,0.5769283962897949 L 53.990751891612376,-0.5769283962897909 L 53.91682403308557,-1.728414466338269 L 53.7692721014601,-2.8727981106008227 L 53.54870241927282,-4.005376811213659 L 53.2560213546599,-5.121496559358583 L 52.89243159689569,-6.216570979583536 L 52.45942721428463,-7.286100176203087 L 51.958787514714004,-8.325689224335033 L 51.39256973409623,-9.331066229589451 L 50.76310058274521,-10.29809988219905 L 50.07296668442453,-11.222816433457202 L 49.32500394735568,-12.101416024703699 L 48.522285910862756,-12.930288301759095 L 47.6681111155402,-13.706027250644416 L 46.765989548841894,-14.425445193623219 L 45.81962822178988,-15.085585888053128 L 44.832915936070876,-15.683736674221008 L 43.809907304116045,-16.217439622243546 L 42.75480608782874,-16.68450163222839 L 41.671947924425176,-17.083003446192034 L 40.565782510371136,-17.411307534702527 L 39.440855316624706,-17.668064825839174 L 38.301788910321115,-17.85222024881843 L 37.15326395965284,-17.963017069506055 L 36.0,-18.0 L 36.0,-18.0 L 12.6,-18.0 L 12.6,-0.0 L 12.6,18.0 L 36.0,18.0" style="stroke:black;fill:none;stroke-width:2.0;stroke-dasharray:-;stroke-linecap:round;stroke-linejoin:round;" /><path d="M 0.0,9.0 L 12.6,9.0" style="stroke:black;fill:none;stroke-width:2.0;stroke-dasharray:-;stroke-linecap:round;stroke-linejoin:round;" /><path d="M 0.0,-9.0 L 12.6,-9.0" style="stroke:black;fill:none;stroke-width:2.0;stroke-dasharray:-;stroke-linecap:round;stroke-linejoin:round;" /><path d="M 54.0,-0.0 L 66.60000000000001,-0.0" style="stroke:black;fill:none;stroke-width:2.0;stroke-dasharray:-;stroke-linecap:round;stroke-linejoin:round;" /><path d="M 0.0,-9.0 L -24.3,-9.000000000000002 L -48.6,-9.000000000000005" style="stroke:black;fill:none;stroke-width:2.0;stroke-dasharray:-;stroke-linecap:round;stroke-linejoin:round;" /><path d="M 0.0,9.0 L -24.3,8.999999999999996 L -48.6,8.999999999999995" style="stroke:black;fill:none;stroke-width:2.0;stroke-dasharray:-;stroke-linecap:round;stroke-linejoin:round;" /><path d="M 66.60000000000001,-0.0 L 99.0,-0.0 L 131.4,-0.0" style="stroke:black;fill:none;stroke-width:2.0;stroke-dasharray:-;stroke-linecap:round;stroke-linejoin:round;" /><text x="33.300000000000004" y="-33.599999999999994" dominant-baseline="ideographic" fill="black" font-size="12" font-family="sans" text-anchor="middle"><tspan x="33.300000000000004" dy="12">AND</tspan></text><text x="-24.3" y="-24.6" dominant-baseline="ideographic" fill="black" font-size="12" font-family="sans" text-anchor="middle"><tspan x="-24.3" dy="12">A</tspan></text><text x="-24.3" y="0.5999999999999979" dominant-baseline="hanging" fill="black" font-size="12" font-family="sans" text-anchor="middle"><tspan x="-24.3" dy="12">B</tspan></text><text x="99.0" y="-15.6" dominant-baseline="ideographic" fill="black" font-size="12" font-family="sans" text-anchor="middle"><tspan x="99.0" dy="12">Y</tspan></text><text x="3.6" y="-114.80000000000001" dominant-baseline="central" fill="black" font-size="14" font-family="sans" text-anchor="middle"><tspan x="3.6" dy="14">AND Gate</tspan></text><text x="360.0" y="-84.0" dominant-baseline="central" fill="black" font-size="12" font-family="sans" text-anchor="start"><tspan x="360.0" dy="12">Inputs</tspan></text><text x="334.08" y="-70.75999999999999" dominant-baseline="central" fill="black" font-size="11" font-family="sans" text-anchor="end"><tspan x="334.08" dy="11">A:</tspan></text><text x="360.0" y="-70.75999999999999" dominant-baseline="central" fill="black" font-size="11" font-family="sans" text-anchor="start"><tspan x="360.0" dy="11">1</tspan></text><text x="334.08" y="-58.519999999999996" dominant-baseline="central" fill="black" font-size="11" font-family="sans" text-anchor="end"><tspan x="334.08" dy="11">B:</tspan></text><text x="360.0" y="-58.519999999999996" dominant-baseline="central" fill="black" font-size="11" font-family="sans" text-anchor="start"><tspan x="360.0" dy="11">1</tspan></text><text x="334.08" y="-46.27999999999999" dominant-baseline="central" fill="black" font-size="11" font-family="sans" text-anchor="end"><tspan x="334.08" dy="11">supply voltage V:</tspan></text><text x="360.0" y="-46.27999999999999" dominant-baseline="central" fill="black" font-size="11" font-family="sans" text-anchor="start"><tspan x="360.0" dy="11">5</tspan></text><text x="334.08" y="-34.039999999999985" dominant-baseline="central" fill="black" font-size="11" font-family="sans" text-anchor="end"><tspan x="334.08" dy="11">propagation delay ns:</tspan></text><text x="360.0" y="-34.039999999999985" dominant-baseline="central" fill="black" font-size="11" font-family="sans" text-anchor="start"><tspan x="360.0" dy="11">27.54</tspan></text><text x="334.08" y="-21.799999999999986" dominant-baseline="central" fill="black" font-size="11" font-family="sans" text-anchor="end"><tspan x="334.08" dy="11">temperature C:</tspan></text><text x="360.0" y="-21.799999999999986" dominant-baseline="central" fill="black" font-size="11" font-family="sans" text-anchor="start"><tspan x="360.0" dy="11">49.97</tspan></text><text x="360.0" y="4.200000000000003" dominant-baseline="central" fill="black" font-size="12" font-family="sans" text-anchor="start"><tspan x="360.0" dy="12">Predicted Outputs</tspan></text><text x="334.08" y="17.440000000000005" dominant-baseline="central" fill="black" font-size="11" font-family="sans" text-anchor="end"><tspan x="334.08" dy="11">Y:</tspan></text><text x="360.0" y="17.440000000000005" dominant-baseline="central" fill="black" font-size="11" font-family="sans" text-anchor="start"><tspan x="360.0" dy="11">1</tspan></text></svg>