<svg xmlns="http://www.w3.org/2000/svg" xmlns:xlink="http://www.w3.org/1999/xlink" xml:lang="en" height="239.94000000000003pt" width="526.0902863405995pt" viewBox="-210.55599999999998 -130.4 526.0902863405995 239.94000000000003" style="background-color:white;"><polygon points="-56.699999999999996,-9.0 -44.1,-0.0 -56.699999999999996,9.0 " style="stroke:black;fill:none;stroke-width:2.0;stroke-dasharray:-;stroke-linecap:round;stroke-linejoin:round;" /><path d="M -115.2,-0.0 L -100.80000000000001,-0.0 L -86.4,-0.0" style="stroke:black;fill:none;stroke-width:2.0;stroke-dasharray:-;stroke-linecap:round;stroke-linejoin:round;" /><path d="M -86.39999999999999,-0.0 L -56.699999999999996,-0.0 M -44.1,-9.0 L -44.1,9.0 M -44.1,-0.0 L -14.400000000000006,-0.0" style="stroke:black;fill:none;stroke-width:2.0;stroke-dasharray:-;stroke-linecap:round;stroke-linejoin:round;" /><path d="M -36.0,-0.0 L -18.0,-0.0 L 0.0,-0.0" style="stroke:black;fill:none;stroke-width:2.0;stroke-dasharray:-;stroke-linecap:round;stroke-linejoin:round;" /><path d="M -82.8,25.2 L -70.19999999999999,25.2 L -66.6,25.2" style="stroke:black;fill:none;stroke-width:2.0;stroke-dasharray:-;stroke-linecap:round;stroke-linejoin:round;" /><path d="M -59.599999999999994 25.2 L -66.6 27.9 L -66.6 22.5 Z" style="stroke:black;fill:black;stroke-linecap:butt;stroke-linejoin:miter;" /><path d="M 43.199999999999996,34.199999999999996 L 43.199999999999996,-10.8 L 121.14228634059947,34.199999999999996 L 43.199999999999996,79.2 L 43.199999999999996,34.199999999999996 M 121.14228634059947,34.199999999999996" style="stroke:black;fill:none;stroke-width:2.0;stroke-dasharray:-;stroke-linecap:round;stroke-linejoin:round;" /><path d="M 49.34278579257493,11.7 L 56.54278579257493,11.7" style="stroke:black;fill:none;stroke-width:2.0;stroke-dasharray:-;stroke-linecap:round;stroke-linejoin:round;" /><path d="M 49.34278579257493,56.699999999999996 L 56.54278579257493,56.699999999999996" style="stroke:black;fill:none;stroke-width:2.0;stroke-dasharray:-;stroke-linecap:round;stroke-linejoin:round;" /><path d="M 52.94278579257494,60.3 L 52.94278579257494,53.1" style="stroke:black;fill:none;stroke-width:2.0;stroke-dasharray:-;stroke-linecap:round;stroke-linejoin:round;" /><path d="M 0.0,-0.0 L 22.378170166481443,-0.0 L 44.756340332962885,-0.0" style="stroke:black;fill:none;stroke-width:2.0;stroke-dasharray:-;stroke-linecap:round;stroke-linejoin:round;" /><path d="M 43.199999999999996,56.699999999999996 L 27.0,56.699999999999996 L 10.799999999999997,56.699999999999996" style="stroke:black;fill:none;stroke-width:2.0;stroke-dasharray:-;stroke-linecap:round;stroke-linejoin:round;" /><path d="M 10.799999999999997,56.699999999999996 L 10.799999999999997,71.10000000000001 L 1.7999999999999976,71.10000000000001 L 19.799999999999997,71.10000000000001 M 4.499999999999998,75.41999999999999 L 17.099999999999998,75.41999999999999 M 8.999999999999998,79.74 L 12.599999999999998,79.74" style="stroke:black;fill:none;stroke-width:2.0;stroke-dasharray:-;stroke-linecap:round;stroke-linejoin:round;" /><path d="M 121.14228634059947,34.199999999999996 L 164.3422863405995,34.199999999999996 L 207.5422863405995,34.199999999999996" style="stroke:black;fill:none;stroke-width:2.0;stroke-dasharray:-;stroke-linecap:round;stroke-linejoin:round;" /><path d="M 207.5422863405995,34.199999999999996 L 207.5422863405995,3.599999999999999 L 207.5422863405995,-27.0" style="stroke:black;fill:none;stroke-width:2.0;stroke-dasharray:-;stroke-linecap:round;stroke-linejoin:round;" /><path d="M 207.5422863405995,-27.0 L 121.77114317029975,-27.00000000000001 L 118.77114317029974,-18.00000000000001 L 112.77114317029975,-36.000000000000014 L 106.77114317029975,-18.00000000000001 L 100.77114317029975,-36.000000000000014 L 94.77114317029975,-18.000000000000014 L 88.77114317029975,-36.000000000000014 L 85.77114317029975,-27.000000000000014 L 0.0,-27.000000000000025" style="stroke:black;fill:none;stroke-width:2.0;stroke-dasharray:-;stroke-linecap:round;stroke-linejoin:round;" /><path d="M 0.0,-27.0 L 8.266365894244633e-16,-13.5 L 1.6532731788489267e-15,-0.0" style="stroke:black;fill:none;stroke-width:2.0;stroke-dasharray:-;stroke-linecap:round;stroke-linejoin:round;" /><text x="-50.4" y="-24.6" dominant-baseline="ideographic" fill="black" font-size="12" font-family="sans" text-anchor="middle"><tspan x="-50.4" dy="12">D</tspan></text><text x="-66.6" y="22.200000000000003" dominant-baseline="central" fill="black" font-size="12" font-family="sans" text-anchor="middle"><tspan x="-66.6" dy="12">If=0.4999 nA</tspan></text><text x="211.14228634059947" y="22.199999999999996" dominant-baseline="central" fill="black" font-size="12" font-family="sans" text-anchor="start"><tspan x="211.14228634059947" dy="12">Vo=-0.2965 V</tspan></text><text x="103.77114317029975" y="-51.60000000000001" dominant-baseline="ideographic" fill="black" font-size="12" font-family="sans" text-anchor="middle"><tspan x="103.77114317029975" dy="12">50.67 kohm</tspan></text><text x="36.0" y="-107.60000000000001" dominant-baseline="central" fill="black" font-size="14" font-family="sans" text-anchor="middle"><tspan x="36.0" dy="14">Antilog Amplifier</tspan></text><circle cx="-115.2" cy="-0.0" r="2.6999999999999997" style="stroke:black;fill:black;stroke-width:2.0;stroke-dasharray:-;" /><text x="-121.5" y="-12.0" dominant-baseline="central" fill="black" font-size="12" font-family="sans" text-anchor="end"><tspan x="-121.5" dy="12">Vi=0.276 V</tspan></text><circle cx="0.0" cy="-0.0" r="2.6999999999999997" style="stroke:black;fill:black;stroke-width:2.0;stroke-dasharray:-;" /><circle cx="121.14228634059947" cy="34.199999999999996" r="2.6999999999999997" style="stroke:black;fill:black;stroke-width:2.0;stroke-dasharray:-;" /><circle cx="207.5422863405995" cy="34.199999999999996" r="2.6999999999999997" style="stroke:black;fill:black;stroke-width:2.0;stroke-dasharray:-;" /></svg>