<?xml version="1.0" encoding="utf-8" standalone="no"?>
<!DOCTYPE svg PUBLIC "-//W3C//DTD SVG 1.1//EN"
  "http://www.w3.org/Graphics/SVG/1.1/DTD/svg11.dtd">
<svg xmlns:xlink="http://www.w3.org/1999/xlink" width="438.174pt" height="302.14pt" viewBox="0 0 438.174 302.14" xmlns="http://www.w3.org/2000/svg" version="1.1">
 <metadata>
  <rdf:RDF xmlns:dc="http://purl.org/dc/elements/1.1/" xmlns:cc="http://creativecommons.org/ns#" xmlns:rdf="http://www.w3.org/1999/02/22-rdf-syntax-ns#">
   <cc:Work>
    <dc:type rdf:resource="http://purl.org/dc/dcmitype/StillImage"/>
    <dc:date>2026-03-25T11:32:54.567351</dc:date>
    <dc:format>image/svg+xml</dc:format>
    <dc:creator>
     <cc:Agent>
      <dc:title>Matplotlib v3.10.8, https://matplotlib.org/</dc:title>
     </cc:Agent>
    </dc:creator>
   </cc:Work>
  </rdf:RDF>
 </metadata>
 <defs>
  <style type="text/css">*{stroke-linejoin: round; stroke-linecap: butt}</style>
 </defs>
 <g id="figure_1">
  <g id="patch_1">
   <path d="M 0 302.14 
L 438.174 302.14 
L 438.174 0 
L 0 0 
z
" style="fill: #ffffff"/>
  </g>
  <g id="axes_1">
   <g id="patch_2">
    <path d="M 258.666 181.18 
C 263.917021 181.18 268.953681 179.093747 272.666714 175.380714 
C 276.379747 171.667681 278.466 166.631021 278.466 161.38 
C 278.466 156.128979 276.379747 151.092319 272.666714 147.379286 
C 268.953681 143.666253 263.917021 141.58 258.666 141.58 
C 253.414979 141.58 248.378319 143.666253 244.665286 147.379286 
C 240.952253 151.092319 238.866 156.128979 238.866 161.38 
C 238.866 166.631021 240.952253 171.667681 244.665286 175.380714 
C 248.378319 179.093747 253.414979 181.18 258.666 181.18 
L 258.666 181.18 
z
" clip-path="url(#pf9bc0ca63c)" style="fill: none; stroke: #000000; stroke-width: 1.35; stroke-linejoin: miter"/>
   </g>
   <g id="patch_3">
    <path d="M 97.386 220.78 
C 102.159656 220.78 106.738438 218.883406 110.113922 215.507922 
C 113.489406 212.132438 115.386 207.553656 115.386 202.78 
C 115.386 198.006344 113.489406 193.427562 110.113922 190.052078 
C 106.738438 186.676594 102.159656 184.78 97.386 184.78 
C 92.612344 184.78 88.033562 186.676594 84.658078 190.052078 
C 81.282594 193.427562 79.386 198.006344 79.386 202.78 
C 79.386 207.553656 81.282594 212.132438 84.658078 215.507922 
C 88.033562 218.883406 92.612344 220.78 97.386 220.78 
L 97.386 220.78 
z
" clip-path="url(#pf9bc0ca63c)" style="fill: none; stroke: #000000; stroke-width: 1.35; stroke-linejoin: miter"/>
   </g>
   <g id="line2d_1">
    <path d="M 238.866 161.38 
L 252.066 161.38 
" clip-path="url(#pf9bc0ca63c)" style="fill: none; stroke: #000000; stroke-width: 1.35; stroke-linecap: round"/>
   </g>
   <g id="line2d_2">
    <path d="M 252.066 148.18 
L 252.066 174.58 
" clip-path="url(#pf9bc0ca63c)" style="fill: none; stroke: #000000; stroke-width: 1.35; stroke-linecap: round"/>
   </g>
   <g id="line2d_3">
    <path d="M 252.066 154.78 
L 265.926 142.9 
L 265.926 136.3 
" clip-path="url(#pf9bc0ca63c)" style="fill: none; stroke: #000000; stroke-width: 1.35; stroke-linecap: round"/>
   </g>
   <g id="line2d_4">
    <path d="M 252.066 167.98 
L 265.926 179.86 
L 265.926 186.46 
" clip-path="url(#pf9bc0ca63c)" style="fill: none; stroke: #000000; stroke-width: 1.35; stroke-linecap: round"/>
   </g>
   <g id="line2d_5">
    <path d="M 252.066 167.98 
L 259.092691 174.002878 
" clip-path="url(#pf9bc0ca63c)" style="fill: none; stroke: #000000; stroke-width: 1.35; stroke-linecap: round"/>
   </g>
   <g id="patch_4">
    <path d="M 261.43554 171.269554 
L 265.926 179.86 
L 256.749842 176.736201 
z
" clip-path="url(#pf9bc0ca63c)"/>
   </g>
   <g id="line2d_6">
    <path d="M 265.926 67.78 
L 287.166 67.78 
L 308.406 67.78 
" clip-path="url(#pf9bc0ca63c)" style="fill: none; stroke: #000000; stroke-width: 1.35; stroke-linecap: round"/>
   </g>
   <g id="line2d_7">
    <path d="M 265.926 68.86 
L 265.926 71.92 
L 274.926 74.92 
L 256.926 80.92 
L 274.926 86.92 
L 256.926 92.92 
L 274.926 98.92 
L 256.926 104.92 
L 265.926 107.92 
L 265.926 110.98 
" clip-path="url(#pf9bc0ca63c)" style="fill: none; stroke: #000000; stroke-width: 1.35; stroke-linecap: round"/>
   </g>
   <g id="line2d_8">
    <path d="M 265.926 110.98 
L 265.926 123.64 
L 265.926 136.3 
" clip-path="url(#pf9bc0ca63c)" style="fill: none; stroke: #000000; stroke-width: 1.35; stroke-linecap: round"/>
   </g>
   <g id="line2d_9">
    <path d="M 265.926 136.3 
" clip-path="url(#pf9bc0ca63c)" style="fill: none; stroke: #000000; stroke-width: 1.35; stroke-linecap: round"/>
   </g>
   <g id="line2d_10">
    <path d="M 265.926 110.98 
L 209.196 110.98 
L 152.466 110.98 
" clip-path="url(#pf9bc0ca63c)" style="fill: none; stroke: #000000; stroke-width: 1.35; stroke-linecap: round"/>
   </g>
   <g id="line2d_11">
    <path d="M 152.466 110.98 
L 152.466 118.18 
L 161.466 121.18 
L 143.466 127.18 
L 161.466 133.18 
L 143.466 139.18 
L 161.466 145.18 
L 143.466 151.18 
L 152.466 154.18 
L 152.466 161.38 
" clip-path="url(#pf9bc0ca63c)" style="fill: none; stroke: #000000; stroke-width: 1.35; stroke-linecap: round"/>
   </g>
   <g id="line2d_12">
    <path d="M 152.466 161.38 
L 152.466 164.08 
L 161.466 167.08 
L 143.466 173.08 
L 161.466 179.08 
L 143.466 185.08 
L 161.466 191.08 
L 143.466 197.08 
L 152.466 200.08 
L 152.466 202.78 
" clip-path="url(#pf9bc0ca63c)" style="fill: none; stroke: #000000; stroke-width: 1.35; stroke-linecap: round"/>
   </g>
   <g id="line2d_13">
    <path d="M 61.386 202.78 
L 79.386 202.78 
L 79.386 202.78 
M 115.386 202.78 
L 115.386 202.78 
L 133.386 202.78 
" clip-path="url(#pf9bc0ca63c)" style="fill: none; stroke: #000000; stroke-width: 1.35; stroke-linecap: round"/>
   </g>
   <g id="line2d_14">
    <path d="M 97.386 211.78 
L 99.249497 211.03 
L 100.986 210.28 
L 102.477169 209.53 
L 103.621383 208.78 
L 104.340666 208.03 
L 104.586 207.28 
L 104.340666 206.53 
L 103.621383 205.78 
L 102.477169 205.03 
L 100.986 204.28 
L 99.249497 203.53 
L 97.386 202.78 
L 95.522503 202.03 
L 93.786 201.28 
L 92.294831 200.53 
L 91.150617 199.78 
L 90.431334 199.03 
L 90.186 198.28 
L 90.431334 197.53 
L 91.150617 196.78 
L 92.294831 196.03 
L 93.786 195.28 
L 95.522503 194.53 
L 97.386 193.78 
" clip-path="url(#pf9bc0ca63c)" style="fill: none; stroke: #000000; stroke-width: 1.35; stroke-linecap: round"/>
   </g>
   <g id="line2d_15">
    <path d="M 133.386 202.78 
L 142.926 202.78 
L 152.466 202.78 
" clip-path="url(#pf9bc0ca63c)" style="fill: none; stroke: #000000; stroke-width: 1.35; stroke-linecap: round"/>
   </g>
   <g id="line2d_16">
    <path d="M 152.466 202.78 
L 152.466 210.88 
L 152.466 218.98 
" clip-path="url(#pf9bc0ca63c)" style="fill: none; stroke: #000000; stroke-width: 1.35; stroke-linecap: round"/>
   </g>
   <g id="line2d_17">
    <path d="M 152.466 218.98 
L 152.466 233.38 
L 143.466 233.38 
L 161.466 233.38 
M 146.166 237.7 
L 158.766 237.7 
M 150.666 242.02 
L 154.266 242.02 
" clip-path="url(#pf9bc0ca63c)" style="fill: none; stroke: #000000; stroke-width: 1.35; stroke-linecap: round"/>
   </g>
   <g id="line2d_18">
    <path d="M 152.466 161.38 
L 172.266 161.38 
L 192.066 161.38 
" clip-path="url(#pf9bc0ca63c)" style="fill: none; stroke: #000000; stroke-width: 1.35; stroke-linecap: round"/>
   </g>
   <g id="line2d_19">
    <path d="M 192.066 161.38 
L 215.466 161.38 
L 238.866 161.38 
" clip-path="url(#pf9bc0ca63c)" style="fill: none; stroke: #000000; stroke-width: 1.35; stroke-linecap: round"/>
   </g>
   <g id="line2d_20">
    <path d="M 265.926 186.46 
L 286.596 186.46 
L 307.266 186.46 
" clip-path="url(#pf9bc0ca63c)" style="fill: none; stroke: #000000; stroke-width: 1.35; stroke-linecap: round"/>
   </g>
   <g id="line2d_21">
    <path d="M 307.266 186.46 
L 319.146 186.46 
L 331.026 186.46 
" clip-path="url(#pf9bc0ca63c)" style="fill: none; stroke: #000000; stroke-width: 1.35; stroke-linecap: round"/>
   </g>
   <g id="line2d_22">
    <path d="M 265.926 186.46 
L 265.926 189.76 
L 274.926 192.76 
L 256.926 198.76 
L 274.926 204.76 
L 256.926 210.76 
L 274.926 216.76 
L 256.926 222.76 
L 265.926 225.76 
L 265.926 229.06 
" clip-path="url(#pf9bc0ca63c)" style="fill: none; stroke: #000000; stroke-width: 1.35; stroke-linecap: round"/>
   </g>
   <g id="line2d_23">
    <path d="M 307.266 186.46 
L 307.266 189.76 
L 316.266 192.76 
L 298.266 198.76 
L 316.266 204.76 
L 298.266 210.76 
L 316.266 216.76 
L 298.266 222.76 
L 307.266 225.76 
L 307.266 229.06 
" clip-path="url(#pf9bc0ca63c)" style="fill: none; stroke: #000000; stroke-width: 1.35; stroke-linecap: round"/>
   </g>
   <g id="line2d_24">
    <path d="M 265.926 229.06 
L 286.596 229.06 
L 307.266 229.06 
" clip-path="url(#pf9bc0ca63c)" style="fill: none; stroke: #000000; stroke-width: 1.35; stroke-linecap: round"/>
   </g>
   <g id="line2d_25">
    <path d="M 307.266 229.06 
L 319.146 229.06 
L 331.026 229.06 
" clip-path="url(#pf9bc0ca63c)" style="fill: none; stroke: #000000; stroke-width: 1.35; stroke-linecap: round"/>
   </g>
   <g id="line2d_26">
    <path d="M 265.926 229.06 
L 265.926 239.14 
L 265.926 249.22 
" clip-path="url(#pf9bc0ca63c)" style="fill: none; stroke: #000000; stroke-width: 1.35; stroke-linecap: round"/>
   </g>
   <g id="line2d_27">
    <path d="M 265.926 249.22 
L 265.926 263.62 
L 256.926 263.62 
L 274.926 263.62 
M 259.626 267.94 
L 272.226 267.94 
M 264.126 272.26 
L 267.726 272.26 
" clip-path="url(#pf9bc0ca63c)" style="fill: none; stroke: #000000; stroke-width: 1.35; stroke-linecap: round"/>
   </g>
   <g id="text_1">
    <!-- BJT Common-Collector Circuit -->
    <g transform="translate(155.906625 38.415312) scale(0.11 -0.11)">
     <defs>
      <path id="DejaVuSans-42" d="M 1259 2228 
L 1259 519 
L 2272 519 
Q 2781 519 3026 730 
Q 3272 941 3272 1375 
Q 3272 1813 3026 2020 
Q 2781 2228 2272 2228 
L 1259 2228 
z
M 1259 4147 
L 1259 2741 
L 2194 2741 
Q 2656 2741 2882 2914 
Q 3109 3088 3109 3444 
Q 3109 3797 2882 3972 
Q 2656 4147 2194 4147 
L 1259 4147 
z
M 628 4666 
L 2241 4666 
Q 2963 4666 3353 4366 
Q 3744 4066 3744 3513 
Q 3744 3084 3544 2831 
Q 3344 2578 2956 2516 
Q 3422 2416 3680 2098 
Q 3938 1781 3938 1306 
Q 3938 681 3513 340 
Q 3088 0 2303 0 
L 628 0 
L 628 4666 
z
" transform="scale(0.015625)"/>
      <path id="DejaVuSans-4a" d="M 628 4666 
L 1259 4666 
L 1259 325 
Q 1259 -519 939 -900 
Q 619 -1281 -91 -1281 
L -331 -1281 
L -331 -750 
L -134 -750 
Q 284 -750 456 -515 
Q 628 -281 628 325 
L 628 4666 
z
" transform="scale(0.015625)"/>
      <path id="DejaVuSans-54" d="M -19 4666 
L 3928 4666 
L 3928 4134 
L 2272 4134 
L 2272 0 
L 1638 0 
L 1638 4134 
L -19 4134 
L -19 4666 
z
" transform="scale(0.015625)"/>
      <path id="DejaVuSans-20" transform="scale(0.015625)"/>
      <path id="DejaVuSans-43" d="M 4122 4306 
L 4122 3641 
Q 3803 3938 3442 4084 
Q 3081 4231 2675 4231 
Q 1875 4231 1450 3742 
Q 1025 3253 1025 2328 
Q 1025 1406 1450 917 
Q 1875 428 2675 428 
Q 3081 428 3442 575 
Q 3803 722 4122 1019 
L 4122 359 
Q 3791 134 3420 21 
Q 3050 -91 2638 -91 
Q 1578 -91 968 557 
Q 359 1206 359 2328 
Q 359 3453 968 4101 
Q 1578 4750 2638 4750 
Q 3056 4750 3426 4639 
Q 3797 4528 4122 4306 
z
" transform="scale(0.015625)"/>
      <path id="DejaVuSans-6f" d="M 1959 3097 
Q 1497 3097 1228 2736 
Q 959 2375 959 1747 
Q 959 1119 1226 758 
Q 1494 397 1959 397 
Q 2419 397 2687 759 
Q 2956 1122 2956 1747 
Q 2956 2369 2687 2733 
Q 2419 3097 1959 3097 
z
M 1959 3584 
Q 2709 3584 3137 3096 
Q 3566 2609 3566 1747 
Q 3566 888 3137 398 
Q 2709 -91 1959 -91 
Q 1206 -91 779 398 
Q 353 888 353 1747 
Q 353 2609 779 3096 
Q 1206 3584 1959 3584 
z
" transform="scale(0.015625)"/>
      <path id="DejaVuSans-6d" d="M 3328 2828 
Q 3544 3216 3844 3400 
Q 4144 3584 4550 3584 
Q 5097 3584 5394 3201 
Q 5691 2819 5691 2113 
L 5691 0 
L 5113 0 
L 5113 2094 
Q 5113 2597 4934 2840 
Q 4756 3084 4391 3084 
Q 3944 3084 3684 2787 
Q 3425 2491 3425 1978 
L 3425 0 
L 2847 0 
L 2847 2094 
Q 2847 2600 2669 2842 
Q 2491 3084 2119 3084 
Q 1678 3084 1418 2786 
Q 1159 2488 1159 1978 
L 1159 0 
L 581 0 
L 581 3500 
L 1159 3500 
L 1159 2956 
Q 1356 3278 1631 3431 
Q 1906 3584 2284 3584 
Q 2666 3584 2933 3390 
Q 3200 3197 3328 2828 
z
" transform="scale(0.015625)"/>
      <path id="DejaVuSans-6e" d="M 3513 2113 
L 3513 0 
L 2938 0 
L 2938 2094 
Q 2938 2591 2744 2837 
Q 2550 3084 2163 3084 
Q 1697 3084 1428 2787 
Q 1159 2491 1159 1978 
L 1159 0 
L 581 0 
L 581 3500 
L 1159 3500 
L 1159 2956 
Q 1366 3272 1645 3428 
Q 1925 3584 2291 3584 
Q 2894 3584 3203 3211 
Q 3513 2838 3513 2113 
z
" transform="scale(0.015625)"/>
      <path id="DejaVuSans-2d" d="M 313 2009 
L 1997 2009 
L 1997 1497 
L 313 1497 
L 313 2009 
z
" transform="scale(0.015625)"/>
      <path id="DejaVuSans-6c" d="M 603 4863 
L 1178 4863 
L 1178 0 
L 603 0 
L 603 4863 
z
" transform="scale(0.015625)"/>
      <path id="DejaVuSans-65" d="M 3597 1894 
L 3597 1613 
L 953 1613 
Q 991 1019 1311 708 
Q 1631 397 2203 397 
Q 2534 397 2845 478 
Q 3156 559 3463 722 
L 3463 178 
Q 3153 47 2828 -22 
Q 2503 -91 2169 -91 
Q 1331 -91 842 396 
Q 353 884 353 1716 
Q 353 2575 817 3079 
Q 1281 3584 2069 3584 
Q 2775 3584 3186 3129 
Q 3597 2675 3597 1894 
z
M 3022 2063 
Q 3016 2534 2758 2815 
Q 2500 3097 2075 3097 
Q 1594 3097 1305 2825 
Q 1016 2553 972 2059 
L 3022 2063 
z
" transform="scale(0.015625)"/>
      <path id="DejaVuSans-63" d="M 3122 3366 
L 3122 2828 
Q 2878 2963 2633 3030 
Q 2388 3097 2138 3097 
Q 1578 3097 1268 2742 
Q 959 2388 959 1747 
Q 959 1106 1268 751 
Q 1578 397 2138 397 
Q 2388 397 2633 464 
Q 2878 531 3122 666 
L 3122 134 
Q 2881 22 2623 -34 
Q 2366 -91 2075 -91 
Q 1284 -91 818 406 
Q 353 903 353 1747 
Q 353 2603 823 3093 
Q 1294 3584 2113 3584 
Q 2378 3584 2631 3529 
Q 2884 3475 3122 3366 
z
" transform="scale(0.015625)"/>
      <path id="DejaVuSans-74" d="M 1172 4494 
L 1172 3500 
L 2356 3500 
L 2356 3053 
L 1172 3053 
L 1172 1153 
Q 1172 725 1289 603 
Q 1406 481 1766 481 
L 2356 481 
L 2356 0 
L 1766 0 
Q 1100 0 847 248 
Q 594 497 594 1153 
L 594 3053 
L 172 3053 
L 172 3500 
L 594 3500 
L 594 4494 
L 1172 4494 
z
" transform="scale(0.015625)"/>
      <path id="DejaVuSans-72" d="M 2631 2963 
Q 2534 3019 2420 3045 
Q 2306 3072 2169 3072 
Q 1681 3072 1420 2755 
Q 1159 2438 1159 1844 
L 1159 0 
L 581 0 
L 581 3500 
L 1159 3500 
L 1159 2956 
Q 1341 3275 1631 3429 
Q 1922 3584 2338 3584 
Q 2397 3584 2469 3576 
Q 2541 3569 2628 3553 
L 2631 2963 
z
" transform="scale(0.015625)"/>
      <path id="DejaVuSans-69" d="M 603 3500 
L 1178 3500 
L 1178 0 
L 603 0 
L 603 3500 
z
M 603 4863 
L 1178 4863 
L 1178 4134 
L 603 4134 
L 603 4863 
z
" transform="scale(0.015625)"/>
      <path id="DejaVuSans-75" d="M 544 1381 
L 544 3500 
L 1119 3500 
L 1119 1403 
Q 1119 906 1312 657 
Q 1506 409 1894 409 
Q 2359 409 2629 706 
Q 2900 1003 2900 1516 
L 2900 3500 
L 3475 3500 
L 3475 0 
L 2900 0 
L 2900 538 
Q 2691 219 2414 64 
Q 2138 -91 1772 -91 
Q 1169 -91 856 284 
Q 544 659 544 1381 
z
M 1991 3584 
L 1991 3584 
z
" transform="scale(0.015625)"/>
     </defs>
     <use xlink:href="#DejaVuSans-42"/>
     <use xlink:href="#DejaVuSans-4a" transform="translate(68.603516 0)"/>
     <use xlink:href="#DejaVuSans-54" transform="translate(98.095703 0)"/>
     <use xlink:href="#DejaVuSans-20" transform="translate(159.179688 0)"/>
     <use xlink:href="#DejaVuSans-43" transform="translate(190.966797 0)"/>
     <use xlink:href="#DejaVuSans-6f" transform="translate(260.791016 0)"/>
     <use xlink:href="#DejaVuSans-6d" transform="translate(321.972656 0)"/>
     <use xlink:href="#DejaVuSans-6d" transform="translate(419.384766 0)"/>
     <use xlink:href="#DejaVuSans-6f" transform="translate(516.796875 0)"/>
     <use xlink:href="#DejaVuSans-6e" transform="translate(577.978516 0)"/>
     <use xlink:href="#DejaVuSans-2d" transform="translate(641.357422 0)"/>
     <use xlink:href="#DejaVuSans-43" transform="translate(677.441406 0)"/>
     <use xlink:href="#DejaVuSans-6f" transform="translate(747.265625 0)"/>
     <use xlink:href="#DejaVuSans-6c" transform="translate(808.447266 0)"/>
     <use xlink:href="#DejaVuSans-6c" transform="translate(836.230469 0)"/>
     <use xlink:href="#DejaVuSans-65" transform="translate(864.013672 0)"/>
     <use xlink:href="#DejaVuSans-63" transform="translate(925.537109 0)"/>
     <use xlink:href="#DejaVuSans-74" transform="translate(980.517578 0)"/>
     <use xlink:href="#DejaVuSans-6f" transform="translate(1019.726562 0)"/>
     <use xlink:href="#DejaVuSans-72" transform="translate(1080.908203 0)"/>
     <use xlink:href="#DejaVuSans-20" transform="translate(1122.021484 0)"/>
     <use xlink:href="#DejaVuSans-43" transform="translate(1153.808594 0)"/>
     <use xlink:href="#DejaVuSans-69" transform="translate(1223.632812 0)"/>
     <use xlink:href="#DejaVuSans-72" transform="translate(1251.416016 0)"/>
     <use xlink:href="#DejaVuSans-63" transform="translate(1290.279297 0)"/>
     <use xlink:href="#DejaVuSans-75" transform="translate(1345.259766 0)"/>
     <use xlink:href="#DejaVuSans-69" transform="translate(1408.638672 0)"/>
     <use xlink:href="#DejaVuSans-74" transform="translate(1436.421875 0)"/>
    </g>
   </g>
   <g id="text_2">
    <!-- Emitter Follower Configuration -->
    <g style="fill: #444444" transform="translate(160.695688 48.939375) scale(0.1 -0.1)">
     <defs>
      <path id="DejaVuSans-45" d="M 628 4666 
L 3578 4666 
L 3578 4134 
L 1259 4134 
L 1259 2753 
L 3481 2753 
L 3481 2222 
L 1259 2222 
L 1259 531 
L 3634 531 
L 3634 0 
L 628 0 
L 628 4666 
z
" transform="scale(0.015625)"/>
      <path id="DejaVuSans-46" d="M 628 4666 
L 3309 4666 
L 3309 4134 
L 1259 4134 
L 1259 2759 
L 3109 2759 
L 3109 2228 
L 1259 2228 
L 1259 0 
L 628 0 
L 628 4666 
z
" transform="scale(0.015625)"/>
      <path id="DejaVuSans-77" d="M 269 3500 
L 844 3500 
L 1563 769 
L 2278 3500 
L 2956 3500 
L 3675 769 
L 4391 3500 
L 4966 3500 
L 4050 0 
L 3372 0 
L 2619 2869 
L 1863 0 
L 1184 0 
L 269 3500 
z
" transform="scale(0.015625)"/>
      <path id="DejaVuSans-66" d="M 2375 4863 
L 2375 4384 
L 1825 4384 
Q 1516 4384 1395 4259 
Q 1275 4134 1275 3809 
L 1275 3500 
L 2222 3500 
L 2222 3053 
L 1275 3053 
L 1275 0 
L 697 0 
L 697 3053 
L 147 3053 
L 147 3500 
L 697 3500 
L 697 3744 
Q 697 4328 969 4595 
Q 1241 4863 1831 4863 
L 2375 4863 
z
" transform="scale(0.015625)"/>
      <path id="DejaVuSans-67" d="M 2906 1791 
Q 2906 2416 2648 2759 
Q 2391 3103 1925 3103 
Q 1463 3103 1205 2759 
Q 947 2416 947 1791 
Q 947 1169 1205 825 
Q 1463 481 1925 481 
Q 2391 481 2648 825 
Q 2906 1169 2906 1791 
z
M 3481 434 
Q 3481 -459 3084 -895 
Q 2688 -1331 1869 -1331 
Q 1566 -1331 1297 -1286 
Q 1028 -1241 775 -1147 
L 775 -588 
Q 1028 -725 1275 -790 
Q 1522 -856 1778 -856 
Q 2344 -856 2625 -561 
Q 2906 -266 2906 331 
L 2906 616 
Q 2728 306 2450 153 
Q 2172 0 1784 0 
Q 1141 0 747 490 
Q 353 981 353 1791 
Q 353 2603 747 3093 
Q 1141 3584 1784 3584 
Q 2172 3584 2450 3431 
Q 2728 3278 2906 2969 
L 2906 3500 
L 3481 3500 
L 3481 434 
z
" transform="scale(0.015625)"/>
      <path id="DejaVuSans-61" d="M 2194 1759 
Q 1497 1759 1228 1600 
Q 959 1441 959 1056 
Q 959 750 1161 570 
Q 1363 391 1709 391 
Q 2188 391 2477 730 
Q 2766 1069 2766 1631 
L 2766 1759 
L 2194 1759 
z
M 3341 1997 
L 3341 0 
L 2766 0 
L 2766 531 
Q 2569 213 2275 61 
Q 1981 -91 1556 -91 
Q 1019 -91 701 211 
Q 384 513 384 1019 
Q 384 1609 779 1909 
Q 1175 2209 1959 2209 
L 2766 2209 
L 2766 2266 
Q 2766 2663 2505 2880 
Q 2244 3097 1772 3097 
Q 1472 3097 1187 3025 
Q 903 2953 641 2809 
L 641 3341 
Q 956 3463 1253 3523 
Q 1550 3584 1831 3584 
Q 2591 3584 2966 3190 
Q 3341 2797 3341 1997 
z
" transform="scale(0.015625)"/>
     </defs>
     <use xlink:href="#DejaVuSans-45"/>
     <use xlink:href="#DejaVuSans-6d" transform="translate(63.183594 0)"/>
     <use xlink:href="#DejaVuSans-69" transform="translate(160.595703 0)"/>
     <use xlink:href="#DejaVuSans-74" transform="translate(188.378906 0)"/>
     <use xlink:href="#DejaVuSans-74" transform="translate(227.587891 0)"/>
     <use xlink:href="#DejaVuSans-65" transform="translate(266.796875 0)"/>
     <use xlink:href="#DejaVuSans-72" transform="translate(328.320312 0)"/>
     <use xlink:href="#DejaVuSans-20" transform="translate(369.433594 0)"/>
     <use xlink:href="#DejaVuSans-46" transform="translate(401.220703 0)"/>
     <use xlink:href="#DejaVuSans-6f" transform="translate(455.115234 0)"/>
     <use xlink:href="#DejaVuSans-6c" transform="translate(516.296875 0)"/>
     <use xlink:href="#DejaVuSans-6c" transform="translate(544.080078 0)"/>
     <use xlink:href="#DejaVuSans-6f" transform="translate(571.863281 0)"/>
     <use xlink:href="#DejaVuSans-77" transform="translate(633.044922 0)"/>
     <use xlink:href="#DejaVuSans-65" transform="translate(714.832031 0)"/>
     <use xlink:href="#DejaVuSans-72" transform="translate(776.355469 0)"/>
     <use xlink:href="#DejaVuSans-20" transform="translate(817.46875 0)"/>
     <use xlink:href="#DejaVuSans-43" transform="translate(849.255859 0)"/>
     <use xlink:href="#DejaVuSans-6f" transform="translate(919.080078 0)"/>
     <use xlink:href="#DejaVuSans-6e" transform="translate(980.261719 0)"/>
     <use xlink:href="#DejaVuSans-66" transform="translate(1043.640625 0)"/>
     <use xlink:href="#DejaVuSans-69" transform="translate(1078.845703 0)"/>
     <use xlink:href="#DejaVuSans-67" transform="translate(1106.628906 0)"/>
     <use xlink:href="#DejaVuSans-75" transform="translate(1170.105469 0)"/>
     <use xlink:href="#DejaVuSans-72" transform="translate(1233.484375 0)"/>
     <use xlink:href="#DejaVuSans-61" transform="translate(1274.597656 0)"/>
     <use xlink:href="#DejaVuSans-74" transform="translate(1335.876953 0)"/>
     <use xlink:href="#DejaVuSans-69" transform="translate(1375.085938 0)"/>
     <use xlink:href="#DejaVuSans-6f" transform="translate(1402.869141 0)"/>
     <use xlink:href="#DejaVuSans-6e" transform="translate(1464.050781 0)"/>
    </g>
   </g>
   <g id="text_3">
    <!-- Q1 -->
    <g transform="translate(282.066 164.715312) scale(0.11 -0.11)">
     <defs>
      <path id="DejaVuSans-51" d="M 2522 4238 
Q 1834 4238 1429 3725 
Q 1025 3213 1025 2328 
Q 1025 1447 1429 934 
Q 1834 422 2522 422 
Q 3209 422 3611 934 
Q 4013 1447 4013 2328 
Q 4013 3213 3611 3725 
Q 3209 4238 2522 4238 
z
M 3406 84 
L 4238 -825 
L 3475 -825 
L 2784 -78 
Q 2681 -84 2626 -87 
Q 2572 -91 2522 -91 
Q 1538 -91 948 567 
Q 359 1225 359 2328 
Q 359 3434 948 4092 
Q 1538 4750 2522 4750 
Q 3503 4750 4090 4092 
Q 4678 3434 4678 2328 
Q 4678 1516 4351 937 
Q 4025 359 3406 84 
z
" transform="scale(0.015625)"/>
      <path id="DejaVuSans-31" d="M 794 531 
L 1825 531 
L 1825 4091 
L 703 3866 
L 703 4441 
L 1819 4666 
L 2450 4666 
L 2450 531 
L 3481 531 
L 3481 0 
L 794 0 
L 794 531 
z
" transform="scale(0.015625)"/>
     </defs>
     <use xlink:href="#DejaVuSans-51"/>
     <use xlink:href="#DejaVuSans-31" transform="translate(78.710938 0)"/>
    </g>
   </g>
   <g id="text_4">
    <!-- +15 V -->
    <g transform="translate(266.646 58.575312) scale(0.11 -0.11)">
     <defs>
      <path id="DejaVuSans-2b" d="M 2944 4013 
L 2944 2272 
L 4684 2272 
L 4684 1741 
L 2944 1741 
L 2944 0 
L 2419 0 
L 2419 1741 
L 678 1741 
L 678 2272 
L 2419 2272 
L 2419 4013 
L 2944 4013 
z
" transform="scale(0.015625)"/>
      <path id="DejaVuSans-35" d="M 691 4666 
L 3169 4666 
L 3169 4134 
L 1269 4134 
L 1269 2991 
Q 1406 3038 1543 3061 
Q 1681 3084 1819 3084 
Q 2600 3084 3056 2656 
Q 3513 2228 3513 1497 
Q 3513 744 3044 326 
Q 2575 -91 1722 -91 
Q 1428 -91 1123 -41 
Q 819 9 494 109 
L 494 744 
Q 775 591 1075 516 
Q 1375 441 1709 441 
Q 2250 441 2565 725 
Q 2881 1009 2881 1497 
Q 2881 1984 2565 2268 
Q 2250 2553 1709 2553 
Q 1456 2553 1204 2497 
Q 953 2441 691 2322 
L 691 4666 
z
" transform="scale(0.015625)"/>
      <path id="DejaVuSans-56" d="M 1831 0 
L 50 4666 
L 709 4666 
L 2188 738 
L 3669 4666 
L 4325 4666 
L 2547 0 
L 1831 0 
z
" transform="scale(0.015625)"/>
     </defs>
     <use xlink:href="#DejaVuSans-2b"/>
     <use xlink:href="#DejaVuSans-31" transform="translate(83.789062 0)"/>
     <use xlink:href="#DejaVuSans-35" transform="translate(147.412109 0)"/>
     <use xlink:href="#DejaVuSans-20" transform="translate(211.035156 0)"/>
     <use xlink:href="#DejaVuSans-56" transform="translate(242.822266 0)"/>
    </g>
   </g>
   <g id="text_5">
    <!-- $R_c$ -->
    <g transform="translate(282.486 96.555312) scale(0.11 -0.11)">
     <defs>
      <path id="DejaVuSans-Oblique-52" d="M 1613 4147 
L 1294 2491 
L 2106 2491 
Q 2584 2491 2879 2755 
Q 3175 3019 3175 3444 
Q 3175 3784 2976 3965 
Q 2778 4147 2406 4147 
L 1613 4147 
z
M 2772 2241 
Q 2972 2194 3105 2009 
Q 3238 1825 3413 1275 
L 3809 0 
L 3144 0 
L 2778 1197 
Q 2638 1659 2453 1815 
Q 2269 1972 1888 1972 
L 1191 1972 
L 806 0 
L 172 0 
L 1081 4666 
L 2503 4666 
Q 3150 4666 3495 4373 
Q 3841 4081 3841 3531 
Q 3841 3044 3547 2687 
Q 3253 2331 2772 2241 
z
" transform="scale(0.015625)"/>
      <path id="DejaVuSans-Oblique-63" d="M 3431 3366 
L 3316 2797 
Q 3109 2947 2876 3022 
Q 2644 3097 2394 3097 
Q 2119 3097 1870 3000 
Q 1622 2903 1453 2725 
Q 1184 2453 1037 2087 
Q 891 1722 891 1331 
Q 891 859 1127 628 
Q 1363 397 1844 397 
Q 2081 397 2348 469 
Q 2616 541 2906 684 
L 2797 116 
Q 2547 13 2283 -39 
Q 2019 -91 1741 -91 
Q 1044 -91 669 257 
Q 294 606 294 1253 
Q 294 1797 489 2255 
Q 684 2713 1069 3078 
Q 1331 3328 1684 3456 
Q 2038 3584 2456 3584 
Q 2700 3584 2940 3529 
Q 3181 3475 3431 3366 
z
" transform="scale(0.015625)"/>
     </defs>
     <use xlink:href="#DejaVuSans-Oblique-52" transform="translate(0 0.09375)"/>
     <use xlink:href="#DejaVuSans-Oblique-63" transform="translate(69.482422 -16.3125) scale(0.7)"/>
    </g>
   </g>
   <g id="text_6">
    <!-- $R_{b1}$=140 kohm -->
    <g transform="translate(65.146 142.815313) scale(0.11 -0.11)">
     <defs>
      <path id="DejaVuSans-Oblique-62" d="M 3169 2138 
Q 3169 2591 2961 2847 
Q 2753 3103 2388 3103 
Q 2122 3103 1889 2973 
Q 1656 2844 1484 2597 
Q 1303 2338 1198 1995 
Q 1094 1653 1094 1313 
Q 1094 881 1298 636 
Q 1503 391 1863 391 
Q 2134 391 2365 517 
Q 2597 644 2772 891 
Q 2950 1147 3059 1487 
Q 3169 1828 3169 2138 
z
M 1381 2969 
Q 1594 3256 1914 3420 
Q 2234 3584 2584 3584 
Q 3122 3584 3439 3221 
Q 3756 2859 3756 2241 
Q 3756 1734 3570 1259 
Q 3384 784 3041 416 
Q 2816 172 2522 40 
Q 2228 -91 1906 -91 
Q 1566 -91 1316 65 
Q 1066 222 909 531 
L 806 0 
L 231 0 
L 1178 4863 
L 1753 4863 
L 1381 2969 
z
" transform="scale(0.015625)"/>
      <path id="DejaVuSans-3d" d="M 678 2906 
L 4684 2906 
L 4684 2381 
L 678 2381 
L 678 2906 
z
M 678 1631 
L 4684 1631 
L 4684 1100 
L 678 1100 
L 678 1631 
z
" transform="scale(0.015625)"/>
      <path id="DejaVuSans-34" d="M 2419 4116 
L 825 1625 
L 2419 1625 
L 2419 4116 
z
M 2253 4666 
L 3047 4666 
L 3047 1625 
L 3713 1625 
L 3713 1100 
L 3047 1100 
L 3047 0 
L 2419 0 
L 2419 1100 
L 313 1100 
L 313 1709 
L 2253 4666 
z
" transform="scale(0.015625)"/>
      <path id="DejaVuSans-30" d="M 2034 4250 
Q 1547 4250 1301 3770 
Q 1056 3291 1056 2328 
Q 1056 1369 1301 889 
Q 1547 409 2034 409 
Q 2525 409 2770 889 
Q 3016 1369 3016 2328 
Q 3016 3291 2770 3770 
Q 2525 4250 2034 4250 
z
M 2034 4750 
Q 2819 4750 3233 4129 
Q 3647 3509 3647 2328 
Q 3647 1150 3233 529 
Q 2819 -91 2034 -91 
Q 1250 -91 836 529 
Q 422 1150 422 2328 
Q 422 3509 836 4129 
Q 1250 4750 2034 4750 
z
" transform="scale(0.015625)"/>
      <path id="DejaVuSans-6b" d="M 581 4863 
L 1159 4863 
L 1159 1991 
L 2875 3500 
L 3609 3500 
L 1753 1863 
L 3688 0 
L 2938 0 
L 1159 1709 
L 1159 0 
L 581 0 
L 581 4863 
z
" transform="scale(0.015625)"/>
      <path id="DejaVuSans-68" d="M 3513 2113 
L 3513 0 
L 2938 0 
L 2938 2094 
Q 2938 2591 2744 2837 
Q 2550 3084 2163 3084 
Q 1697 3084 1428 2787 
Q 1159 2491 1159 1978 
L 1159 0 
L 581 0 
L 581 4863 
L 1159 4863 
L 1159 2956 
Q 1366 3272 1645 3428 
Q 1925 3584 2291 3584 
Q 2894 3584 3203 3211 
Q 3513 2838 3513 2113 
z
" transform="scale(0.015625)"/>
     </defs>
     <use xlink:href="#DejaVuSans-Oblique-52" transform="translate(0 0.015625)"/>
     <use xlink:href="#DejaVuSans-Oblique-62" transform="translate(69.482422 -16.390625) scale(0.7)"/>
     <use xlink:href="#DejaVuSans-31" transform="translate(113.916016 -16.390625) scale(0.7)"/>
     <use xlink:href="#DejaVuSans-3d" transform="translate(161.186523 0.015625)"/>
     <use xlink:href="#DejaVuSans-31" transform="translate(244.975586 0.015625)"/>
     <use xlink:href="#DejaVuSans-34" transform="translate(308.598633 0.015625)"/>
     <use xlink:href="#DejaVuSans-30" transform="translate(372.22168 0.015625)"/>
     <use xlink:href="#DejaVuSans-20" transform="translate(435.844727 0.015625)"/>
     <use xlink:href="#DejaVuSans-6b" transform="translate(467.631836 0.015625)"/>
     <use xlink:href="#DejaVuSans-6f" transform="translate(525.541992 0.015625)"/>
     <use xlink:href="#DejaVuSans-68" transform="translate(586.723633 0.015625)"/>
     <use xlink:href="#DejaVuSans-6d" transform="translate(650.102539 0.015625)"/>
    </g>
   </g>
   <g id="text_7">
    <!-- $R_{b2}$=18.81 kohm -->
    <g transform="translate(54.916 188.715312) scale(0.11 -0.11)">
     <defs>
      <path id="DejaVuSans-32" d="M 1228 531 
L 3431 531 
L 3431 0 
L 469 0 
L 469 531 
Q 828 903 1448 1529 
Q 2069 2156 2228 2338 
Q 2531 2678 2651 2914 
Q 2772 3150 2772 3378 
Q 2772 3750 2511 3984 
Q 2250 4219 1831 4219 
Q 1534 4219 1204 4116 
Q 875 4013 500 3803 
L 500 4441 
Q 881 4594 1212 4672 
Q 1544 4750 1819 4750 
Q 2544 4750 2975 4387 
Q 3406 4025 3406 3419 
Q 3406 3131 3298 2873 
Q 3191 2616 2906 2266 
Q 2828 2175 2409 1742 
Q 1991 1309 1228 531 
z
" transform="scale(0.015625)"/>
      <path id="DejaVuSans-38" d="M 2034 2216 
Q 1584 2216 1326 1975 
Q 1069 1734 1069 1313 
Q 1069 891 1326 650 
Q 1584 409 2034 409 
Q 2484 409 2743 651 
Q 3003 894 3003 1313 
Q 3003 1734 2745 1975 
Q 2488 2216 2034 2216 
z
M 1403 2484 
Q 997 2584 770 2862 
Q 544 3141 544 3541 
Q 544 4100 942 4425 
Q 1341 4750 2034 4750 
Q 2731 4750 3128 4425 
Q 3525 4100 3525 3541 
Q 3525 3141 3298 2862 
Q 3072 2584 2669 2484 
Q 3125 2378 3379 2068 
Q 3634 1759 3634 1313 
Q 3634 634 3220 271 
Q 2806 -91 2034 -91 
Q 1263 -91 848 271 
Q 434 634 434 1313 
Q 434 1759 690 2068 
Q 947 2378 1403 2484 
z
M 1172 3481 
Q 1172 3119 1398 2916 
Q 1625 2713 2034 2713 
Q 2441 2713 2670 2916 
Q 2900 3119 2900 3481 
Q 2900 3844 2670 4047 
Q 2441 4250 2034 4250 
Q 1625 4250 1398 4047 
Q 1172 3844 1172 3481 
z
" transform="scale(0.015625)"/>
      <path id="DejaVuSans-2e" d="M 684 794 
L 1344 794 
L 1344 0 
L 684 0 
L 684 794 
z
" transform="scale(0.015625)"/>
     </defs>
     <use xlink:href="#DejaVuSans-Oblique-52" transform="translate(0 0.015625)"/>
     <use xlink:href="#DejaVuSans-Oblique-62" transform="translate(69.482422 -16.390625) scale(0.7)"/>
     <use xlink:href="#DejaVuSans-32" transform="translate(113.916016 -16.390625) scale(0.7)"/>
     <use xlink:href="#DejaVuSans-3d" transform="translate(161.186523 0.015625)"/>
     <use xlink:href="#DejaVuSans-31" transform="translate(244.975586 0.015625)"/>
     <use xlink:href="#DejaVuSans-38" transform="translate(308.598633 0.015625)"/>
     <use xlink:href="#DejaVuSans-2e" transform="translate(372.22168 0.015625)"/>
     <use xlink:href="#DejaVuSans-38" transform="translate(401.383789 0.015625)"/>
     <use xlink:href="#DejaVuSans-31" transform="translate(465.006836 0.015625)"/>
     <use xlink:href="#DejaVuSans-20" transform="translate(528.629883 0.015625)"/>
     <use xlink:href="#DejaVuSans-6b" transform="translate(560.416992 0.015625)"/>
     <use xlink:href="#DejaVuSans-6f" transform="translate(618.327148 0.015625)"/>
     <use xlink:href="#DejaVuSans-68" transform="translate(679.508789 0.015625)"/>
     <use xlink:href="#DejaVuSans-6d" transform="translate(742.887695 0.015625)"/>
    </g>
   </g>
   <g id="text_8">
    <!-- $V_{in}$ -->
    <g transform="translate(33.576 201.495312) scale(0.11 -0.11)">
     <defs>
      <path id="DejaVuSans-Oblique-56" d="M 1319 0 
L 500 4666 
L 1119 4666 
L 1797 653 
L 4063 4666 
L 4750 4666 
L 2053 0 
L 1319 0 
z
" transform="scale(0.015625)"/>
      <path id="DejaVuSans-Oblique-69" d="M 1172 4863 
L 1747 4863 
L 1606 4134 
L 1031 4134 
L 1172 4863 
z
M 909 3500 
L 1484 3500 
L 800 0 
L 225 0 
L 909 3500 
z
" transform="scale(0.015625)"/>
      <path id="DejaVuSans-Oblique-6e" d="M 3566 2113 
L 3156 0 
L 2578 0 
L 2988 2091 
Q 3016 2238 3031 2350 
Q 3047 2463 3047 2528 
Q 3047 2791 2881 2937 
Q 2716 3084 2419 3084 
Q 1956 3084 1622 2776 
Q 1288 2469 1184 1941 
L 800 0 
L 225 0 
L 903 3500 
L 1478 3500 
L 1363 2950 
Q 1603 3253 1940 3418 
Q 2278 3584 2650 3584 
Q 3113 3584 3367 3334 
Q 3622 3084 3622 2631 
Q 3622 2519 3608 2391 
Q 3594 2263 3566 2113 
z
" transform="scale(0.015625)"/>
     </defs>
     <use xlink:href="#DejaVuSans-Oblique-56" transform="translate(0 0.09375)"/>
     <use xlink:href="#DejaVuSans-Oblique-69" transform="translate(68.408203 -16.3125) scale(0.7)"/>
     <use xlink:href="#DejaVuSans-Oblique-6e" transform="translate(87.856445 -16.3125) scale(0.7)"/>
    </g>
   </g>
   <g id="text_9">
    <!-- $V_{out}$ -->
    <g transform="translate(334.266 175.095312) scale(0.11 -0.11)">
     <defs>
      <path id="DejaVuSans-Oblique-6f" d="M 1625 -91 
Q 1009 -91 651 289 
Q 294 669 294 1325 
Q 294 1706 417 2101 
Q 541 2497 738 2766 
Q 1047 3184 1428 3384 
Q 1809 3584 2291 3584 
Q 2888 3584 3255 3212 
Q 3622 2841 3622 2241 
Q 3622 1825 3500 1412 
Q 3378 1000 3181 728 
Q 2875 309 2494 109 
Q 2113 -91 1625 -91 
z
M 891 1344 
Q 891 869 1089 633 
Q 1288 397 1691 397 
Q 2269 397 2648 901 
Q 3028 1406 3028 2181 
Q 3028 2634 2825 2865 
Q 2622 3097 2228 3097 
Q 1903 3097 1650 2945 
Q 1397 2794 1197 2484 
Q 1050 2253 970 1956 
Q 891 1659 891 1344 
z
" transform="scale(0.015625)"/>
      <path id="DejaVuSans-Oblique-75" d="M 428 1388 
L 838 3500 
L 1416 3500 
L 1006 1409 
Q 975 1256 961 1147 
Q 947 1038 947 966 
Q 947 700 1109 554 
Q 1272 409 1569 409 
Q 2031 409 2368 721 
Q 2706 1034 2809 1563 
L 3194 3500 
L 3769 3500 
L 3091 0 
L 2516 0 
L 2631 550 
Q 2388 244 2052 76 
Q 1716 -91 1338 -91 
Q 878 -91 622 161 
Q 366 413 366 863 
Q 366 956 381 1097 
Q 397 1238 428 1388 
z
" transform="scale(0.015625)"/>
      <path id="DejaVuSans-Oblique-74" d="M 2706 3500 
L 2619 3053 
L 1472 3053 
L 1100 1153 
Q 1081 1047 1072 975 
Q 1063 903 1063 863 
Q 1063 663 1183 572 
Q 1303 481 1569 481 
L 2150 481 
L 2053 0 
L 1503 0 
Q 991 0 739 200 
Q 488 400 488 806 
Q 488 878 497 964 
Q 506 1050 525 1153 
L 897 3053 
L 409 3053 
L 500 3500 
L 978 3500 
L 1172 4494 
L 1747 4494 
L 1556 3500 
L 2706 3500 
z
" transform="scale(0.015625)"/>
     </defs>
     <use xlink:href="#DejaVuSans-Oblique-56" transform="translate(0 0.09375)"/>
     <use xlink:href="#DejaVuSans-Oblique-6f" transform="translate(68.408203 -16.3125) scale(0.7)"/>
     <use xlink:href="#DejaVuSans-Oblique-75" transform="translate(111.235352 -16.3125) scale(0.7)"/>
     <use xlink:href="#DejaVuSans-Oblique-74" transform="translate(155.600586 -16.3125) scale(0.7)"/>
    </g>
   </g>
   <g id="text_10">
    <!-- $R_e$=394.5 ohm -->
    <g transform="translate(175.526 214.395312) scale(0.11 -0.11)">
     <defs>
      <path id="DejaVuSans-Oblique-65" d="M 3078 2063 
Q 3088 2113 3092 2166 
Q 3097 2219 3097 2272 
Q 3097 2653 2873 2875 
Q 2650 3097 2266 3097 
Q 1838 3097 1509 2826 
Q 1181 2556 1013 2059 
L 3078 2063 
z
M 3578 1613 
L 903 1613 
Q 884 1494 878 1425 
Q 872 1356 872 1306 
Q 872 872 1139 634 
Q 1406 397 1894 397 
Q 2269 397 2603 481 
Q 2938 566 3225 728 
L 3116 159 
Q 2806 34 2476 -28 
Q 2147 -91 1806 -91 
Q 1078 -91 686 257 
Q 294 606 294 1247 
Q 294 1794 489 2264 
Q 684 2734 1063 3103 
Q 1306 3334 1642 3459 
Q 1978 3584 2356 3584 
Q 2950 3584 3301 3228 
Q 3653 2872 3653 2272 
Q 3653 2128 3634 1964 
Q 3616 1800 3578 1613 
z
" transform="scale(0.015625)"/>
      <path id="DejaVuSans-33" d="M 2597 2516 
Q 3050 2419 3304 2112 
Q 3559 1806 3559 1356 
Q 3559 666 3084 287 
Q 2609 -91 1734 -91 
Q 1441 -91 1130 -33 
Q 819 25 488 141 
L 488 750 
Q 750 597 1062 519 
Q 1375 441 1716 441 
Q 2309 441 2620 675 
Q 2931 909 2931 1356 
Q 2931 1769 2642 2001 
Q 2353 2234 1838 2234 
L 1294 2234 
L 1294 2753 
L 1863 2753 
Q 2328 2753 2575 2939 
Q 2822 3125 2822 3475 
Q 2822 3834 2567 4026 
Q 2313 4219 1838 4219 
Q 1578 4219 1281 4162 
Q 984 4106 628 3988 
L 628 4550 
Q 988 4650 1302 4700 
Q 1616 4750 1894 4750 
Q 2613 4750 3031 4423 
Q 3450 4097 3450 3541 
Q 3450 3153 3228 2886 
Q 3006 2619 2597 2516 
z
" transform="scale(0.015625)"/>
      <path id="DejaVuSans-39" d="M 703 97 
L 703 672 
Q 941 559 1184 500 
Q 1428 441 1663 441 
Q 2288 441 2617 861 
Q 2947 1281 2994 2138 
Q 2813 1869 2534 1725 
Q 2256 1581 1919 1581 
Q 1219 1581 811 2004 
Q 403 2428 403 3163 
Q 403 3881 828 4315 
Q 1253 4750 1959 4750 
Q 2769 4750 3195 4129 
Q 3622 3509 3622 2328 
Q 3622 1225 3098 567 
Q 2575 -91 1691 -91 
Q 1453 -91 1209 -44 
Q 966 3 703 97 
z
M 1959 2075 
Q 2384 2075 2632 2365 
Q 2881 2656 2881 3163 
Q 2881 3666 2632 3958 
Q 2384 4250 1959 4250 
Q 1534 4250 1286 3958 
Q 1038 3666 1038 3163 
Q 1038 2656 1286 2365 
Q 1534 2075 1959 2075 
z
" transform="scale(0.015625)"/>
     </defs>
     <use xlink:href="#DejaVuSans-Oblique-52" transform="translate(0 0.015625)"/>
     <use xlink:href="#DejaVuSans-Oblique-65" transform="translate(69.482422 -16.390625) scale(0.7)"/>
     <use xlink:href="#DejaVuSans-3d" transform="translate(115.283203 0.015625)"/>
     <use xlink:href="#DejaVuSans-33" transform="translate(199.072266 0.015625)"/>
     <use xlink:href="#DejaVuSans-39" transform="translate(262.695312 0.015625)"/>
     <use xlink:href="#DejaVuSans-34" transform="translate(326.318359 0.015625)"/>
     <use xlink:href="#DejaVuSans-2e" transform="translate(389.941406 0.015625)"/>
     <use xlink:href="#DejaVuSans-35" transform="translate(421.728516 0.015625)"/>
     <use xlink:href="#DejaVuSans-20" transform="translate(485.351562 0.015625)"/>
     <use xlink:href="#DejaVuSans-6f" transform="translate(517.138672 0.015625)"/>
     <use xlink:href="#DejaVuSans-68" transform="translate(578.320312 0.015625)"/>
     <use xlink:href="#DejaVuSans-6d" transform="translate(641.699219 0.015625)"/>
    </g>
   </g>
   <g id="text_11">
    <!-- $R_L$=6.926 kohm -->
    <g transform="translate(325.266 214.395312) scale(0.11 -0.11)">
     <defs>
      <path id="DejaVuSans-Oblique-4c" d="M 1075 4666 
L 1709 4666 
L 909 525 
L 3181 525 
L 3078 0 
L 172 0 
L 1075 4666 
z
" transform="scale(0.015625)"/>
      <path id="DejaVuSans-36" d="M 2113 2584 
Q 1688 2584 1439 2293 
Q 1191 2003 1191 1497 
Q 1191 994 1439 701 
Q 1688 409 2113 409 
Q 2538 409 2786 701 
Q 3034 994 3034 1497 
Q 3034 2003 2786 2293 
Q 2538 2584 2113 2584 
z
M 3366 4563 
L 3366 3988 
Q 3128 4100 2886 4159 
Q 2644 4219 2406 4219 
Q 1781 4219 1451 3797 
Q 1122 3375 1075 2522 
Q 1259 2794 1537 2939 
Q 1816 3084 2150 3084 
Q 2853 3084 3261 2657 
Q 3669 2231 3669 1497 
Q 3669 778 3244 343 
Q 2819 -91 2113 -91 
Q 1303 -91 875 529 
Q 447 1150 447 2328 
Q 447 3434 972 4092 
Q 1497 4750 2381 4750 
Q 2619 4750 2861 4703 
Q 3103 4656 3366 4563 
z
" transform="scale(0.015625)"/>
     </defs>
     <use xlink:href="#DejaVuSans-Oblique-52" transform="translate(0 0.015625)"/>
     <use xlink:href="#DejaVuSans-Oblique-4c" transform="translate(69.482422 -16.390625) scale(0.7)"/>
     <use xlink:href="#DejaVuSans-3d" transform="translate(111.21582 0.015625)"/>
     <use xlink:href="#DejaVuSans-36" transform="translate(195.004883 0.015625)"/>
     <use xlink:href="#DejaVuSans-2e" transform="translate(258.62793 0.015625)"/>
     <use xlink:href="#DejaVuSans-39" transform="translate(290.415039 0.015625)"/>
     <use xlink:href="#DejaVuSans-32" transform="translate(352.288086 0.015625)"/>
     <use xlink:href="#DejaVuSans-36" transform="translate(415.911133 0.015625)"/>
     <use xlink:href="#DejaVuSans-20" transform="translate(479.53418 0.015625)"/>
     <use xlink:href="#DejaVuSans-6b" transform="translate(511.321289 0.015625)"/>
     <use xlink:href="#DejaVuSans-6f" transform="translate(569.231445 0.015625)"/>
     <use xlink:href="#DejaVuSans-68" transform="translate(630.413086 0.015625)"/>
     <use xlink:href="#DejaVuSans-6d" transform="translate(693.791992 0.015625)"/>
    </g>
   </g>
   <g id="text_12">
    <!-- GND -->
    <g transform="translate(290.401156 243.339375) scale(0.1 -0.1)">
     <defs>
      <path id="DejaVuSans-47" d="M 3809 666 
L 3809 1919 
L 2778 1919 
L 2778 2438 
L 4434 2438 
L 4434 434 
Q 4069 175 3628 42 
Q 3188 -91 2688 -91 
Q 1594 -91 976 548 
Q 359 1188 359 2328 
Q 359 3472 976 4111 
Q 1594 4750 2688 4750 
Q 3144 4750 3555 4637 
Q 3966 4525 4313 4306 
L 4313 3634 
Q 3963 3931 3569 4081 
Q 3175 4231 2741 4231 
Q 1884 4231 1454 3753 
Q 1025 3275 1025 2328 
Q 1025 1384 1454 906 
Q 1884 428 2741 428 
Q 3075 428 3337 486 
Q 3600 544 3809 666 
z
" transform="scale(0.015625)"/>
      <path id="DejaVuSans-4e" d="M 628 4666 
L 1478 4666 
L 3547 763 
L 3547 4666 
L 4159 4666 
L 4159 0 
L 3309 0 
L 1241 3903 
L 1241 0 
L 628 0 
L 628 4666 
z
" transform="scale(0.015625)"/>
      <path id="DejaVuSans-44" d="M 1259 4147 
L 1259 519 
L 2022 519 
Q 2988 519 3436 956 
Q 3884 1394 3884 2338 
Q 3884 3275 3436 3711 
Q 2988 4147 2022 4147 
L 1259 4147 
z
M 628 4666 
L 1925 4666 
Q 3281 4666 3915 4102 
Q 4550 3538 4550 2338 
Q 4550 1131 3912 565 
Q 3275 0 1925 0 
L 628 0 
L 628 4666 
z
" transform="scale(0.015625)"/>
     </defs>
     <use xlink:href="#DejaVuSans-47"/>
     <use xlink:href="#DejaVuSans-4e" transform="translate(77.490234 0)"/>
     <use xlink:href="#DejaVuSans-44" transform="translate(152.294922 0)"/>
    </g>
   </g>
   <g id="text_13">
    <!-- C -->
    <g transform="translate(274.926 140.859375) scale(0.1 -0.1)">
     <use xlink:href="#DejaVuSans-43"/>
    </g>
   </g>
   <g id="text_14">
    <!-- B -->
    <g transform="translate(230.205062 171.339375) scale(0.1 -0.1)">
     <use xlink:href="#DejaVuSans-42"/>
    </g>
   </g>
   <g id="text_15">
    <!-- E -->
    <g transform="translate(274.926 193.539375) scale(0.1 -0.1)">
     <use xlink:href="#DejaVuSans-45"/>
    </g>
   </g>
   <g id="patch_5">
    <path d="M 265.926 70.48 
C 266.642048 70.48 267.328866 70.195511 267.835188 69.689188 
C 268.341511 69.182866 268.626 68.496048 268.626 67.78 
C 268.626 67.063952 268.341511 66.377134 267.835188 65.870812 
C 267.328866 65.364489 266.642048 65.08 265.926 65.08 
C 265.209952 65.08 264.523134 65.364489 264.016812 65.870812 
C 263.510489 66.377134 263.226 67.063952 263.226 67.78 
C 263.226 68.496048 263.510489 69.182866 264.016812 69.689188 
C 264.523134 70.195511 265.209952 70.48 265.926 70.48 
z
" clip-path="url(#pf9bc0ca63c)" style="fill: #ffffff; stroke: #000000; stroke-width: 1.35; stroke-linejoin: miter"/>
   </g>
   <g id="patch_6">
    <path d="M 265.926 113.68 
C 266.642048 113.68 267.328866 113.395511 267.835188 112.889188 
C 268.341511 112.382866 268.626 111.696048 268.626 110.98 
C 268.626 110.263952 268.341511 109.577134 267.835188 109.070812 
C 267.328866 108.564489 266.642048 108.28 265.926 108.28 
C 265.209952 108.28 264.523134 108.564489 264.016812 109.070812 
C 263.510489 109.577134 263.226 110.263952 263.226 110.98 
C 263.226 111.696048 263.510489 112.382866 264.016812 112.889188 
C 264.523134 113.395511 265.209952 113.68 265.926 113.68 
z
" clip-path="url(#pf9bc0ca63c)" style="stroke: #000000; stroke-width: 1.35; stroke-linejoin: miter"/>
   </g>
   <g id="patch_7">
    <path d="M 152.466 164.08 
C 153.182048 164.08 153.868866 163.795511 154.375188 163.289188 
C 154.881511 162.782866 155.166 162.096048 155.166 161.38 
C 155.166 160.663952 154.881511 159.977134 154.375188 159.470812 
C 153.868866 158.964489 153.182048 158.68 152.466 158.68 
C 151.749952 158.68 151.063134 158.964489 150.556812 159.470812 
C 150.050489 159.977134 149.766 160.663952 149.766 161.38 
C 149.766 162.096048 150.050489 162.782866 150.556812 163.289188 
C 151.063134 163.795511 151.749952 164.08 152.466 164.08 
z
" clip-path="url(#pf9bc0ca63c)" style="stroke: #000000; stroke-width: 1.35; stroke-linejoin: miter"/>
   </g>
   <g id="patch_8">
    <path d="M 152.466 205.48 
C 153.182048 205.48 153.868866 205.195511 154.375188 204.689188 
C 154.881511 204.182866 155.166 203.496048 155.166 202.78 
C 155.166 202.063952 154.881511 201.377134 154.375188 200.870812 
C 153.868866 200.364489 153.182048 200.08 152.466 200.08 
C 151.749952 200.08 151.063134 200.364489 150.556812 200.870812 
C 150.050489 201.377134 149.766 202.063952 149.766 202.78 
C 149.766 203.496048 150.050489 204.182866 150.556812 204.689188 
C 151.063134 205.195511 151.749952 205.48 152.466 205.48 
z
" clip-path="url(#pf9bc0ca63c)" style="stroke: #000000; stroke-width: 1.35; stroke-linejoin: miter"/>
   </g>
   <g id="patch_9">
    <path d="M 307.266 189.16 
C 307.982048 189.16 308.668866 188.875511 309.175188 188.369188 
C 309.681511 187.862866 309.966 187.176048 309.966 186.46 
C 309.966 185.743952 309.681511 185.057134 309.175188 184.550812 
C 308.668866 184.044489 307.982048 183.76 307.266 183.76 
C 306.549952 183.76 305.863134 184.044489 305.356812 184.550812 
C 304.850489 185.057134 304.566 185.743952 304.566 186.46 
C 304.566 187.176048 304.850489 187.862866 305.356812 188.369188 
C 305.863134 188.875511 306.549952 189.16 307.266 189.16 
z
" clip-path="url(#pf9bc0ca63c)" style="stroke: #000000; stroke-width: 1.35; stroke-linejoin: miter"/>
   </g>
   <g id="patch_10">
    <path d="M 331.026 189.16 
C 331.742048 189.16 332.428866 188.875511 332.935188 188.369188 
C 333.441511 187.862866 333.726 187.176048 333.726 186.46 
C 333.726 185.743952 333.441511 185.057134 332.935188 184.550812 
C 332.428866 184.044489 331.742048 183.76 331.026 183.76 
C 330.309952 183.76 329.623134 184.044489 329.116812 184.550812 
C 328.610489 185.057134 328.326 185.743952 328.326 186.46 
C 328.326 187.176048 328.610489 187.862866 329.116812 188.369188 
C 329.623134 188.875511 330.309952 189.16 331.026 189.16 
z
" clip-path="url(#pf9bc0ca63c)" style="fill: #ffffff; stroke: #000000; stroke-width: 1.35; stroke-linejoin: miter"/>
   </g>
   <g id="patch_11">
    <path d="M 265.926 231.76 
C 266.642048 231.76 267.328866 231.475511 267.835188 230.969188 
C 268.341511 230.462866 268.626 229.776048 268.626 229.06 
C 268.626 228.343952 268.341511 227.657134 267.835188 227.150812 
C 267.328866 226.644489 266.642048 226.36 265.926 226.36 
C 265.209952 226.36 264.523134 226.644489 264.016812 227.150812 
C 263.510489 227.657134 263.226 228.343952 263.226 229.06 
C 263.226 229.776048 263.510489 230.462866 264.016812 230.969188 
C 264.523134 231.475511 265.209952 231.76 265.926 231.76 
z
" clip-path="url(#pf9bc0ca63c)" style="stroke: #000000; stroke-width: 1.35; stroke-linejoin: miter"/>
   </g>
   <g id="patch_12">
    <path d="M 307.266 231.76 
C 307.982048 231.76 308.668866 231.475511 309.175188 230.969188 
C 309.681511 230.462866 309.966 229.776048 309.966 229.06 
C 309.966 228.343952 309.681511 227.657134 309.175188 227.150812 
C 308.668866 226.644489 307.982048 226.36 307.266 226.36 
C 306.549952 226.36 305.863134 226.644489 305.356812 227.150812 
C 304.850489 227.657134 304.566 228.343952 304.566 229.06 
C 304.566 229.776048 304.850489 230.462866 305.356812 230.969188 
C 305.863134 231.475511 306.549952 231.76 307.266 231.76 
z
" clip-path="url(#pf9bc0ca63c)" style="stroke: #000000; stroke-width: 1.35; stroke-linejoin: miter"/>
   </g>
  </g>
 </g>
 <defs>
  <clipPath id="pf9bc0ca63c">
   <rect x="0" y="0" width="438.174" height="302.14"/>
  </clipPath>
 </defs>
</svg>
