<?xml version="1.0" encoding="utf-8" standalone="no"?>
<!DOCTYPE svg PUBLIC "-//W3C//DTD SVG 1.1//EN"
  "http://www.w3.org/Graphics/SVG/1.1/DTD/svg11.dtd">
<svg xmlns:xlink="http://www.w3.org/1999/xlink" width="379.614pt" height="209.26pt" viewBox="0 0 379.614 209.26" xmlns="http://www.w3.org/2000/svg" version="1.1">
 <metadata>
  <rdf:RDF xmlns:dc="http://purl.org/dc/elements/1.1/" xmlns:cc="http://creativecommons.org/ns#" xmlns:rdf="http://www.w3.org/1999/02/22-rdf-syntax-ns#">
   <cc:Work>
    <dc:type rdf:resource="http://purl.org/dc/dcmitype/StillImage"/>
    <dc:date>2026-03-25T10:05:25.706244</dc:date>
    <dc:format>image/svg+xml</dc:format>
    <dc:creator>
     <cc:Agent>
      <dc:title>Matplotlib v3.10.8, https://matplotlib.org/</dc:title>
     </cc:Agent>
    </dc:creator>
   </cc:Work>
  </rdf:RDF>
 </metadata>
 <defs>
  <style type="text/css">*{stroke-linejoin: round; stroke-linecap: butt}</style>
 </defs>
 <g id="figure_1">
  <g id="patch_1">
   <path d="M 0 209.26 
L 379.614 209.26 
L 379.614 0 
L 0 0 
z
" style="fill: #ffffff"/>
  </g>
  <g id="axes_1">
   <g id="line2d_1">
    <path d="M 133.902 179.38 
L 133.902 125.38 
L 133.902 71.38 
" clip-path="url(#pd6fbba07e4)" style="fill: none; stroke: #000000; stroke-width: 1.35; stroke-linecap: round"/>
   </g>
   <g id="line2d_2">
    <path d="M 133.902 71.38 
L 191.502 71.38 
L 249.102 71.38 
" clip-path="url(#pd6fbba07e4)" style="fill: none; stroke: #000000; stroke-width: 1.35; stroke-linecap: round"/>
   </g>
   <g id="line2d_3">
    <path d="M 249.102 71.38 
L 249.102 125.38 
L 249.102 179.38 
" clip-path="url(#pd6fbba07e4)" style="fill: none; stroke: #000000; stroke-width: 1.35; stroke-linecap: round"/>
   </g>
   <g id="line2d_4">
    <path d="M 249.102 179.38 
L 191.502 179.38 
L 133.902 179.38 
" clip-path="url(#pd6fbba07e4)" style="fill: none; stroke: #000000; stroke-width: 1.35; stroke-linecap: round"/>
   </g>
   <g id="line2d_5">
    <path d="M 72.702 107.38 
L 103.302 107.38 
L 133.902 107.38 
" clip-path="url(#pd6fbba07e4)" style="fill: none; stroke: #000000; stroke-width: 1.35; stroke-linecap: round"/>
   </g>
   <g id="line2d_6">
    <path d="M 110.502 107.38 
L 116.622 107.38 
L 113.742 107.38 
" clip-path="url(#pd6fbba07e4)" style="fill: none; stroke: #000000; stroke-width: 1.35; stroke-linecap: round"/>
   </g>
   <g id="patch_2">
    <path d="M 113.742 104.68 
L 122.742 107.38 
L 113.742 110.08 
z
" clip-path="url(#pd6fbba07e4)"/>
   </g>
   <g id="line2d_7">
    <path d="M 72.702 143.38 
L 103.302 143.38 
L 133.902 143.38 
" clip-path="url(#pd6fbba07e4)" style="fill: none; stroke: #000000; stroke-width: 1.35; stroke-linecap: round"/>
   </g>
   <g id="line2d_8">
    <path d="M 110.502 143.38 
L 116.622 143.38 
L 113.742 143.38 
" clip-path="url(#pd6fbba07e4)" style="fill: none; stroke: #000000; stroke-width: 1.35; stroke-linecap: round"/>
   </g>
   <g id="patch_3">
    <path d="M 113.742 140.68 
L 122.742 143.38 
L 113.742 146.08 
z
" clip-path="url(#pd6fbba07e4)"/>
   </g>
   <g id="line2d_9">
    <path d="M 249.102 125.38 
L 281.502 125.38 
L 313.902 125.38 
" clip-path="url(#pd6fbba07e4)" style="fill: none; stroke: #000000; stroke-width: 1.35; stroke-linecap: round"/>
   </g>
   <g id="line2d_10">
    <path d="M 294.102 125.38 
L 300.222 125.38 
L 297.342 125.38 
" clip-path="url(#pd6fbba07e4)" style="fill: none; stroke: #000000; stroke-width: 1.35; stroke-linecap: round"/>
   </g>
   <g id="patch_4">
    <path d="M 297.342 122.68 
L 306.342 125.38 
L 297.342 128.08 
z
" clip-path="url(#pd6fbba07e4)"/>
   </g>
   <g id="text_1">
    <!-- BJT Common-Collector -->
    <g transform="translate(120.580125 132.29125) scale(0.12 -0.12)">
     <defs>
      <path id="DejaVuSans-42" d="M 1259 2228 
L 1259 519 
L 2272 519 
Q 2781 519 3026 730 
Q 3272 941 3272 1375 
Q 3272 1813 3026 2020 
Q 2781 2228 2272 2228 
L 1259 2228 
z
M 1259 4147 
L 1259 2741 
L 2194 2741 
Q 2656 2741 2882 2914 
Q 3109 3088 3109 3444 
Q 3109 3797 2882 3972 
Q 2656 4147 2194 4147 
L 1259 4147 
z
M 628 4666 
L 2241 4666 
Q 2963 4666 3353 4366 
Q 3744 4066 3744 3513 
Q 3744 3084 3544 2831 
Q 3344 2578 2956 2516 
Q 3422 2416 3680 2098 
Q 3938 1781 3938 1306 
Q 3938 681 3513 340 
Q 3088 0 2303 0 
L 628 0 
L 628 4666 
z
" transform="scale(0.015625)"/>
      <path id="DejaVuSans-4a" d="M 628 4666 
L 1259 4666 
L 1259 325 
Q 1259 -519 939 -900 
Q 619 -1281 -91 -1281 
L -331 -1281 
L -331 -750 
L -134 -750 
Q 284 -750 456 -515 
Q 628 -281 628 325 
L 628 4666 
z
" transform="scale(0.015625)"/>
      <path id="DejaVuSans-54" d="M -19 4666 
L 3928 4666 
L 3928 4134 
L 2272 4134 
L 2272 0 
L 1638 0 
L 1638 4134 
L -19 4134 
L -19 4666 
z
" transform="scale(0.015625)"/>
      <path id="DejaVuSans-20" transform="scale(0.015625)"/>
      <path id="DejaVuSans-43" d="M 4122 4306 
L 4122 3641 
Q 3803 3938 3442 4084 
Q 3081 4231 2675 4231 
Q 1875 4231 1450 3742 
Q 1025 3253 1025 2328 
Q 1025 1406 1450 917 
Q 1875 428 2675 428 
Q 3081 428 3442 575 
Q 3803 722 4122 1019 
L 4122 359 
Q 3791 134 3420 21 
Q 3050 -91 2638 -91 
Q 1578 -91 968 557 
Q 359 1206 359 2328 
Q 359 3453 968 4101 
Q 1578 4750 2638 4750 
Q 3056 4750 3426 4639 
Q 3797 4528 4122 4306 
z
" transform="scale(0.015625)"/>
      <path id="DejaVuSans-6f" d="M 1959 3097 
Q 1497 3097 1228 2736 
Q 959 2375 959 1747 
Q 959 1119 1226 758 
Q 1494 397 1959 397 
Q 2419 397 2687 759 
Q 2956 1122 2956 1747 
Q 2956 2369 2687 2733 
Q 2419 3097 1959 3097 
z
M 1959 3584 
Q 2709 3584 3137 3096 
Q 3566 2609 3566 1747 
Q 3566 888 3137 398 
Q 2709 -91 1959 -91 
Q 1206 -91 779 398 
Q 353 888 353 1747 
Q 353 2609 779 3096 
Q 1206 3584 1959 3584 
z
" transform="scale(0.015625)"/>
      <path id="DejaVuSans-6d" d="M 3328 2828 
Q 3544 3216 3844 3400 
Q 4144 3584 4550 3584 
Q 5097 3584 5394 3201 
Q 5691 2819 5691 2113 
L 5691 0 
L 5113 0 
L 5113 2094 
Q 5113 2597 4934 2840 
Q 4756 3084 4391 3084 
Q 3944 3084 3684 2787 
Q 3425 2491 3425 1978 
L 3425 0 
L 2847 0 
L 2847 2094 
Q 2847 2600 2669 2842 
Q 2491 3084 2119 3084 
Q 1678 3084 1418 2786 
Q 1159 2488 1159 1978 
L 1159 0 
L 581 0 
L 581 3500 
L 1159 3500 
L 1159 2956 
Q 1356 3278 1631 3431 
Q 1906 3584 2284 3584 
Q 2666 3584 2933 3390 
Q 3200 3197 3328 2828 
z
" transform="scale(0.015625)"/>
      <path id="DejaVuSans-6e" d="M 3513 2113 
L 3513 0 
L 2938 0 
L 2938 2094 
Q 2938 2591 2744 2837 
Q 2550 3084 2163 3084 
Q 1697 3084 1428 2787 
Q 1159 2491 1159 1978 
L 1159 0 
L 581 0 
L 581 3500 
L 1159 3500 
L 1159 2956 
Q 1366 3272 1645 3428 
Q 1925 3584 2291 3584 
Q 2894 3584 3203 3211 
Q 3513 2838 3513 2113 
z
" transform="scale(0.015625)"/>
      <path id="DejaVuSans-2d" d="M 313 2009 
L 1997 2009 
L 1997 1497 
L 313 1497 
L 313 2009 
z
" transform="scale(0.015625)"/>
      <path id="DejaVuSans-6c" d="M 603 4863 
L 1178 4863 
L 1178 0 
L 603 0 
L 603 4863 
z
" transform="scale(0.015625)"/>
      <path id="DejaVuSans-65" d="M 3597 1894 
L 3597 1613 
L 953 1613 
Q 991 1019 1311 708 
Q 1631 397 2203 397 
Q 2534 397 2845 478 
Q 3156 559 3463 722 
L 3463 178 
Q 3153 47 2828 -22 
Q 2503 -91 2169 -91 
Q 1331 -91 842 396 
Q 353 884 353 1716 
Q 353 2575 817 3079 
Q 1281 3584 2069 3584 
Q 2775 3584 3186 3129 
Q 3597 2675 3597 1894 
z
M 3022 2063 
Q 3016 2534 2758 2815 
Q 2500 3097 2075 3097 
Q 1594 3097 1305 2825 
Q 1016 2553 972 2059 
L 3022 2063 
z
" transform="scale(0.015625)"/>
      <path id="DejaVuSans-63" d="M 3122 3366 
L 3122 2828 
Q 2878 2963 2633 3030 
Q 2388 3097 2138 3097 
Q 1578 3097 1268 2742 
Q 959 2388 959 1747 
Q 959 1106 1268 751 
Q 1578 397 2138 397 
Q 2388 397 2633 464 
Q 2878 531 3122 666 
L 3122 134 
Q 2881 22 2623 -34 
Q 2366 -91 2075 -91 
Q 1284 -91 818 406 
Q 353 903 353 1747 
Q 353 2603 823 3093 
Q 1294 3584 2113 3584 
Q 2378 3584 2631 3529 
Q 2884 3475 3122 3366 
z
" transform="scale(0.015625)"/>
      <path id="DejaVuSans-74" d="M 1172 4494 
L 1172 3500 
L 2356 3500 
L 2356 3053 
L 1172 3053 
L 1172 1153 
Q 1172 725 1289 603 
Q 1406 481 1766 481 
L 2356 481 
L 2356 0 
L 1766 0 
Q 1100 0 847 248 
Q 594 497 594 1153 
L 594 3053 
L 172 3053 
L 172 3500 
L 594 3500 
L 594 4494 
L 1172 4494 
z
" transform="scale(0.015625)"/>
      <path id="DejaVuSans-72" d="M 2631 2963 
Q 2534 3019 2420 3045 
Q 2306 3072 2169 3072 
Q 1681 3072 1420 2755 
Q 1159 2438 1159 1844 
L 1159 0 
L 581 0 
L 581 3500 
L 1159 3500 
L 1159 2956 
Q 1341 3275 1631 3429 
Q 1922 3584 2338 3584 
Q 2397 3584 2469 3576 
Q 2541 3569 2628 3553 
L 2631 2963 
z
" transform="scale(0.015625)"/>
     </defs>
     <use xlink:href="#DejaVuSans-42"/>
     <use xlink:href="#DejaVuSans-4a" transform="translate(68.603516 0)"/>
     <use xlink:href="#DejaVuSans-54" transform="translate(98.095703 0)"/>
     <use xlink:href="#DejaVuSans-20" transform="translate(159.179688 0)"/>
     <use xlink:href="#DejaVuSans-43" transform="translate(190.966797 0)"/>
     <use xlink:href="#DejaVuSans-6f" transform="translate(260.791016 0)"/>
     <use xlink:href="#DejaVuSans-6d" transform="translate(321.972656 0)"/>
     <use xlink:href="#DejaVuSans-6d" transform="translate(419.384766 0)"/>
     <use xlink:href="#DejaVuSans-6f" transform="translate(516.796875 0)"/>
     <use xlink:href="#DejaVuSans-6e" transform="translate(577.978516 0)"/>
     <use xlink:href="#DejaVuSans-2d" transform="translate(641.357422 0)"/>
     <use xlink:href="#DejaVuSans-43" transform="translate(677.441406 0)"/>
     <use xlink:href="#DejaVuSans-6f" transform="translate(747.265625 0)"/>
     <use xlink:href="#DejaVuSans-6c" transform="translate(808.447266 0)"/>
     <use xlink:href="#DejaVuSans-6c" transform="translate(836.230469 0)"/>
     <use xlink:href="#DejaVuSans-65" transform="translate(864.013672 0)"/>
     <use xlink:href="#DejaVuSans-63" transform="translate(925.537109 0)"/>
     <use xlink:href="#DejaVuSans-74" transform="translate(980.517578 0)"/>
     <use xlink:href="#DejaVuSans-6f" transform="translate(1019.726562 0)"/>
     <use xlink:href="#DejaVuSans-72" transform="translate(1080.908203 0)"/>
    </g>
   </g>
   <g id="text_2">
    <!-- Vin -->
    <g transform="translate(49.997625 106.815312) scale(0.11 -0.11)">
     <defs>
      <path id="DejaVuSans-56" d="M 1831 0 
L 50 4666 
L 709 4666 
L 2188 738 
L 3669 4666 
L 4325 4666 
L 2547 0 
L 1831 0 
z
" transform="scale(0.015625)"/>
      <path id="DejaVuSans-69" d="M 603 3500 
L 1178 3500 
L 1178 0 
L 603 0 
L 603 3500 
z
M 603 4863 
L 1178 4863 
L 1178 4134 
L 603 4134 
L 603 4863 
z
" transform="scale(0.015625)"/>
     </defs>
     <use xlink:href="#DejaVuSans-56"/>
     <use xlink:href="#DejaVuSans-69" transform="translate(66.158203 0)"/>
     <use xlink:href="#DejaVuSans-6e" transform="translate(93.941406 0)"/>
    </g>
   </g>
   <g id="text_3">
    <!-- Vcc=15 -->
    <g transform="translate(24.465594 142.815312) scale(0.11 -0.11)">
     <defs>
      <path id="DejaVuSans-3d" d="M 678 2906 
L 4684 2906 
L 4684 2381 
L 678 2381 
L 678 2906 
z
M 678 1631 
L 4684 1631 
L 4684 1100 
L 678 1100 
L 678 1631 
z
" transform="scale(0.015625)"/>
      <path id="DejaVuSans-31" d="M 794 531 
L 1825 531 
L 1825 4091 
L 703 3866 
L 703 4441 
L 1819 4666 
L 2450 4666 
L 2450 531 
L 3481 531 
L 3481 0 
L 794 0 
L 794 531 
z
" transform="scale(0.015625)"/>
      <path id="DejaVuSans-35" d="M 691 4666 
L 3169 4666 
L 3169 4134 
L 1269 4134 
L 1269 2991 
Q 1406 3038 1543 3061 
Q 1681 3084 1819 3084 
Q 2600 3084 3056 2656 
Q 3513 2228 3513 1497 
Q 3513 744 3044 326 
Q 2575 -91 1722 -91 
Q 1428 -91 1123 -41 
Q 819 9 494 109 
L 494 744 
Q 775 591 1075 516 
Q 1375 441 1709 441 
Q 2250 441 2565 725 
Q 2881 1009 2881 1497 
Q 2881 1984 2565 2268 
Q 2250 2553 1709 2553 
Q 1456 2553 1204 2497 
Q 953 2441 691 2322 
L 691 4666 
z
" transform="scale(0.015625)"/>
     </defs>
     <use xlink:href="#DejaVuSans-56"/>
     <use xlink:href="#DejaVuSans-63" transform="translate(68.408203 0)"/>
     <use xlink:href="#DejaVuSans-63" transform="translate(123.388672 0)"/>
     <use xlink:href="#DejaVuSans-3d" transform="translate(178.369141 0)"/>
     <use xlink:href="#DejaVuSans-31" transform="translate(262.158203 0)"/>
     <use xlink:href="#DejaVuSans-35" transform="translate(325.78125 0)"/>
    </g>
   </g>
   <g id="text_4">
    <!-- Vout -->
    <g transform="translate(326.502 124.815312) scale(0.11 -0.11)">
     <defs>
      <path id="DejaVuSans-75" d="M 544 1381 
L 544 3500 
L 1119 3500 
L 1119 1403 
Q 1119 906 1312 657 
Q 1506 409 1894 409 
Q 2359 409 2629 706 
Q 2900 1003 2900 1516 
L 2900 3500 
L 3475 3500 
L 3475 0 
L 2900 0 
L 2900 538 
Q 2691 219 2414 64 
Q 2138 -91 1772 -91 
Q 1169 -91 856 284 
Q 544 659 544 1381 
z
M 1991 3584 
L 1991 3584 
z
" transform="scale(0.015625)"/>
     </defs>
     <use xlink:href="#DejaVuSans-56"/>
     <use xlink:href="#DejaVuSans-6f" transform="translate(60.658203 0)"/>
     <use xlink:href="#DejaVuSans-75" transform="translate(121.839844 0)"/>
     <use xlink:href="#DejaVuSans-74" transform="translate(185.21875 0)"/>
    </g>
   </g>
   <g id="text_5">
    <!-- BJT Common-Collector -->
    <g transform="translate(133.390281 38.415312) scale(0.11 -0.11)">
     <use xlink:href="#DejaVuSans-42"/>
     <use xlink:href="#DejaVuSans-4a" transform="translate(68.603516 0)"/>
     <use xlink:href="#DejaVuSans-54" transform="translate(98.095703 0)"/>
     <use xlink:href="#DejaVuSans-20" transform="translate(159.179688 0)"/>
     <use xlink:href="#DejaVuSans-43" transform="translate(190.966797 0)"/>
     <use xlink:href="#DejaVuSans-6f" transform="translate(260.791016 0)"/>
     <use xlink:href="#DejaVuSans-6d" transform="translate(321.972656 0)"/>
     <use xlink:href="#DejaVuSans-6d" transform="translate(419.384766 0)"/>
     <use xlink:href="#DejaVuSans-6f" transform="translate(516.796875 0)"/>
     <use xlink:href="#DejaVuSans-6e" transform="translate(577.978516 0)"/>
     <use xlink:href="#DejaVuSans-2d" transform="translate(641.357422 0)"/>
     <use xlink:href="#DejaVuSans-43" transform="translate(677.441406 0)"/>
     <use xlink:href="#DejaVuSans-6f" transform="translate(747.265625 0)"/>
     <use xlink:href="#DejaVuSans-6c" transform="translate(808.447266 0)"/>
     <use xlink:href="#DejaVuSans-6c" transform="translate(836.230469 0)"/>
     <use xlink:href="#DejaVuSans-65" transform="translate(864.013672 0)"/>
     <use xlink:href="#DejaVuSans-63" transform="translate(925.537109 0)"/>
     <use xlink:href="#DejaVuSans-74" transform="translate(980.517578 0)"/>
     <use xlink:href="#DejaVuSans-6f" transform="translate(1019.726562 0)"/>
     <use xlink:href="#DejaVuSans-72" transform="translate(1080.908203 0)"/>
    </g>
   </g>
  </g>
 </g>
 <defs>
  <clipPath id="pd6fbba07e4">
   <rect x="0" y="-0" width="379.614" height="209.26"/>
  </clipPath>
 </defs>
</svg>
