<?xml version="1.0" encoding="utf-8" standalone="no"?>
<!DOCTYPE svg PUBLIC "-//W3C//DTD SVG 1.1//EN"
  "http://www.w3.org/Graphics/SVG/1.1/DTD/svg11.dtd">
<svg xmlns:xlink="http://www.w3.org/1999/xlink" width="490.058286pt" height="281.8pt" viewBox="0 0 490.058286 281.8" xmlns="http://www.w3.org/2000/svg" version="1.1">
 <metadata>
  <rdf:RDF xmlns:dc="http://purl.org/dc/elements/1.1/" xmlns:cc="http://creativecommons.org/ns#" xmlns:rdf="http://www.w3.org/1999/02/22-rdf-syntax-ns#">
   <cc:Work>
    <dc:type rdf:resource="http://purl.org/dc/dcmitype/StillImage"/>
    <dc:date>2026-03-25T15:10:10.448422</dc:date>
    <dc:format>image/svg+xml</dc:format>
    <dc:creator>
     <cc:Agent>
      <dc:title>Matplotlib v3.10.8, https://matplotlib.org/</dc:title>
     </cc:Agent>
    </dc:creator>
   </cc:Work>
  </rdf:RDF>
 </metadata>
 <defs>
  <style type="text/css">*{stroke-linejoin: round; stroke-linecap: butt}</style>
 </defs>
 <g id="figure_1">
  <g id="patch_1">
   <path d="M 0 281.8 
L 490.058286 281.8 
L 490.058286 0 
L 0 0 
z
" style="fill: #ffffff"/>
  </g>
  <g id="axes_1">
   <g id="line2d_1">
    <path d="M 274.482 157.78 
L 274.482 112.78 
L 352.424286 157.78 
L 274.482 202.78 
L 274.482 157.78 
M 352.424286 157.78 
" clip-path="url(#p8d73e40b86)" style="fill: none; stroke: #000000; stroke-width: 1.35; stroke-linecap: round"/>
   </g>
   <g id="line2d_2">
    <path d="M 280.624786 135.28 
L 287.824786 135.28 
" clip-path="url(#p8d73e40b86)" style="fill: none; stroke: #000000; stroke-width: 1.35; stroke-linecap: round"/>
   </g>
   <g id="line2d_3">
    <path d="M 280.624786 180.28 
L 287.824786 180.28 
" clip-path="url(#p8d73e40b86)" style="fill: none; stroke: #000000; stroke-width: 1.35; stroke-linecap: round"/>
   </g>
   <g id="line2d_4">
    <path d="M 284.224786 183.88 
L 284.224786 176.68 
" clip-path="url(#p8d73e40b86)" style="fill: none; stroke: #000000; stroke-width: 1.35; stroke-linecap: round"/>
   </g>
   <g id="line2d_5">
    <path d="M 98.082 135.28 
L 115.182 135.28 
L 132.282 135.28 
" clip-path="url(#p8d73e40b86)" style="fill: none; stroke: #000000; stroke-width: 1.35; stroke-linecap: round"/>
   </g>
   <g id="line2d_6">
    <path d="M 132.282 135.28 
L 177.102 135.28 
L 180.102 126.28 
L 186.102 144.28 
L 192.102 126.28 
L 198.102 144.28 
L 204.102 126.28 
L 210.102 144.28 
L 213.102 135.28 
L 257.922 135.28 
" clip-path="url(#p8d73e40b86)" style="fill: none; stroke: #000000; stroke-width: 1.35; stroke-linecap: round"/>
   </g>
   <g id="line2d_7">
    <path d="M 159.102 163.36 
L 169.182 163.36 
L 170.262 163.36 
" clip-path="url(#p8d73e40b86)" style="fill: none; stroke: #000000; stroke-width: 1.35; stroke-linecap: round"/>
   </g>
   <g id="patch_2">
    <path d="M 170.262 160.66 
L 179.262 163.36 
L 170.262 166.06 
z
" clip-path="url(#p8d73e40b86)"/>
   </g>
   <g id="line2d_8">
    <path d="M 257.922 135.28 
L 266.202 135.28 
L 274.482 135.28 
" clip-path="url(#p8d73e40b86)" style="fill: none; stroke: #000000; stroke-width: 1.35; stroke-linecap: round"/>
   </g>
   <g id="line2d_9">
    <path d="M 257.922 135.28 
L 257.922 119.89 
L 257.922 104.5 
" clip-path="url(#p8d73e40b86)" style="fill: none; stroke: #000000; stroke-width: 1.35; stroke-linecap: round"/>
   </g>
   <g id="line2d_10">
    <path d="M 257.922 104.5 
L 287.173143 104.5 
L 290.173143 95.5 
L 296.173143 113.5 
L 302.173143 95.5 
L 308.173143 113.5 
L 314.173143 95.5 
L 320.173143 113.5 
L 323.173143 104.5 
L 352.424286 104.5 
" clip-path="url(#p8d73e40b86)" style="fill: none; stroke: #000000; stroke-width: 1.35; stroke-linecap: round"/>
   </g>
   <g id="line2d_11">
    <path d="M 352.424286 104.5 
L 352.424286 131.14 
L 352.424286 157.78 
" clip-path="url(#p8d73e40b86)" style="fill: none; stroke: #000000; stroke-width: 1.35; stroke-linecap: round"/>
   </g>
   <g id="line2d_12">
    <path d="M 274.482 180.28 
L 274.482 204.58 
L 274.482 228.88 
" clip-path="url(#p8d73e40b86)" style="fill: none; stroke: #000000; stroke-width: 1.35; stroke-linecap: round"/>
   </g>
   <g id="line2d_13">
    <path d="M 274.482 228.88 
L 274.482 243.28 
L 265.482 243.28 
L 283.482 243.28 
M 268.182 247.6 
L 280.782 247.6 
M 272.682 251.92 
L 276.282 251.92 
" clip-path="url(#p8d73e40b86)" style="fill: none; stroke: #000000; stroke-width: 1.35; stroke-linecap: round"/>
   </g>
   <g id="line2d_14">
    <path d="M 352.424286 157.78 
L 386.624286 157.78 
L 420.824286 157.78 
" clip-path="url(#p8d73e40b86)" style="fill: none; stroke: #000000; stroke-width: 1.35; stroke-linecap: round"/>
   </g>
   <g id="text_1">
    <!-- Inverting Amplifier Circuit -->
    <g transform="translate(171.439656 38.415312) scale(0.11 -0.11)">
     <defs>
      <path id="DejaVuSans-49" d="M 628 4666 
L 1259 4666 
L 1259 0 
L 628 0 
L 628 4666 
z
" transform="scale(0.015625)"/>
      <path id="DejaVuSans-6e" d="M 3513 2113 
L 3513 0 
L 2938 0 
L 2938 2094 
Q 2938 2591 2744 2837 
Q 2550 3084 2163 3084 
Q 1697 3084 1428 2787 
Q 1159 2491 1159 1978 
L 1159 0 
L 581 0 
L 581 3500 
L 1159 3500 
L 1159 2956 
Q 1366 3272 1645 3428 
Q 1925 3584 2291 3584 
Q 2894 3584 3203 3211 
Q 3513 2838 3513 2113 
z
" transform="scale(0.015625)"/>
      <path id="DejaVuSans-76" d="M 191 3500 
L 800 3500 
L 1894 563 
L 2988 3500 
L 3597 3500 
L 2284 0 
L 1503 0 
L 191 3500 
z
" transform="scale(0.015625)"/>
      <path id="DejaVuSans-65" d="M 3597 1894 
L 3597 1613 
L 953 1613 
Q 991 1019 1311 708 
Q 1631 397 2203 397 
Q 2534 397 2845 478 
Q 3156 559 3463 722 
L 3463 178 
Q 3153 47 2828 -22 
Q 2503 -91 2169 -91 
Q 1331 -91 842 396 
Q 353 884 353 1716 
Q 353 2575 817 3079 
Q 1281 3584 2069 3584 
Q 2775 3584 3186 3129 
Q 3597 2675 3597 1894 
z
M 3022 2063 
Q 3016 2534 2758 2815 
Q 2500 3097 2075 3097 
Q 1594 3097 1305 2825 
Q 1016 2553 972 2059 
L 3022 2063 
z
" transform="scale(0.015625)"/>
      <path id="DejaVuSans-72" d="M 2631 2963 
Q 2534 3019 2420 3045 
Q 2306 3072 2169 3072 
Q 1681 3072 1420 2755 
Q 1159 2438 1159 1844 
L 1159 0 
L 581 0 
L 581 3500 
L 1159 3500 
L 1159 2956 
Q 1341 3275 1631 3429 
Q 1922 3584 2338 3584 
Q 2397 3584 2469 3576 
Q 2541 3569 2628 3553 
L 2631 2963 
z
" transform="scale(0.015625)"/>
      <path id="DejaVuSans-74" d="M 1172 4494 
L 1172 3500 
L 2356 3500 
L 2356 3053 
L 1172 3053 
L 1172 1153 
Q 1172 725 1289 603 
Q 1406 481 1766 481 
L 2356 481 
L 2356 0 
L 1766 0 
Q 1100 0 847 248 
Q 594 497 594 1153 
L 594 3053 
L 172 3053 
L 172 3500 
L 594 3500 
L 594 4494 
L 1172 4494 
z
" transform="scale(0.015625)"/>
      <path id="DejaVuSans-69" d="M 603 3500 
L 1178 3500 
L 1178 0 
L 603 0 
L 603 3500 
z
M 603 4863 
L 1178 4863 
L 1178 4134 
L 603 4134 
L 603 4863 
z
" transform="scale(0.015625)"/>
      <path id="DejaVuSans-67" d="M 2906 1791 
Q 2906 2416 2648 2759 
Q 2391 3103 1925 3103 
Q 1463 3103 1205 2759 
Q 947 2416 947 1791 
Q 947 1169 1205 825 
Q 1463 481 1925 481 
Q 2391 481 2648 825 
Q 2906 1169 2906 1791 
z
M 3481 434 
Q 3481 -459 3084 -895 
Q 2688 -1331 1869 -1331 
Q 1566 -1331 1297 -1286 
Q 1028 -1241 775 -1147 
L 775 -588 
Q 1028 -725 1275 -790 
Q 1522 -856 1778 -856 
Q 2344 -856 2625 -561 
Q 2906 -266 2906 331 
L 2906 616 
Q 2728 306 2450 153 
Q 2172 0 1784 0 
Q 1141 0 747 490 
Q 353 981 353 1791 
Q 353 2603 747 3093 
Q 1141 3584 1784 3584 
Q 2172 3584 2450 3431 
Q 2728 3278 2906 2969 
L 2906 3500 
L 3481 3500 
L 3481 434 
z
" transform="scale(0.015625)"/>
      <path id="DejaVuSans-20" transform="scale(0.015625)"/>
      <path id="DejaVuSans-41" d="M 2188 4044 
L 1331 1722 
L 3047 1722 
L 2188 4044 
z
M 1831 4666 
L 2547 4666 
L 4325 0 
L 3669 0 
L 3244 1197 
L 1141 1197 
L 716 0 
L 50 0 
L 1831 4666 
z
" transform="scale(0.015625)"/>
      <path id="DejaVuSans-6d" d="M 3328 2828 
Q 3544 3216 3844 3400 
Q 4144 3584 4550 3584 
Q 5097 3584 5394 3201 
Q 5691 2819 5691 2113 
L 5691 0 
L 5113 0 
L 5113 2094 
Q 5113 2597 4934 2840 
Q 4756 3084 4391 3084 
Q 3944 3084 3684 2787 
Q 3425 2491 3425 1978 
L 3425 0 
L 2847 0 
L 2847 2094 
Q 2847 2600 2669 2842 
Q 2491 3084 2119 3084 
Q 1678 3084 1418 2786 
Q 1159 2488 1159 1978 
L 1159 0 
L 581 0 
L 581 3500 
L 1159 3500 
L 1159 2956 
Q 1356 3278 1631 3431 
Q 1906 3584 2284 3584 
Q 2666 3584 2933 3390 
Q 3200 3197 3328 2828 
z
" transform="scale(0.015625)"/>
      <path id="DejaVuSans-70" d="M 1159 525 
L 1159 -1331 
L 581 -1331 
L 581 3500 
L 1159 3500 
L 1159 2969 
Q 1341 3281 1617 3432 
Q 1894 3584 2278 3584 
Q 2916 3584 3314 3078 
Q 3713 2572 3713 1747 
Q 3713 922 3314 415 
Q 2916 -91 2278 -91 
Q 1894 -91 1617 61 
Q 1341 213 1159 525 
z
M 3116 1747 
Q 3116 2381 2855 2742 
Q 2594 3103 2138 3103 
Q 1681 3103 1420 2742 
Q 1159 2381 1159 1747 
Q 1159 1113 1420 752 
Q 1681 391 2138 391 
Q 2594 391 2855 752 
Q 3116 1113 3116 1747 
z
" transform="scale(0.015625)"/>
      <path id="DejaVuSans-6c" d="M 603 4863 
L 1178 4863 
L 1178 0 
L 603 0 
L 603 4863 
z
" transform="scale(0.015625)"/>
      <path id="DejaVuSans-66" d="M 2375 4863 
L 2375 4384 
L 1825 4384 
Q 1516 4384 1395 4259 
Q 1275 4134 1275 3809 
L 1275 3500 
L 2222 3500 
L 2222 3053 
L 1275 3053 
L 1275 0 
L 697 0 
L 697 3053 
L 147 3053 
L 147 3500 
L 697 3500 
L 697 3744 
Q 697 4328 969 4595 
Q 1241 4863 1831 4863 
L 2375 4863 
z
" transform="scale(0.015625)"/>
      <path id="DejaVuSans-43" d="M 4122 4306 
L 4122 3641 
Q 3803 3938 3442 4084 
Q 3081 4231 2675 4231 
Q 1875 4231 1450 3742 
Q 1025 3253 1025 2328 
Q 1025 1406 1450 917 
Q 1875 428 2675 428 
Q 3081 428 3442 575 
Q 3803 722 4122 1019 
L 4122 359 
Q 3791 134 3420 21 
Q 3050 -91 2638 -91 
Q 1578 -91 968 557 
Q 359 1206 359 2328 
Q 359 3453 968 4101 
Q 1578 4750 2638 4750 
Q 3056 4750 3426 4639 
Q 3797 4528 4122 4306 
z
" transform="scale(0.015625)"/>
      <path id="DejaVuSans-63" d="M 3122 3366 
L 3122 2828 
Q 2878 2963 2633 3030 
Q 2388 3097 2138 3097 
Q 1578 3097 1268 2742 
Q 959 2388 959 1747 
Q 959 1106 1268 751 
Q 1578 397 2138 397 
Q 2388 397 2633 464 
Q 2878 531 3122 666 
L 3122 134 
Q 2881 22 2623 -34 
Q 2366 -91 2075 -91 
Q 1284 -91 818 406 
Q 353 903 353 1747 
Q 353 2603 823 3093 
Q 1294 3584 2113 3584 
Q 2378 3584 2631 3529 
Q 2884 3475 3122 3366 
z
" transform="scale(0.015625)"/>
      <path id="DejaVuSans-75" d="M 544 1381 
L 544 3500 
L 1119 3500 
L 1119 1403 
Q 1119 906 1312 657 
Q 1506 409 1894 409 
Q 2359 409 2629 706 
Q 2900 1003 2900 1516 
L 2900 3500 
L 3475 3500 
L 3475 0 
L 2900 0 
L 2900 538 
Q 2691 219 2414 64 
Q 2138 -91 1772 -91 
Q 1169 -91 856 284 
Q 544 659 544 1381 
z
M 1991 3584 
L 1991 3584 
z
" transform="scale(0.015625)"/>
     </defs>
     <use xlink:href="#DejaVuSans-49"/>
     <use xlink:href="#DejaVuSans-6e" transform="translate(29.492188 0)"/>
     <use xlink:href="#DejaVuSans-76" transform="translate(92.871094 0)"/>
     <use xlink:href="#DejaVuSans-65" transform="translate(152.050781 0)"/>
     <use xlink:href="#DejaVuSans-72" transform="translate(213.574219 0)"/>
     <use xlink:href="#DejaVuSans-74" transform="translate(254.6875 0)"/>
     <use xlink:href="#DejaVuSans-69" transform="translate(293.896484 0)"/>
     <use xlink:href="#DejaVuSans-6e" transform="translate(321.679688 0)"/>
     <use xlink:href="#DejaVuSans-67" transform="translate(385.058594 0)"/>
     <use xlink:href="#DejaVuSans-20" transform="translate(448.535156 0)"/>
     <use xlink:href="#DejaVuSans-41" transform="translate(480.322266 0)"/>
     <use xlink:href="#DejaVuSans-6d" transform="translate(548.730469 0)"/>
     <use xlink:href="#DejaVuSans-70" transform="translate(646.142578 0)"/>
     <use xlink:href="#DejaVuSans-6c" transform="translate(709.619141 0)"/>
     <use xlink:href="#DejaVuSans-69" transform="translate(737.402344 0)"/>
     <use xlink:href="#DejaVuSans-66" transform="translate(765.185547 0)"/>
     <use xlink:href="#DejaVuSans-69" transform="translate(800.390625 0)"/>
     <use xlink:href="#DejaVuSans-65" transform="translate(828.173828 0)"/>
     <use xlink:href="#DejaVuSans-72" transform="translate(889.697266 0)"/>
     <use xlink:href="#DejaVuSans-20" transform="translate(930.810547 0)"/>
     <use xlink:href="#DejaVuSans-43" transform="translate(962.597656 0)"/>
     <use xlink:href="#DejaVuSans-69" transform="translate(1032.421875 0)"/>
     <use xlink:href="#DejaVuSans-72" transform="translate(1060.205078 0)"/>
     <use xlink:href="#DejaVuSans-63" transform="translate(1099.068359 0)"/>
     <use xlink:href="#DejaVuSans-75" transform="translate(1154.048828 0)"/>
     <use xlink:href="#DejaVuSans-69" transform="translate(1217.427734 0)"/>
     <use xlink:href="#DejaVuSans-74" transform="translate(1245.210938 0)"/>
    </g>
   </g>
   <g id="text_2">
    <!-- Op-Amp Analog Configuration -->
    <g style="fill: #444444" transform="translate(167.453094 49.659375) scale(0.1 -0.1)">
     <defs>
      <path id="DejaVuSans-4f" d="M 2522 4238 
Q 1834 4238 1429 3725 
Q 1025 3213 1025 2328 
Q 1025 1447 1429 934 
Q 1834 422 2522 422 
Q 3209 422 3611 934 
Q 4013 1447 4013 2328 
Q 4013 3213 3611 3725 
Q 3209 4238 2522 4238 
z
M 2522 4750 
Q 3503 4750 4090 4092 
Q 4678 3434 4678 2328 
Q 4678 1225 4090 567 
Q 3503 -91 2522 -91 
Q 1538 -91 948 565 
Q 359 1222 359 2328 
Q 359 3434 948 4092 
Q 1538 4750 2522 4750 
z
" transform="scale(0.015625)"/>
      <path id="DejaVuSans-2d" d="M 313 2009 
L 1997 2009 
L 1997 1497 
L 313 1497 
L 313 2009 
z
" transform="scale(0.015625)"/>
      <path id="DejaVuSans-61" d="M 2194 1759 
Q 1497 1759 1228 1600 
Q 959 1441 959 1056 
Q 959 750 1161 570 
Q 1363 391 1709 391 
Q 2188 391 2477 730 
Q 2766 1069 2766 1631 
L 2766 1759 
L 2194 1759 
z
M 3341 1997 
L 3341 0 
L 2766 0 
L 2766 531 
Q 2569 213 2275 61 
Q 1981 -91 1556 -91 
Q 1019 -91 701 211 
Q 384 513 384 1019 
Q 384 1609 779 1909 
Q 1175 2209 1959 2209 
L 2766 2209 
L 2766 2266 
Q 2766 2663 2505 2880 
Q 2244 3097 1772 3097 
Q 1472 3097 1187 3025 
Q 903 2953 641 2809 
L 641 3341 
Q 956 3463 1253 3523 
Q 1550 3584 1831 3584 
Q 2591 3584 2966 3190 
Q 3341 2797 3341 1997 
z
" transform="scale(0.015625)"/>
      <path id="DejaVuSans-6f" d="M 1959 3097 
Q 1497 3097 1228 2736 
Q 959 2375 959 1747 
Q 959 1119 1226 758 
Q 1494 397 1959 397 
Q 2419 397 2687 759 
Q 2956 1122 2956 1747 
Q 2956 2369 2687 2733 
Q 2419 3097 1959 3097 
z
M 1959 3584 
Q 2709 3584 3137 3096 
Q 3566 2609 3566 1747 
Q 3566 888 3137 398 
Q 2709 -91 1959 -91 
Q 1206 -91 779 398 
Q 353 888 353 1747 
Q 353 2609 779 3096 
Q 1206 3584 1959 3584 
z
" transform="scale(0.015625)"/>
     </defs>
     <use xlink:href="#DejaVuSans-4f"/>
     <use xlink:href="#DejaVuSans-70" transform="translate(78.710938 0)"/>
     <use xlink:href="#DejaVuSans-2d" transform="translate(142.1875 0)"/>
     <use xlink:href="#DejaVuSans-41" transform="translate(176.021484 0)"/>
     <use xlink:href="#DejaVuSans-6d" transform="translate(244.429688 0)"/>
     <use xlink:href="#DejaVuSans-70" transform="translate(341.841797 0)"/>
     <use xlink:href="#DejaVuSans-20" transform="translate(405.318359 0)"/>
     <use xlink:href="#DejaVuSans-41" transform="translate(437.105469 0)"/>
     <use xlink:href="#DejaVuSans-6e" transform="translate(505.513672 0)"/>
     <use xlink:href="#DejaVuSans-61" transform="translate(568.892578 0)"/>
     <use xlink:href="#DejaVuSans-6c" transform="translate(630.171875 0)"/>
     <use xlink:href="#DejaVuSans-6f" transform="translate(657.955078 0)"/>
     <use xlink:href="#DejaVuSans-67" transform="translate(719.136719 0)"/>
     <use xlink:href="#DejaVuSans-20" transform="translate(782.613281 0)"/>
     <use xlink:href="#DejaVuSans-43" transform="translate(814.400391 0)"/>
     <use xlink:href="#DejaVuSans-6f" transform="translate(884.224609 0)"/>
     <use xlink:href="#DejaVuSans-6e" transform="translate(945.40625 0)"/>
     <use xlink:href="#DejaVuSans-66" transform="translate(1008.785156 0)"/>
     <use xlink:href="#DejaVuSans-69" transform="translate(1043.990234 0)"/>
     <use xlink:href="#DejaVuSans-67" transform="translate(1071.773438 0)"/>
     <use xlink:href="#DejaVuSans-75" transform="translate(1135.25 0)"/>
     <use xlink:href="#DejaVuSans-72" transform="translate(1198.628906 0)"/>
     <use xlink:href="#DejaVuSans-61" transform="translate(1239.742188 0)"/>
     <use xlink:href="#DejaVuSans-74" transform="translate(1301.021484 0)"/>
     <use xlink:href="#DejaVuSans-69" transform="translate(1340.230469 0)"/>
     <use xlink:href="#DejaVuSans-6f" transform="translate(1368.013672 0)"/>
     <use xlink:href="#DejaVuSans-6e" transform="translate(1429.195312 0)"/>
    </g>
   </g>
   <g id="text_3">
    <!-- A -->
    <g transform="translate(313.290799 157.215312) scale(0.11 -0.11)">
     <use xlink:href="#DejaVuSans-41"/>
    </g>
   </g>
   <g id="text_4">
    <!-- $V_{in}$=0.05 V -->
    <g transform="translate(29.462 134.715312) scale(0.11 -0.11)">
     <defs>
      <path id="DejaVuSans-Oblique-56" d="M 1319 0 
L 500 4666 
L 1119 4666 
L 1797 653 
L 4063 4666 
L 4750 4666 
L 2053 0 
L 1319 0 
z
" transform="scale(0.015625)"/>
      <path id="DejaVuSans-Oblique-69" d="M 1172 4863 
L 1747 4863 
L 1606 4134 
L 1031 4134 
L 1172 4863 
z
M 909 3500 
L 1484 3500 
L 800 0 
L 225 0 
L 909 3500 
z
" transform="scale(0.015625)"/>
      <path id="DejaVuSans-Oblique-6e" d="M 3566 2113 
L 3156 0 
L 2578 0 
L 2988 2091 
Q 3016 2238 3031 2350 
Q 3047 2463 3047 2528 
Q 3047 2791 2881 2937 
Q 2716 3084 2419 3084 
Q 1956 3084 1622 2776 
Q 1288 2469 1184 1941 
L 800 0 
L 225 0 
L 903 3500 
L 1478 3500 
L 1363 2950 
Q 1603 3253 1940 3418 
Q 2278 3584 2650 3584 
Q 3113 3584 3367 3334 
Q 3622 3084 3622 2631 
Q 3622 2519 3608 2391 
Q 3594 2263 3566 2113 
z
" transform="scale(0.015625)"/>
      <path id="DejaVuSans-3d" d="M 678 2906 
L 4684 2906 
L 4684 2381 
L 678 2381 
L 678 2906 
z
M 678 1631 
L 4684 1631 
L 4684 1100 
L 678 1100 
L 678 1631 
z
" transform="scale(0.015625)"/>
      <path id="DejaVuSans-30" d="M 2034 4250 
Q 1547 4250 1301 3770 
Q 1056 3291 1056 2328 
Q 1056 1369 1301 889 
Q 1547 409 2034 409 
Q 2525 409 2770 889 
Q 3016 1369 3016 2328 
Q 3016 3291 2770 3770 
Q 2525 4250 2034 4250 
z
M 2034 4750 
Q 2819 4750 3233 4129 
Q 3647 3509 3647 2328 
Q 3647 1150 3233 529 
Q 2819 -91 2034 -91 
Q 1250 -91 836 529 
Q 422 1150 422 2328 
Q 422 3509 836 4129 
Q 1250 4750 2034 4750 
z
" transform="scale(0.015625)"/>
      <path id="DejaVuSans-2e" d="M 684 794 
L 1344 794 
L 1344 0 
L 684 0 
L 684 794 
z
" transform="scale(0.015625)"/>
      <path id="DejaVuSans-35" d="M 691 4666 
L 3169 4666 
L 3169 4134 
L 1269 4134 
L 1269 2991 
Q 1406 3038 1543 3061 
Q 1681 3084 1819 3084 
Q 2600 3084 3056 2656 
Q 3513 2228 3513 1497 
Q 3513 744 3044 326 
Q 2575 -91 1722 -91 
Q 1428 -91 1123 -41 
Q 819 9 494 109 
L 494 744 
Q 775 591 1075 516 
Q 1375 441 1709 441 
Q 2250 441 2565 725 
Q 2881 1009 2881 1497 
Q 2881 1984 2565 2268 
Q 2250 2553 1709 2553 
Q 1456 2553 1204 2497 
Q 953 2441 691 2322 
L 691 4666 
z
" transform="scale(0.015625)"/>
      <path id="DejaVuSans-56" d="M 1831 0 
L 50 4666 
L 709 4666 
L 2188 738 
L 3669 4666 
L 4325 4666 
L 2547 0 
L 1831 0 
z
" transform="scale(0.015625)"/>
     </defs>
     <use xlink:href="#DejaVuSans-Oblique-56" transform="translate(0 0.78125)"/>
     <use xlink:href="#DejaVuSans-Oblique-69" transform="translate(68.408203 -15.625) scale(0.7)"/>
     <use xlink:href="#DejaVuSans-Oblique-6e" transform="translate(87.856445 -15.625) scale(0.7)"/>
     <use xlink:href="#DejaVuSans-3d" transform="translate(134.956055 0.78125)"/>
     <use xlink:href="#DejaVuSans-30" transform="translate(218.745117 0.78125)"/>
     <use xlink:href="#DejaVuSans-2e" transform="translate(282.368164 0.78125)"/>
     <use xlink:href="#DejaVuSans-30" transform="translate(314.155273 0.78125)"/>
     <use xlink:href="#DejaVuSans-35" transform="translate(377.77832 0.78125)"/>
     <use xlink:href="#DejaVuSans-20" transform="translate(441.401367 0.78125)"/>
     <use xlink:href="#DejaVuSans-56" transform="translate(473.188477 0.78125)"/>
    </g>
   </g>
   <g id="text_5">
    <!-- $R_{in}$=1 kohm -->
    <g transform="translate(165.922 111.675312) scale(0.11 -0.11)">
     <defs>
      <path id="DejaVuSans-Oblique-52" d="M 1613 4147 
L 1294 2491 
L 2106 2491 
Q 2584 2491 2879 2755 
Q 3175 3019 3175 3444 
Q 3175 3784 2976 3965 
Q 2778 4147 2406 4147 
L 1613 4147 
z
M 2772 2241 
Q 2972 2194 3105 2009 
Q 3238 1825 3413 1275 
L 3809 0 
L 3144 0 
L 2778 1197 
Q 2638 1659 2453 1815 
Q 2269 1972 1888 1972 
L 1191 1972 
L 806 0 
L 172 0 
L 1081 4666 
L 2503 4666 
Q 3150 4666 3495 4373 
Q 3841 4081 3841 3531 
Q 3841 3044 3547 2687 
Q 3253 2331 2772 2241 
z
" transform="scale(0.015625)"/>
      <path id="DejaVuSans-31" d="M 794 531 
L 1825 531 
L 1825 4091 
L 703 3866 
L 703 4441 
L 1819 4666 
L 2450 4666 
L 2450 531 
L 3481 531 
L 3481 0 
L 794 0 
L 794 531 
z
" transform="scale(0.015625)"/>
      <path id="DejaVuSans-6b" d="M 581 4863 
L 1159 4863 
L 1159 1991 
L 2875 3500 
L 3609 3500 
L 1753 1863 
L 3688 0 
L 2938 0 
L 1159 1709 
L 1159 0 
L 581 0 
L 581 4863 
z
" transform="scale(0.015625)"/>
      <path id="DejaVuSans-68" d="M 3513 2113 
L 3513 0 
L 2938 0 
L 2938 2094 
Q 2938 2591 2744 2837 
Q 2550 3084 2163 3084 
Q 1697 3084 1428 2787 
Q 1159 2491 1159 1978 
L 1159 0 
L 581 0 
L 581 4863 
L 1159 4863 
L 1159 2956 
Q 1366 3272 1645 3428 
Q 1925 3584 2291 3584 
Q 2894 3584 3203 3211 
Q 3513 2838 3513 2113 
z
" transform="scale(0.015625)"/>
     </defs>
     <use xlink:href="#DejaVuSans-Oblique-52" transform="translate(0 0.015625)"/>
     <use xlink:href="#DejaVuSans-Oblique-69" transform="translate(69.482422 -16.390625) scale(0.7)"/>
     <use xlink:href="#DejaVuSans-Oblique-6e" transform="translate(88.930664 -16.390625) scale(0.7)"/>
     <use xlink:href="#DejaVuSans-3d" transform="translate(136.030273 0.015625)"/>
     <use xlink:href="#DejaVuSans-31" transform="translate(219.819336 0.015625)"/>
     <use xlink:href="#DejaVuSans-20" transform="translate(283.442383 0.015625)"/>
     <use xlink:href="#DejaVuSans-6b" transform="translate(315.229492 0.015625)"/>
     <use xlink:href="#DejaVuSans-6f" transform="translate(373.139648 0.015625)"/>
     <use xlink:href="#DejaVuSans-68" transform="translate(434.321289 0.015625)"/>
     <use xlink:href="#DejaVuSans-6d" transform="translate(497.700195 0.015625)"/>
    </g>
   </g>
   <g id="text_6">
    <!-- $I_{in}$ -->
    <g transform="translate(167.932 155.319375) scale(0.1 -0.1)">
     <defs>
      <path id="DejaVuSans-Oblique-49" d="M 1081 4666 
L 1716 4666 
L 806 0 
L 172 0 
L 1081 4666 
z
" transform="scale(0.015625)"/>
     </defs>
     <use xlink:href="#DejaVuSans-Oblique-49" transform="translate(0 0.09375)"/>
     <use xlink:href="#DejaVuSans-Oblique-69" transform="translate(29.492188 -16.3125) scale(0.7)"/>
     <use xlink:href="#DejaVuSans-Oblique-6e" transform="translate(48.94043 -16.3125) scale(0.7)"/>
    </g>
   </g>
   <g id="text_7">
    <!-- $R_f$ -->
    <g transform="translate(303.438143 75.135312) scale(0.11 -0.11)">
     <defs>
      <path id="DejaVuSans-Oblique-66" d="M 3059 4863 
L 2969 4384 
L 2419 4384 
Q 2106 4384 1964 4261 
Q 1822 4138 1753 3809 
L 1691 3500 
L 2638 3500 
L 2553 3053 
L 1606 3053 
L 1013 0 
L 434 0 
L 1031 3053 
L 481 3053 
L 563 3500 
L 1113 3500 
L 1159 3744 
Q 1278 4363 1576 4613 
Q 1875 4863 2516 4863 
L 3059 4863 
z
" transform="scale(0.015625)"/>
     </defs>
     <use xlink:href="#DejaVuSans-Oblique-52" transform="translate(0 0.09375)"/>
     <use xlink:href="#DejaVuSans-Oblique-66" transform="translate(69.482422 -16.3125) scale(0.7)"/>
    </g>
   </g>
   <g id="text_8">
    <!-- =1 kohm -->
    <g transform="translate(288.277753 85.383437) scale(0.09 -0.09)">
     <use xlink:href="#DejaVuSans-3d"/>
     <use xlink:href="#DejaVuSans-31" transform="translate(83.789062 0)"/>
     <use xlink:href="#DejaVuSans-20" transform="translate(147.412109 0)"/>
     <use xlink:href="#DejaVuSans-6b" transform="translate(179.199219 0)"/>
     <use xlink:href="#DejaVuSans-6f" transform="translate(233.484375 0)"/>
     <use xlink:href="#DejaVuSans-68" transform="translate(294.666016 0)"/>
     <use xlink:href="#DejaVuSans-6d" transform="translate(358.044922 0)"/>
    </g>
   </g>
   <g id="text_9">
    <!-- $V_{out}$ -->
    <g transform="translate(434.504286 157.215312) scale(0.11 -0.11)">
     <defs>
      <path id="DejaVuSans-Oblique-6f" d="M 1625 -91 
Q 1009 -91 651 289 
Q 294 669 294 1325 
Q 294 1706 417 2101 
Q 541 2497 738 2766 
Q 1047 3184 1428 3384 
Q 1809 3584 2291 3584 
Q 2888 3584 3255 3212 
Q 3622 2841 3622 2241 
Q 3622 1825 3500 1412 
Q 3378 1000 3181 728 
Q 2875 309 2494 109 
Q 2113 -91 1625 -91 
z
M 891 1344 
Q 891 869 1089 633 
Q 1288 397 1691 397 
Q 2269 397 2648 901 
Q 3028 1406 3028 2181 
Q 3028 2634 2825 2865 
Q 2622 3097 2228 3097 
Q 1903 3097 1650 2945 
Q 1397 2794 1197 2484 
Q 1050 2253 970 1956 
Q 891 1659 891 1344 
z
" transform="scale(0.015625)"/>
      <path id="DejaVuSans-Oblique-75" d="M 428 1388 
L 838 3500 
L 1416 3500 
L 1006 1409 
Q 975 1256 961 1147 
Q 947 1038 947 966 
Q 947 700 1109 554 
Q 1272 409 1569 409 
Q 2031 409 2368 721 
Q 2706 1034 2809 1563 
L 3194 3500 
L 3769 3500 
L 3091 0 
L 2516 0 
L 2631 550 
Q 2388 244 2052 76 
Q 1716 -91 1338 -91 
Q 878 -91 622 161 
Q 366 413 366 863 
Q 366 956 381 1097 
Q 397 1238 428 1388 
z
" transform="scale(0.015625)"/>
      <path id="DejaVuSans-Oblique-74" d="M 2706 3500 
L 2619 3053 
L 1472 3053 
L 1100 1153 
Q 1081 1047 1072 975 
Q 1063 903 1063 863 
Q 1063 663 1183 572 
Q 1303 481 1569 481 
L 2150 481 
L 2053 0 
L 1503 0 
Q 991 0 739 200 
Q 488 400 488 806 
Q 488 878 497 964 
Q 506 1050 525 1153 
L 897 3053 
L 409 3053 
L 500 3500 
L 978 3500 
L 1172 4494 
L 1747 4494 
L 1556 3500 
L 2706 3500 
z
" transform="scale(0.015625)"/>
     </defs>
     <use xlink:href="#DejaVuSans-Oblique-56" transform="translate(0 0.09375)"/>
     <use xlink:href="#DejaVuSans-Oblique-6f" transform="translate(68.408203 -16.3125) scale(0.7)"/>
     <use xlink:href="#DejaVuSans-Oblique-75" transform="translate(111.235352 -16.3125) scale(0.7)"/>
     <use xlink:href="#DejaVuSans-Oblique-74" transform="translate(155.600586 -16.3125) scale(0.7)"/>
    </g>
   </g>
   <g id="patch_3">
    <path d="M 98.082 137.98 
C 98.798048 137.98 99.484866 137.695511 99.991188 137.189188 
C 100.497511 136.682866 100.782 135.996048 100.782 135.28 
C 100.782 134.563952 100.497511 133.877134 99.991188 133.370812 
C 99.484866 132.864489 98.798048 132.58 98.082 132.58 
C 97.365952 132.58 96.679134 132.864489 96.172812 133.370812 
C 95.666489 133.877134 95.382 134.563952 95.382 135.28 
C 95.382 135.996048 95.666489 136.682866 96.172812 137.189188 
C 96.679134 137.695511 97.365952 137.98 98.082 137.98 
z
" clip-path="url(#p8d73e40b86)" style="stroke: #000000; stroke-width: 1.35; stroke-linejoin: miter"/>
   </g>
   <g id="patch_4">
    <path d="M 257.922 137.98 
C 258.638048 137.98 259.324866 137.695511 259.831188 137.189188 
C 260.337511 136.682866 260.622 135.996048 260.622 135.28 
C 260.622 134.563952 260.337511 133.877134 259.831188 133.370812 
C 259.324866 132.864489 258.638048 132.58 257.922 132.58 
C 257.205952 132.58 256.519134 132.864489 256.012812 133.370812 
C 255.506489 133.877134 255.222 134.563952 255.222 135.28 
C 255.222 135.996048 255.506489 136.682866 256.012812 137.189188 
C 256.519134 137.695511 257.205952 137.98 257.922 137.98 
z
" clip-path="url(#p8d73e40b86)" style="stroke: #000000; stroke-width: 1.35; stroke-linejoin: miter"/>
   </g>
   <g id="patch_5">
    <path d="M 420.824286 160.48 
C 421.540335 160.48 422.227152 160.195511 422.733475 159.689188 
C 423.239797 159.182866 423.524286 158.496048 423.524286 157.78 
C 423.524286 157.063952 423.239797 156.377134 422.733475 155.870812 
C 422.227152 155.364489 421.540335 155.08 420.824286 155.08 
C 420.108238 155.08 419.421421 155.364489 418.915098 155.870812 
C 418.408775 156.377134 418.124286 157.063952 418.124286 157.78 
C 418.124286 158.496048 418.408775 159.182866 418.915098 159.689188 
C 419.421421 160.195511 420.108238 160.48 420.824286 160.48 
z
" clip-path="url(#p8d73e40b86)" style="stroke: #000000; stroke-width: 1.35; stroke-linejoin: miter"/>
   </g>
  </g>
 </g>
 <defs>
  <clipPath id="p8d73e40b86">
   <rect x="0" y="0" width="490.058286" height="281.8"/>
  </clipPath>
 </defs>
</svg>
