<?xml version="1.0" encoding="utf-8" standalone="no"?>
<!DOCTYPE svg PUBLIC "-//W3C//DTD SVG 1.1//EN"
  "http://www.w3.org/Graphics/SVG/1.1/DTD/svg11.dtd">
<svg xmlns:xlink="http://www.w3.org/1999/xlink" width="253.08pt" height="240pt" viewBox="0 0 253.08 240" xmlns="http://www.w3.org/2000/svg" version="1.1">
 <metadata>
  <rdf:RDF xmlns:dc="http://purl.org/dc/elements/1.1/" xmlns:cc="http://creativecommons.org/ns#" xmlns:rdf="http://www.w3.org/1999/02/22-rdf-syntax-ns#">
   <cc:Work>
    <dc:type rdf:resource="http://purl.org/dc/dcmitype/StillImage"/>
    <dc:date>2026-03-25T07:58:50.094083</dc:date>
    <dc:format>image/svg+xml</dc:format>
    <dc:creator>
     <cc:Agent>
      <dc:title>Matplotlib v3.10.8, https://matplotlib.org/</dc:title>
     </cc:Agent>
    </dc:creator>
   </cc:Work>
  </rdf:RDF>
 </metadata>
 <defs>
  <style type="text/css">*{stroke-linejoin: round; stroke-linecap: butt}</style>
 </defs>
 <g id="figure_1">
  <g id="patch_1">
   <path d="M 0 240 
L 253.08 240 
L 253.08 0 
L 0 0 
z
" style="fill: #ffffff"/>
  </g>
  <g id="axes_1">
   <g id="patch_2">
    <path d="M 67.68 169.08 
C 72.453656 169.08 77.032438 167.183406 80.407922 163.807922 
C 83.783406 160.432438 85.68 155.853656 85.68 151.08 
C 85.68 146.306344 83.783406 141.727562 80.407922 138.352078 
C 77.032438 134.976594 72.453656 133.08 67.68 133.08 
C 62.906344 133.08 58.327562 134.976594 54.952078 138.352078 
C 51.576594 141.727562 49.68 146.306344 49.68 151.08 
C 49.68 155.853656 51.576594 160.432438 54.952078 163.807922 
C 58.327562 167.183406 62.906344 169.08 67.68 169.08 
L 67.68 169.08 
z
" clip-path="url(#pcd53344d93)" style="fill: none; stroke: #000000; stroke-width: 2; stroke-linejoin: miter"/>
   </g>
   <g id="patch_3">
    <path d="M 182.88 142.08 
C 184.073016 142.08 185.21839 141.605571 186.061981 140.761981 
C 186.905571 139.91839 187.38 138.773016 187.38 137.58 
C 187.38 136.386984 186.905571 135.24161 186.061981 134.398019 
C 185.21839 133.554429 184.073016 133.08 182.88 133.08 
" clip-path="url(#pcd53344d93)" style="fill: none; stroke: #000000; stroke-width: 2; stroke-linejoin: miter"/>
   </g>
   <g id="patch_4">
    <path d="M 182.88 151.08 
C 184.073016 151.08 185.21839 150.605571 186.061981 149.761981 
C 186.905571 148.91839 187.38 147.773016 187.38 146.58 
C 187.38 145.386984 186.905571 144.24161 186.061981 143.398019 
C 185.21839 142.554429 184.073016 142.08 182.88 142.08 
" clip-path="url(#pcd53344d93)" style="fill: none; stroke: #000000; stroke-width: 2; stroke-linejoin: miter"/>
   </g>
   <g id="patch_5">
    <path d="M 182.88 160.08 
C 184.073016 160.08 185.21839 159.605571 186.061981 158.761981 
C 186.905571 157.91839 187.38 156.773016 187.38 155.58 
C 187.38 154.386984 186.905571 153.24161 186.061981 152.398019 
C 185.21839 151.554429 184.073016 151.08 182.88 151.08 
" clip-path="url(#pcd53344d93)" style="fill: none; stroke: #000000; stroke-width: 2; stroke-linejoin: miter"/>
   </g>
   <g id="patch_6">
    <path d="M 182.88 169.08 
C 184.073016 169.08 185.21839 168.605571 186.061981 167.761981 
C 186.905571 166.91839 187.38 165.773016 187.38 164.58 
C 187.38 163.386984 186.905571 162.24161 186.061981 161.398019 
C 185.21839 160.554429 184.073016 160.08 182.88 160.08 
" clip-path="url(#pcd53344d93)" style="fill: none; stroke: #000000; stroke-width: 2; stroke-linejoin: miter"/>
   </g>
   <g id="line2d_1">
    <path d="M 67.68 187.08 
L 67.68 169.08 
L 67.68 169.08 
M 67.68 133.08 
L 67.68 133.08 
L 67.68 115.08 
" clip-path="url(#pcd53344d93)" style="fill: none; stroke: #000000; stroke-width: 2; stroke-linecap: round"/>
   </g>
   <g id="line2d_2">
    <path d="M 76.68 151.08 
L 75.93 149.216503 
L 75.18 147.48 
L 74.43 145.988831 
L 73.68 144.844617 
L 72.93 144.125334 
L 72.18 143.88 
L 71.43 144.125334 
L 70.68 144.844617 
L 69.93 145.988831 
L 69.18 147.48 
L 68.43 149.216503 
L 67.68 151.08 
L 66.93 152.943497 
L 66.18 154.68 
L 65.43 156.171169 
L 64.68 157.315383 
L 63.93 158.034666 
L 63.18 158.28 
L 62.43 158.034666 
L 61.68 157.315383 
L 60.93 156.171169 
L 60.18 154.68 
L 59.43 152.943497 
L 58.68 151.08 
" clip-path="url(#pcd53344d93)" style="fill: none; stroke: #000000; stroke-width: 2; stroke-linecap: round"/>
   </g>
   <g id="line2d_3">
    <path d="M 67.68 115.08 
L 89.28 115.08 
L 110.88 115.08 
" clip-path="url(#pcd53344d93)" style="fill: none; stroke: #000000; stroke-width: 2; stroke-linecap: round"/>
   </g>
   <g id="line2d_4">
    <path d="M 110.88 115.08 
L 128.88 115.08 
L 131.88 106.08 
L 137.88 124.08 
L 143.88 106.08 
L 149.88 124.08 
L 155.88 106.08 
L 161.88 124.08 
L 164.88 115.08 
L 182.88 115.08 
" clip-path="url(#pcd53344d93)" style="fill: none; stroke: #000000; stroke-width: 2; stroke-linecap: round"/>
   </g>
   <g id="line2d_5">
    <path d="M 182.88 115.08 
L 182.88 133.08 
M 182.88 169.08 
L 182.88 187.08 
" clip-path="url(#pcd53344d93)" style="fill: none; stroke: #000000; stroke-width: 2; stroke-linecap: round"/>
   </g>
   <g id="line2d_6">
    <path d="M 182.88 187.08 
L 182.88 201.48 
L 173.88 201.48 
L 191.88 201.48 
M 176.58 205.8 
L 189.18 205.8 
M 181.08 210.12 
L 184.68 210.12 
" clip-path="url(#pcd53344d93)" style="fill: none; stroke: #000000; stroke-width: 2; stroke-linecap: round"/>
   </g>
   <g id="line2d_7">
    <path d="M 182.88 187.08 
L 110.88 187.08 
L 38.88 187.08 
" clip-path="url(#pcd53344d93)" style="fill: none; stroke: #000000; stroke-width: 2; stroke-linecap: round"/>
   </g>
   <g id="line2d_8">
    <path d="M 38.88 187.08 
L 38.88 201.48 
L 29.88 201.48 
L 47.88 201.48 
M 32.58 205.8 
L 45.18 205.8 
M 37.08 210.12 
L 40.68 210.12 
" clip-path="url(#pcd53344d93)" style="fill: none; stroke: #000000; stroke-width: 2; stroke-linecap: round"/>
   </g>
   <g id="text_1">
    <!-- RL High-Pass -->
    <g transform="translate(147.829688 39.19125) scale(0.12 -0.12)">
     <defs>
      <path id="DejaVuSans-52" d="M 2841 2188 
Q 3044 2119 3236 1894 
Q 3428 1669 3622 1275 
L 4263 0 
L 3584 0 
L 2988 1197 
Q 2756 1666 2539 1819 
Q 2322 1972 1947 1972 
L 1259 1972 
L 1259 0 
L 628 0 
L 628 4666 
L 2053 4666 
Q 2853 4666 3247 4331 
Q 3641 3997 3641 3322 
Q 3641 2881 3436 2590 
Q 3231 2300 2841 2188 
z
M 1259 4147 
L 1259 2491 
L 2053 2491 
Q 2509 2491 2742 2702 
Q 2975 2913 2975 3322 
Q 2975 3731 2742 3939 
Q 2509 4147 2053 4147 
L 1259 4147 
z
" transform="scale(0.015625)"/>
      <path id="DejaVuSans-4c" d="M 628 4666 
L 1259 4666 
L 1259 531 
L 3531 531 
L 3531 0 
L 628 0 
L 628 4666 
z
" transform="scale(0.015625)"/>
      <path id="DejaVuSans-20" transform="scale(0.015625)"/>
      <path id="DejaVuSans-48" d="M 628 4666 
L 1259 4666 
L 1259 2753 
L 3553 2753 
L 3553 4666 
L 4184 4666 
L 4184 0 
L 3553 0 
L 3553 2222 
L 1259 2222 
L 1259 0 
L 628 0 
L 628 4666 
z
" transform="scale(0.015625)"/>
      <path id="DejaVuSans-69" d="M 603 3500 
L 1178 3500 
L 1178 0 
L 603 0 
L 603 3500 
z
M 603 4863 
L 1178 4863 
L 1178 4134 
L 603 4134 
L 603 4863 
z
" transform="scale(0.015625)"/>
      <path id="DejaVuSans-67" d="M 2906 1791 
Q 2906 2416 2648 2759 
Q 2391 3103 1925 3103 
Q 1463 3103 1205 2759 
Q 947 2416 947 1791 
Q 947 1169 1205 825 
Q 1463 481 1925 481 
Q 2391 481 2648 825 
Q 2906 1169 2906 1791 
z
M 3481 434 
Q 3481 -459 3084 -895 
Q 2688 -1331 1869 -1331 
Q 1566 -1331 1297 -1286 
Q 1028 -1241 775 -1147 
L 775 -588 
Q 1028 -725 1275 -790 
Q 1522 -856 1778 -856 
Q 2344 -856 2625 -561 
Q 2906 -266 2906 331 
L 2906 616 
Q 2728 306 2450 153 
Q 2172 0 1784 0 
Q 1141 0 747 490 
Q 353 981 353 1791 
Q 353 2603 747 3093 
Q 1141 3584 1784 3584 
Q 2172 3584 2450 3431 
Q 2728 3278 2906 2969 
L 2906 3500 
L 3481 3500 
L 3481 434 
z
" transform="scale(0.015625)"/>
      <path id="DejaVuSans-68" d="M 3513 2113 
L 3513 0 
L 2938 0 
L 2938 2094 
Q 2938 2591 2744 2837 
Q 2550 3084 2163 3084 
Q 1697 3084 1428 2787 
Q 1159 2491 1159 1978 
L 1159 0 
L 581 0 
L 581 4863 
L 1159 4863 
L 1159 2956 
Q 1366 3272 1645 3428 
Q 1925 3584 2291 3584 
Q 2894 3584 3203 3211 
Q 3513 2838 3513 2113 
z
" transform="scale(0.015625)"/>
      <path id="DejaVuSans-2d" d="M 313 2009 
L 1997 2009 
L 1997 1497 
L 313 1497 
L 313 2009 
z
" transform="scale(0.015625)"/>
      <path id="DejaVuSans-50" d="M 1259 4147 
L 1259 2394 
L 2053 2394 
Q 2494 2394 2734 2622 
Q 2975 2850 2975 3272 
Q 2975 3691 2734 3919 
Q 2494 4147 2053 4147 
L 1259 4147 
z
M 628 4666 
L 2053 4666 
Q 2838 4666 3239 4311 
Q 3641 3956 3641 3272 
Q 3641 2581 3239 2228 
Q 2838 1875 2053 1875 
L 1259 1875 
L 1259 0 
L 628 0 
L 628 4666 
z
" transform="scale(0.015625)"/>
      <path id="DejaVuSans-61" d="M 2194 1759 
Q 1497 1759 1228 1600 
Q 959 1441 959 1056 
Q 959 750 1161 570 
Q 1363 391 1709 391 
Q 2188 391 2477 730 
Q 2766 1069 2766 1631 
L 2766 1759 
L 2194 1759 
z
M 3341 1997 
L 3341 0 
L 2766 0 
L 2766 531 
Q 2569 213 2275 61 
Q 1981 -91 1556 -91 
Q 1019 -91 701 211 
Q 384 513 384 1019 
Q 384 1609 779 1909 
Q 1175 2209 1959 2209 
L 2766 2209 
L 2766 2266 
Q 2766 2663 2505 2880 
Q 2244 3097 1772 3097 
Q 1472 3097 1187 3025 
Q 903 2953 641 2809 
L 641 3341 
Q 956 3463 1253 3523 
Q 1550 3584 1831 3584 
Q 2591 3584 2966 3190 
Q 3341 2797 3341 1997 
z
" transform="scale(0.015625)"/>
      <path id="DejaVuSans-73" d="M 2834 3397 
L 2834 2853 
Q 2591 2978 2328 3040 
Q 2066 3103 1784 3103 
Q 1356 3103 1142 2972 
Q 928 2841 928 2578 
Q 928 2378 1081 2264 
Q 1234 2150 1697 2047 
L 1894 2003 
Q 2506 1872 2764 1633 
Q 3022 1394 3022 966 
Q 3022 478 2636 193 
Q 2250 -91 1575 -91 
Q 1294 -91 989 -36 
Q 684 19 347 128 
L 347 722 
Q 666 556 975 473 
Q 1284 391 1588 391 
Q 1994 391 2212 530 
Q 2431 669 2431 922 
Q 2431 1156 2273 1281 
Q 2116 1406 1581 1522 
L 1381 1569 
Q 847 1681 609 1914 
Q 372 2147 372 2553 
Q 372 3047 722 3315 
Q 1072 3584 1716 3584 
Q 2034 3584 2315 3537 
Q 2597 3491 2834 3397 
z
" transform="scale(0.015625)"/>
     </defs>
     <use xlink:href="#DejaVuSans-52"/>
     <use xlink:href="#DejaVuSans-4c" transform="translate(69.482422 0)"/>
     <use xlink:href="#DejaVuSans-20" transform="translate(125.195312 0)"/>
     <use xlink:href="#DejaVuSans-48" transform="translate(156.982422 0)"/>
     <use xlink:href="#DejaVuSans-69" transform="translate(232.177734 0)"/>
     <use xlink:href="#DejaVuSans-67" transform="translate(259.960938 0)"/>
     <use xlink:href="#DejaVuSans-68" transform="translate(323.4375 0)"/>
     <use xlink:href="#DejaVuSans-2d" transform="translate(386.816406 0)"/>
     <use xlink:href="#DejaVuSans-50" transform="translate(422.900391 0)"/>
     <use xlink:href="#DejaVuSans-61" transform="translate(478.703125 0)"/>
     <use xlink:href="#DejaVuSans-73" transform="translate(539.982422 0)"/>
     <use xlink:href="#DejaVuSans-73" transform="translate(592.082031 0)"/>
    </g>
   </g>
   <g id="patch_7">
    <path d="M 182.88 117.78 
C 183.596048 117.78 184.282866 117.495511 184.789188 116.989188 
C 185.295511 116.482866 185.58 115.796048 185.58 115.08 
C 185.58 114.363952 185.295511 113.677134 184.789188 113.170812 
C 184.282866 112.664489 183.596048 112.38 182.88 112.38 
C 182.163952 112.38 181.477134 112.664489 180.970812 113.170812 
C 180.464489 113.677134 180.18 114.363952 180.18 115.08 
C 180.18 115.796048 180.464489 116.482866 180.970812 116.989188 
C 181.477134 117.495511 182.163952 117.78 182.88 117.78 
z
" clip-path="url(#pcd53344d93)" style="stroke: #000000; stroke-width: 2; stroke-linejoin: miter"/>
   </g>
  </g>
 </g>
 <defs>
  <clipPath id="pcd53344d93">
   <rect x="0" y="-0" width="253.08" height="240"/>
  </clipPath>
 </defs>
</svg>
