<?xml version="1.0" encoding="utf-8" standalone="no"?>
<!DOCTYPE svg PUBLIC "-//W3C//DTD SVG 1.1//EN"
  "http://www.w3.org/Graphics/SVG/1.1/DTD/svg11.dtd">
<svg xmlns:xlink="http://www.w3.org/1999/xlink" width="429.668286pt" height="252.28pt" viewBox="0 0 429.668286 252.28" xmlns="http://www.w3.org/2000/svg" version="1.1">
 <metadata>
  <rdf:RDF xmlns:dc="http://purl.org/dc/elements/1.1/" xmlns:cc="http://creativecommons.org/ns#" xmlns:rdf="http://www.w3.org/1999/02/22-rdf-syntax-ns#">
   <cc:Work>
    <dc:type rdf:resource="http://purl.org/dc/dcmitype/StillImage"/>
    <dc:date>2026-03-25T10:54:49.053528</dc:date>
    <dc:format>image/svg+xml</dc:format>
    <dc:creator>
     <cc:Agent>
      <dc:title>Matplotlib v3.10.8, https://matplotlib.org/</dc:title>
     </cc:Agent>
    </dc:creator>
   </cc:Work>
  </rdf:RDF>
 </metadata>
 <defs>
  <style type="text/css">*{stroke-linejoin: round; stroke-linecap: butt}</style>
 </defs>
 <g id="figure_1">
  <g id="patch_1">
   <path d="M 0 252.28 
L 429.668286 252.28 
L 429.668286 0 
L 0 0 
z
" style="fill: #ffffff"/>
  </g>
  <g id="axes_1">
   <g id="line2d_1">
    <path d="M 180.102 154.18 
L 180.102 199.18 
L 258.044286 154.18 
L 180.102 109.18 
L 180.102 154.18 
M 258.044286 154.18 
" clip-path="url(#pa3ff9ce275)" style="fill: none; stroke: #000000; stroke-width: 1.35; stroke-linecap: round"/>
   </g>
   <g id="line2d_2">
    <path d="M 186.244786 176.68 
L 193.444786 176.68 
" clip-path="url(#pa3ff9ce275)" style="fill: none; stroke: #000000; stroke-width: 1.35; stroke-linecap: round"/>
   </g>
   <g id="line2d_3">
    <path d="M 186.244786 131.68 
L 193.444786 131.68 
" clip-path="url(#pa3ff9ce275)" style="fill: none; stroke: #000000; stroke-width: 1.35; stroke-linecap: round"/>
   </g>
   <g id="line2d_4">
    <path d="M 189.844786 128.08 
L 189.844786 135.28 
" clip-path="url(#pa3ff9ce275)" style="fill: none; stroke: #000000; stroke-width: 1.35; stroke-linecap: round"/>
   </g>
   <g id="line2d_5">
    <path d="M 52.302 74.08 
L 52.302 84.88 
L 61.302 87.88 
L 43.302 93.88 
L 61.302 99.88 
L 43.302 105.88 
L 61.302 111.88 
L 43.302 117.88 
L 52.302 120.88 
L 52.302 131.68 
" clip-path="url(#pa3ff9ce275)" style="fill: none; stroke: #000000; stroke-width: 1.35; stroke-linecap: round"/>
   </g>
   <g id="line2d_6">
    <path d="M 52.302 131.68 
L 52.302 142.48 
L 61.302 145.48 
L 43.302 151.48 
L 61.302 157.48 
L 43.302 163.48 
L 61.302 169.48 
L 43.302 175.48 
L 52.302 178.48 
L 52.302 189.28 
" clip-path="url(#pa3ff9ce275)" style="fill: none; stroke: #000000; stroke-width: 1.35; stroke-linecap: round"/>
   </g>
   <g id="line2d_7">
    <path d="M 52.302 189.28 
L 52.302 203.68 
L 43.302 203.68 
L 61.302 203.68 
M 46.002 208 
L 58.602 208 
M 50.502 212.32 
L 54.102 212.32 
" clip-path="url(#pa3ff9ce275)" style="fill: none; stroke: #000000; stroke-width: 1.35; stroke-linecap: round"/>
   </g>
   <g id="line2d_8">
    <path d="M 44.382 90.64 
L 44.382 98.2 
L 44.382 96.76 
" clip-path="url(#pa3ff9ce275)" style="fill: none; stroke: #000000; stroke-width: 1.35; stroke-linecap: round"/>
   </g>
   <g id="patch_2">
    <path d="M 47.082 96.76 
L 44.382 105.76 
L 41.682 96.76 
z
" clip-path="url(#pa3ff9ce275)"/>
   </g>
   <g id="line2d_9">
    <path d="M 52.302 131.68 
L 116.202 131.68 
L 180.102 131.68 
" clip-path="url(#pa3ff9ce275)" style="fill: none; stroke: #000000; stroke-width: 1.35; stroke-linecap: round"/>
   </g>
   <g id="line2d_10">
    <path d="M 258.044286 154.18 
L 286.484286 154.18 
L 314.924286 154.18 
" clip-path="url(#pa3ff9ce275)" style="fill: none; stroke: #000000; stroke-width: 1.35; stroke-linecap: round"/>
   </g>
   <g id="line2d_11">
    <path d="M 258.044286 154.18 
L 258.044286 178.39 
L 258.044286 202.6 
" clip-path="url(#pa3ff9ce275)" style="fill: none; stroke: #000000; stroke-width: 1.35; stroke-linecap: round"/>
   </g>
   <g id="line2d_12">
    <path d="M 258.044286 202.6 
L 218.353143 202.6 
L 178.662 202.6 
" clip-path="url(#pa3ff9ce275)" style="fill: none; stroke: #000000; stroke-width: 1.35; stroke-linecap: round"/>
   </g>
   <g id="line2d_13">
    <path d="M 178.662 202.6 
L 178.662 189.620015 
L 178.662 176.640031 
" clip-path="url(#pa3ff9ce275)" style="fill: none; stroke: #000000; stroke-width: 1.35; stroke-linecap: round"/>
   </g>
   <g id="line2d_14">
    <path d="M 185.862 217 
L 193.602 217 
L 192.342 217 
" clip-path="url(#pa3ff9ce275)" style="fill: none; stroke: #000000; stroke-width: 1.35; stroke-linecap: round"/>
   </g>
   <g id="patch_3">
    <path d="M 192.342 214.3 
L 201.342 217 
L 192.342 219.7 
z
" clip-path="url(#pa3ff9ce275)"/>
   </g>
   <g id="text_1">
    <!-- Voltage Follower Circuit -->
    <g transform="translate(117.18075 38.415312) scale(0.11 -0.11)">
     <defs>
      <path id="DejaVuSans-56" d="M 1831 0 
L 50 4666 
L 709 4666 
L 2188 738 
L 3669 4666 
L 4325 4666 
L 2547 0 
L 1831 0 
z
" transform="scale(0.015625)"/>
      <path id="DejaVuSans-6f" d="M 1959 3097 
Q 1497 3097 1228 2736 
Q 959 2375 959 1747 
Q 959 1119 1226 758 
Q 1494 397 1959 397 
Q 2419 397 2687 759 
Q 2956 1122 2956 1747 
Q 2956 2369 2687 2733 
Q 2419 3097 1959 3097 
z
M 1959 3584 
Q 2709 3584 3137 3096 
Q 3566 2609 3566 1747 
Q 3566 888 3137 398 
Q 2709 -91 1959 -91 
Q 1206 -91 779 398 
Q 353 888 353 1747 
Q 353 2609 779 3096 
Q 1206 3584 1959 3584 
z
" transform="scale(0.015625)"/>
      <path id="DejaVuSans-6c" d="M 603 4863 
L 1178 4863 
L 1178 0 
L 603 0 
L 603 4863 
z
" transform="scale(0.015625)"/>
      <path id="DejaVuSans-74" d="M 1172 4494 
L 1172 3500 
L 2356 3500 
L 2356 3053 
L 1172 3053 
L 1172 1153 
Q 1172 725 1289 603 
Q 1406 481 1766 481 
L 2356 481 
L 2356 0 
L 1766 0 
Q 1100 0 847 248 
Q 594 497 594 1153 
L 594 3053 
L 172 3053 
L 172 3500 
L 594 3500 
L 594 4494 
L 1172 4494 
z
" transform="scale(0.015625)"/>
      <path id="DejaVuSans-61" d="M 2194 1759 
Q 1497 1759 1228 1600 
Q 959 1441 959 1056 
Q 959 750 1161 570 
Q 1363 391 1709 391 
Q 2188 391 2477 730 
Q 2766 1069 2766 1631 
L 2766 1759 
L 2194 1759 
z
M 3341 1997 
L 3341 0 
L 2766 0 
L 2766 531 
Q 2569 213 2275 61 
Q 1981 -91 1556 -91 
Q 1019 -91 701 211 
Q 384 513 384 1019 
Q 384 1609 779 1909 
Q 1175 2209 1959 2209 
L 2766 2209 
L 2766 2266 
Q 2766 2663 2505 2880 
Q 2244 3097 1772 3097 
Q 1472 3097 1187 3025 
Q 903 2953 641 2809 
L 641 3341 
Q 956 3463 1253 3523 
Q 1550 3584 1831 3584 
Q 2591 3584 2966 3190 
Q 3341 2797 3341 1997 
z
" transform="scale(0.015625)"/>
      <path id="DejaVuSans-67" d="M 2906 1791 
Q 2906 2416 2648 2759 
Q 2391 3103 1925 3103 
Q 1463 3103 1205 2759 
Q 947 2416 947 1791 
Q 947 1169 1205 825 
Q 1463 481 1925 481 
Q 2391 481 2648 825 
Q 2906 1169 2906 1791 
z
M 3481 434 
Q 3481 -459 3084 -895 
Q 2688 -1331 1869 -1331 
Q 1566 -1331 1297 -1286 
Q 1028 -1241 775 -1147 
L 775 -588 
Q 1028 -725 1275 -790 
Q 1522 -856 1778 -856 
Q 2344 -856 2625 -561 
Q 2906 -266 2906 331 
L 2906 616 
Q 2728 306 2450 153 
Q 2172 0 1784 0 
Q 1141 0 747 490 
Q 353 981 353 1791 
Q 353 2603 747 3093 
Q 1141 3584 1784 3584 
Q 2172 3584 2450 3431 
Q 2728 3278 2906 2969 
L 2906 3500 
L 3481 3500 
L 3481 434 
z
" transform="scale(0.015625)"/>
      <path id="DejaVuSans-65" d="M 3597 1894 
L 3597 1613 
L 953 1613 
Q 991 1019 1311 708 
Q 1631 397 2203 397 
Q 2534 397 2845 478 
Q 3156 559 3463 722 
L 3463 178 
Q 3153 47 2828 -22 
Q 2503 -91 2169 -91 
Q 1331 -91 842 396 
Q 353 884 353 1716 
Q 353 2575 817 3079 
Q 1281 3584 2069 3584 
Q 2775 3584 3186 3129 
Q 3597 2675 3597 1894 
z
M 3022 2063 
Q 3016 2534 2758 2815 
Q 2500 3097 2075 3097 
Q 1594 3097 1305 2825 
Q 1016 2553 972 2059 
L 3022 2063 
z
" transform="scale(0.015625)"/>
      <path id="DejaVuSans-20" transform="scale(0.015625)"/>
      <path id="DejaVuSans-46" d="M 628 4666 
L 3309 4666 
L 3309 4134 
L 1259 4134 
L 1259 2759 
L 3109 2759 
L 3109 2228 
L 1259 2228 
L 1259 0 
L 628 0 
L 628 4666 
z
" transform="scale(0.015625)"/>
      <path id="DejaVuSans-77" d="M 269 3500 
L 844 3500 
L 1563 769 
L 2278 3500 
L 2956 3500 
L 3675 769 
L 4391 3500 
L 4966 3500 
L 4050 0 
L 3372 0 
L 2619 2869 
L 1863 0 
L 1184 0 
L 269 3500 
z
" transform="scale(0.015625)"/>
      <path id="DejaVuSans-72" d="M 2631 2963 
Q 2534 3019 2420 3045 
Q 2306 3072 2169 3072 
Q 1681 3072 1420 2755 
Q 1159 2438 1159 1844 
L 1159 0 
L 581 0 
L 581 3500 
L 1159 3500 
L 1159 2956 
Q 1341 3275 1631 3429 
Q 1922 3584 2338 3584 
Q 2397 3584 2469 3576 
Q 2541 3569 2628 3553 
L 2631 2963 
z
" transform="scale(0.015625)"/>
      <path id="DejaVuSans-43" d="M 4122 4306 
L 4122 3641 
Q 3803 3938 3442 4084 
Q 3081 4231 2675 4231 
Q 1875 4231 1450 3742 
Q 1025 3253 1025 2328 
Q 1025 1406 1450 917 
Q 1875 428 2675 428 
Q 3081 428 3442 575 
Q 3803 722 4122 1019 
L 4122 359 
Q 3791 134 3420 21 
Q 3050 -91 2638 -91 
Q 1578 -91 968 557 
Q 359 1206 359 2328 
Q 359 3453 968 4101 
Q 1578 4750 2638 4750 
Q 3056 4750 3426 4639 
Q 3797 4528 4122 4306 
z
" transform="scale(0.015625)"/>
      <path id="DejaVuSans-69" d="M 603 3500 
L 1178 3500 
L 1178 0 
L 603 0 
L 603 3500 
z
M 603 4863 
L 1178 4863 
L 1178 4134 
L 603 4134 
L 603 4863 
z
" transform="scale(0.015625)"/>
      <path id="DejaVuSans-63" d="M 3122 3366 
L 3122 2828 
Q 2878 2963 2633 3030 
Q 2388 3097 2138 3097 
Q 1578 3097 1268 2742 
Q 959 2388 959 1747 
Q 959 1106 1268 751 
Q 1578 397 2138 397 
Q 2388 397 2633 464 
Q 2878 531 3122 666 
L 3122 134 
Q 2881 22 2623 -34 
Q 2366 -91 2075 -91 
Q 1284 -91 818 406 
Q 353 903 353 1747 
Q 353 2603 823 3093 
Q 1294 3584 2113 3584 
Q 2378 3584 2631 3529 
Q 2884 3475 3122 3366 
z
" transform="scale(0.015625)"/>
      <path id="DejaVuSans-75" d="M 544 1381 
L 544 3500 
L 1119 3500 
L 1119 1403 
Q 1119 906 1312 657 
Q 1506 409 1894 409 
Q 2359 409 2629 706 
Q 2900 1003 2900 1516 
L 2900 3500 
L 3475 3500 
L 3475 0 
L 2900 0 
L 2900 538 
Q 2691 219 2414 64 
Q 2138 -91 1772 -91 
Q 1169 -91 856 284 
Q 544 659 544 1381 
z
M 1991 3584 
L 1991 3584 
z
" transform="scale(0.015625)"/>
     </defs>
     <use xlink:href="#DejaVuSans-56"/>
     <use xlink:href="#DejaVuSans-6f" transform="translate(60.658203 0)"/>
     <use xlink:href="#DejaVuSans-6c" transform="translate(121.839844 0)"/>
     <use xlink:href="#DejaVuSans-74" transform="translate(149.623047 0)"/>
     <use xlink:href="#DejaVuSans-61" transform="translate(188.832031 0)"/>
     <use xlink:href="#DejaVuSans-67" transform="translate(250.111328 0)"/>
     <use xlink:href="#DejaVuSans-65" transform="translate(313.587891 0)"/>
     <use xlink:href="#DejaVuSans-20" transform="translate(375.111328 0)"/>
     <use xlink:href="#DejaVuSans-46" transform="translate(406.898438 0)"/>
     <use xlink:href="#DejaVuSans-6f" transform="translate(460.792969 0)"/>
     <use xlink:href="#DejaVuSans-6c" transform="translate(521.974609 0)"/>
     <use xlink:href="#DejaVuSans-6c" transform="translate(549.757812 0)"/>
     <use xlink:href="#DejaVuSans-6f" transform="translate(577.541016 0)"/>
     <use xlink:href="#DejaVuSans-77" transform="translate(638.722656 0)"/>
     <use xlink:href="#DejaVuSans-65" transform="translate(720.509766 0)"/>
     <use xlink:href="#DejaVuSans-72" transform="translate(782.033203 0)"/>
     <use xlink:href="#DejaVuSans-20" transform="translate(823.146484 0)"/>
     <use xlink:href="#DejaVuSans-43" transform="translate(854.933594 0)"/>
     <use xlink:href="#DejaVuSans-69" transform="translate(924.757812 0)"/>
     <use xlink:href="#DejaVuSans-72" transform="translate(952.541016 0)"/>
     <use xlink:href="#DejaVuSans-63" transform="translate(991.404297 0)"/>
     <use xlink:href="#DejaVuSans-75" transform="translate(1046.384766 0)"/>
     <use xlink:href="#DejaVuSans-69" transform="translate(1109.763672 0)"/>
     <use xlink:href="#DejaVuSans-74" transform="translate(1137.546875 0)"/>
    </g>
   </g>
   <g id="text_2">
    <!-- Op-Amp Analog Configuration -->
    <g style="fill: #444444" transform="translate(107.273094 48.939375) scale(0.1 -0.1)">
     <defs>
      <path id="DejaVuSans-4f" d="M 2522 4238 
Q 1834 4238 1429 3725 
Q 1025 3213 1025 2328 
Q 1025 1447 1429 934 
Q 1834 422 2522 422 
Q 3209 422 3611 934 
Q 4013 1447 4013 2328 
Q 4013 3213 3611 3725 
Q 3209 4238 2522 4238 
z
M 2522 4750 
Q 3503 4750 4090 4092 
Q 4678 3434 4678 2328 
Q 4678 1225 4090 567 
Q 3503 -91 2522 -91 
Q 1538 -91 948 565 
Q 359 1222 359 2328 
Q 359 3434 948 4092 
Q 1538 4750 2522 4750 
z
" transform="scale(0.015625)"/>
      <path id="DejaVuSans-70" d="M 1159 525 
L 1159 -1331 
L 581 -1331 
L 581 3500 
L 1159 3500 
L 1159 2969 
Q 1341 3281 1617 3432 
Q 1894 3584 2278 3584 
Q 2916 3584 3314 3078 
Q 3713 2572 3713 1747 
Q 3713 922 3314 415 
Q 2916 -91 2278 -91 
Q 1894 -91 1617 61 
Q 1341 213 1159 525 
z
M 3116 1747 
Q 3116 2381 2855 2742 
Q 2594 3103 2138 3103 
Q 1681 3103 1420 2742 
Q 1159 2381 1159 1747 
Q 1159 1113 1420 752 
Q 1681 391 2138 391 
Q 2594 391 2855 752 
Q 3116 1113 3116 1747 
z
" transform="scale(0.015625)"/>
      <path id="DejaVuSans-2d" d="M 313 2009 
L 1997 2009 
L 1997 1497 
L 313 1497 
L 313 2009 
z
" transform="scale(0.015625)"/>
      <path id="DejaVuSans-41" d="M 2188 4044 
L 1331 1722 
L 3047 1722 
L 2188 4044 
z
M 1831 4666 
L 2547 4666 
L 4325 0 
L 3669 0 
L 3244 1197 
L 1141 1197 
L 716 0 
L 50 0 
L 1831 4666 
z
" transform="scale(0.015625)"/>
      <path id="DejaVuSans-6d" d="M 3328 2828 
Q 3544 3216 3844 3400 
Q 4144 3584 4550 3584 
Q 5097 3584 5394 3201 
Q 5691 2819 5691 2113 
L 5691 0 
L 5113 0 
L 5113 2094 
Q 5113 2597 4934 2840 
Q 4756 3084 4391 3084 
Q 3944 3084 3684 2787 
Q 3425 2491 3425 1978 
L 3425 0 
L 2847 0 
L 2847 2094 
Q 2847 2600 2669 2842 
Q 2491 3084 2119 3084 
Q 1678 3084 1418 2786 
Q 1159 2488 1159 1978 
L 1159 0 
L 581 0 
L 581 3500 
L 1159 3500 
L 1159 2956 
Q 1356 3278 1631 3431 
Q 1906 3584 2284 3584 
Q 2666 3584 2933 3390 
Q 3200 3197 3328 2828 
z
" transform="scale(0.015625)"/>
      <path id="DejaVuSans-6e" d="M 3513 2113 
L 3513 0 
L 2938 0 
L 2938 2094 
Q 2938 2591 2744 2837 
Q 2550 3084 2163 3084 
Q 1697 3084 1428 2787 
Q 1159 2491 1159 1978 
L 1159 0 
L 581 0 
L 581 3500 
L 1159 3500 
L 1159 2956 
Q 1366 3272 1645 3428 
Q 1925 3584 2291 3584 
Q 2894 3584 3203 3211 
Q 3513 2838 3513 2113 
z
" transform="scale(0.015625)"/>
      <path id="DejaVuSans-66" d="M 2375 4863 
L 2375 4384 
L 1825 4384 
Q 1516 4384 1395 4259 
Q 1275 4134 1275 3809 
L 1275 3500 
L 2222 3500 
L 2222 3053 
L 1275 3053 
L 1275 0 
L 697 0 
L 697 3053 
L 147 3053 
L 147 3500 
L 697 3500 
L 697 3744 
Q 697 4328 969 4595 
Q 1241 4863 1831 4863 
L 2375 4863 
z
" transform="scale(0.015625)"/>
     </defs>
     <use xlink:href="#DejaVuSans-4f"/>
     <use xlink:href="#DejaVuSans-70" transform="translate(78.710938 0)"/>
     <use xlink:href="#DejaVuSans-2d" transform="translate(142.1875 0)"/>
     <use xlink:href="#DejaVuSans-41" transform="translate(176.021484 0)"/>
     <use xlink:href="#DejaVuSans-6d" transform="translate(244.429688 0)"/>
     <use xlink:href="#DejaVuSans-70" transform="translate(341.841797 0)"/>
     <use xlink:href="#DejaVuSans-20" transform="translate(405.318359 0)"/>
     <use xlink:href="#DejaVuSans-41" transform="translate(437.105469 0)"/>
     <use xlink:href="#DejaVuSans-6e" transform="translate(505.513672 0)"/>
     <use xlink:href="#DejaVuSans-61" transform="translate(568.892578 0)"/>
     <use xlink:href="#DejaVuSans-6c" transform="translate(630.171875 0)"/>
     <use xlink:href="#DejaVuSans-6f" transform="translate(657.955078 0)"/>
     <use xlink:href="#DejaVuSans-67" transform="translate(719.136719 0)"/>
     <use xlink:href="#DejaVuSans-20" transform="translate(782.613281 0)"/>
     <use xlink:href="#DejaVuSans-43" transform="translate(814.400391 0)"/>
     <use xlink:href="#DejaVuSans-6f" transform="translate(884.224609 0)"/>
     <use xlink:href="#DejaVuSans-6e" transform="translate(945.40625 0)"/>
     <use xlink:href="#DejaVuSans-66" transform="translate(1008.785156 0)"/>
     <use xlink:href="#DejaVuSans-69" transform="translate(1043.990234 0)"/>
     <use xlink:href="#DejaVuSans-67" transform="translate(1071.773438 0)"/>
     <use xlink:href="#DejaVuSans-75" transform="translate(1135.25 0)"/>
     <use xlink:href="#DejaVuSans-72" transform="translate(1198.628906 0)"/>
     <use xlink:href="#DejaVuSans-61" transform="translate(1239.742188 0)"/>
     <use xlink:href="#DejaVuSans-74" transform="translate(1301.021484 0)"/>
     <use xlink:href="#DejaVuSans-69" transform="translate(1340.230469 0)"/>
     <use xlink:href="#DejaVuSans-6f" transform="translate(1368.013672 0)"/>
     <use xlink:href="#DejaVuSans-6e" transform="translate(1429.195312 0)"/>
    </g>
   </g>
   <g id="text_3">
    <!-- $V_{CC}$ -->
    <g transform="translate(48.407 62.715312) scale(0.11 -0.11)">
     <defs>
      <path id="DejaVuSans-Oblique-56" d="M 1319 0 
L 500 4666 
L 1119 4666 
L 1797 653 
L 4063 4666 
L 4750 4666 
L 2053 0 
L 1319 0 
z
" transform="scale(0.015625)"/>
      <path id="DejaVuSans-Oblique-43" d="M 4447 4306 
L 4319 3641 
Q 4019 3944 3683 4091 
Q 3347 4238 2956 4238 
Q 2422 4238 2017 3981 
Q 1613 3725 1319 3200 
Q 1131 2863 1032 2486 
Q 934 2109 934 1728 
Q 934 1091 1264 756 
Q 1594 422 2222 422 
Q 2656 422 3056 561 
Q 3456 700 3834 978 
L 3688 231 
Q 3316 72 2936 -9 
Q 2556 -91 2175 -91 
Q 1278 -91 773 396 
Q 269 884 269 1753 
Q 269 2309 461 2846 
Q 653 3384 1013 3828 
Q 1394 4300 1883 4525 
Q 2372 4750 3022 4750 
Q 3422 4750 3780 4639 
Q 4138 4528 4447 4306 
z
" transform="scale(0.015625)"/>
     </defs>
     <use xlink:href="#DejaVuSans-Oblique-56" transform="translate(0 0.09375)"/>
     <use xlink:href="#DejaVuSans-Oblique-43" transform="translate(68.408203 -16.3125) scale(0.7)"/>
     <use xlink:href="#DejaVuSans-Oblique-43" transform="translate(117.285156 -16.3125) scale(0.7)"/>
    </g>
   </g>
   <g id="text_4">
    <!-- $R_1$ -->
    <g transform="translate(29.352 108.795312) scale(0.11 -0.11)">
     <defs>
      <path id="DejaVuSans-Oblique-52" d="M 1613 4147 
L 1294 2491 
L 2106 2491 
Q 2584 2491 2879 2755 
Q 3175 3019 3175 3444 
Q 3175 3784 2976 3965 
Q 2778 4147 2406 4147 
L 1613 4147 
z
M 2772 2241 
Q 2972 2194 3105 2009 
Q 3238 1825 3413 1275 
L 3809 0 
L 3144 0 
L 2778 1197 
Q 2638 1659 2453 1815 
Q 2269 1972 1888 1972 
L 1191 1972 
L 806 0 
L 172 0 
L 1081 4666 
L 2503 4666 
Q 3150 4666 3495 4373 
Q 3841 4081 3841 3531 
Q 3841 3044 3547 2687 
Q 3253 2331 2772 2241 
z
" transform="scale(0.015625)"/>
      <path id="DejaVuSans-31" d="M 794 531 
L 1825 531 
L 1825 4091 
L 703 3866 
L 703 4441 
L 1819 4666 
L 2450 4666 
L 2450 531 
L 3481 531 
L 3481 0 
L 794 0 
L 794 531 
z
" transform="scale(0.015625)"/>
     </defs>
     <use xlink:href="#DejaVuSans-Oblique-52" transform="translate(0 0.09375)"/>
     <use xlink:href="#DejaVuSans-31" transform="translate(69.482422 -16.3125) scale(0.7)"/>
    </g>
   </g>
   <g id="text_5">
    <!-- $R_2$ -->
    <g transform="translate(29.352 167.835312) scale(0.11 -0.11)">
     <defs>
      <path id="DejaVuSans-32" d="M 1228 531 
L 3431 531 
L 3431 0 
L 469 0 
L 469 531 
Q 828 903 1448 1529 
Q 2069 2156 2228 2338 
Q 2531 2678 2651 2914 
Q 2772 3150 2772 3378 
Q 2772 3750 2511 3984 
Q 2250 4219 1831 4219 
Q 1534 4219 1204 4116 
Q 875 4013 500 3803 
L 500 4441 
Q 881 4594 1212 4672 
Q 1544 4750 1819 4750 
Q 2544 4750 2975 4387 
Q 3406 4025 3406 3419 
Q 3406 3131 3298 2873 
Q 3191 2616 2906 2266 
Q 2828 2175 2409 1742 
Q 1991 1309 1228 531 
z
" transform="scale(0.015625)"/>
     </defs>
     <use xlink:href="#DejaVuSans-Oblique-52" transform="translate(0 0.09375)"/>
     <use xlink:href="#DejaVuSans-32" transform="translate(69.482422 -16.3125) scale(0.7)"/>
    </g>
   </g>
   <g id="text_6">
    <!-- $I_{in}$ -->
    <g transform="translate(37.562 89.799375) scale(0.1 -0.1)">
     <defs>
      <path id="DejaVuSans-Oblique-49" d="M 1081 4666 
L 1716 4666 
L 806 0 
L 172 0 
L 1081 4666 
z
" transform="scale(0.015625)"/>
      <path id="DejaVuSans-Oblique-69" d="M 1172 4863 
L 1747 4863 
L 1606 4134 
L 1031 4134 
L 1172 4863 
z
M 909 3500 
L 1484 3500 
L 800 0 
L 225 0 
L 909 3500 
z
" transform="scale(0.015625)"/>
      <path id="DejaVuSans-Oblique-6e" d="M 3566 2113 
L 3156 0 
L 2578 0 
L 2988 2091 
Q 3016 2238 3031 2350 
Q 3047 2463 3047 2528 
Q 3047 2791 2881 2937 
Q 2716 3084 2419 3084 
Q 1956 3084 1622 2776 
Q 1288 2469 1184 1941 
L 800 0 
L 225 0 
L 903 3500 
L 1478 3500 
L 1363 2950 
Q 1603 3253 1940 3418 
Q 2278 3584 2650 3584 
Q 3113 3584 3367 3334 
Q 3622 3084 3622 2631 
Q 3622 2519 3608 2391 
Q 3594 2263 3566 2113 
z
" transform="scale(0.015625)"/>
     </defs>
     <use xlink:href="#DejaVuSans-Oblique-49" transform="translate(0 0.09375)"/>
     <use xlink:href="#DejaVuSans-Oblique-69" transform="translate(29.492188 -16.3125) scale(0.7)"/>
     <use xlink:href="#DejaVuSans-Oblique-6e" transform="translate(48.94043 -16.3125) scale(0.7)"/>
    </g>
   </g>
   <g id="text_7">
    <!-- $V_{REF}$=12.9 V -->
    <g transform="translate(328.244286 153.615312) scale(0.11 -0.11)">
     <defs>
      <path id="DejaVuSans-Oblique-45" d="M 1081 4666 
L 4031 4666 
L 3928 4134 
L 1606 4134 
L 1338 2753 
L 3566 2753 
L 3463 2222 
L 1234 2222 
L 909 531 
L 3284 531 
L 3181 0 
L 172 0 
L 1081 4666 
z
" transform="scale(0.015625)"/>
      <path id="DejaVuSans-Oblique-46" d="M 1081 4666 
L 3756 4666 
L 3653 4134 
L 1606 4134 
L 1338 2759 
L 3188 2759 
L 3084 2228 
L 1234 2228 
L 800 0 
L 172 0 
L 1081 4666 
z
" transform="scale(0.015625)"/>
      <path id="DejaVuSans-3d" d="M 678 2906 
L 4684 2906 
L 4684 2381 
L 678 2381 
L 678 2906 
z
M 678 1631 
L 4684 1631 
L 4684 1100 
L 678 1100 
L 678 1631 
z
" transform="scale(0.015625)"/>
      <path id="DejaVuSans-2e" d="M 684 794 
L 1344 794 
L 1344 0 
L 684 0 
L 684 794 
z
" transform="scale(0.015625)"/>
      <path id="DejaVuSans-39" d="M 703 97 
L 703 672 
Q 941 559 1184 500 
Q 1428 441 1663 441 
Q 2288 441 2617 861 
Q 2947 1281 2994 2138 
Q 2813 1869 2534 1725 
Q 2256 1581 1919 1581 
Q 1219 1581 811 2004 
Q 403 2428 403 3163 
Q 403 3881 828 4315 
Q 1253 4750 1959 4750 
Q 2769 4750 3195 4129 
Q 3622 3509 3622 2328 
Q 3622 1225 3098 567 
Q 2575 -91 1691 -91 
Q 1453 -91 1209 -44 
Q 966 3 703 97 
z
M 1959 2075 
Q 2384 2075 2632 2365 
Q 2881 2656 2881 3163 
Q 2881 3666 2632 3958 
Q 2384 4250 1959 4250 
Q 1534 4250 1286 3958 
Q 1038 3666 1038 3163 
Q 1038 2656 1286 2365 
Q 1534 2075 1959 2075 
z
" transform="scale(0.015625)"/>
     </defs>
     <use xlink:href="#DejaVuSans-Oblique-56" transform="translate(0 0.78125)"/>
     <use xlink:href="#DejaVuSans-Oblique-52" transform="translate(68.408203 -15.625) scale(0.7)"/>
     <use xlink:href="#DejaVuSans-Oblique-45" transform="translate(117.045898 -15.625) scale(0.7)"/>
     <use xlink:href="#DejaVuSans-Oblique-46" transform="translate(161.274414 -15.625) scale(0.7)"/>
     <use xlink:href="#DejaVuSans-3d" transform="translate(204.272461 0.78125)"/>
     <use xlink:href="#DejaVuSans-31" transform="translate(288.061523 0.78125)"/>
     <use xlink:href="#DejaVuSans-32" transform="translate(351.68457 0.78125)"/>
     <use xlink:href="#DejaVuSans-2e" transform="translate(415.307617 0.78125)"/>
     <use xlink:href="#DejaVuSans-39" transform="translate(447.094727 0.78125)"/>
     <use xlink:href="#DejaVuSans-20" transform="translate(510.717773 0.78125)"/>
     <use xlink:href="#DejaVuSans-56" transform="translate(542.504883 0.78125)"/>
    </g>
   </g>
   <g id="text_8">
    <!-- $I_f$ -->
    <g transform="translate(188.742 209.679375) scale(0.1 -0.1)">
     <defs>
      <path id="DejaVuSans-Oblique-66" d="M 3059 4863 
L 2969 4384 
L 2419 4384 
Q 2106 4384 1964 4261 
Q 1822 4138 1753 3809 
L 1691 3500 
L 2638 3500 
L 2553 3053 
L 1606 3053 
L 1013 0 
L 434 0 
L 1031 3053 
L 481 3053 
L 563 3500 
L 1113 3500 
L 1159 3744 
Q 1278 4363 1576 4613 
Q 1875 4863 2516 4863 
L 3059 4863 
z
" transform="scale(0.015625)"/>
     </defs>
     <use xlink:href="#DejaVuSans-Oblique-49" transform="translate(0 0.09375)"/>
     <use xlink:href="#DejaVuSans-Oblique-66" transform="translate(29.492188 -16.3125) scale(0.7)"/>
    </g>
   </g>
   <g id="patch_4">
    <path d="M 52.302 76.78 
C 53.018048 76.78 53.704866 76.495511 54.211188 75.989188 
C 54.717511 75.482866 55.002 74.796048 55.002 74.08 
C 55.002 73.363952 54.717511 72.677134 54.211188 72.170812 
C 53.704866 71.664489 53.018048 71.38 52.302 71.38 
C 51.585952 71.38 50.899134 71.664489 50.392812 72.170812 
C 49.886489 72.677134 49.602 73.363952 49.602 74.08 
C 49.602 74.796048 49.886489 75.482866 50.392812 75.989188 
C 50.899134 76.495511 51.585952 76.78 52.302 76.78 
z
" clip-path="url(#pa3ff9ce275)" style="fill: #ffffff; stroke: #000000; stroke-width: 1.35; stroke-linejoin: miter"/>
   </g>
   <g id="patch_5">
    <path d="M 52.302 134.38 
C 53.018048 134.38 53.704866 134.095511 54.211188 133.589188 
C 54.717511 133.082866 55.002 132.396048 55.002 131.68 
C 55.002 130.963952 54.717511 130.277134 54.211188 129.770812 
C 53.704866 129.264489 53.018048 128.98 52.302 128.98 
C 51.585952 128.98 50.899134 129.264489 50.392812 129.770812 
C 49.886489 130.277134 49.602 130.963952 49.602 131.68 
C 49.602 132.396048 49.886489 133.082866 50.392812 133.589188 
C 50.899134 134.095511 51.585952 134.38 52.302 134.38 
z
" clip-path="url(#pa3ff9ce275)" style="stroke: #000000; stroke-width: 1.35; stroke-linejoin: miter"/>
   </g>
   <g id="patch_6">
    <path d="M 314.924286 156.88 
C 315.640335 156.88 316.327152 156.595511 316.833475 156.089188 
C 317.339797 155.582866 317.624286 154.896048 317.624286 154.18 
C 317.624286 153.463952 317.339797 152.777134 316.833475 152.270812 
C 316.327152 151.764489 315.640335 151.48 314.924286 151.48 
C 314.208238 151.48 313.521421 151.764489 313.015098 152.270812 
C 312.508775 152.777134 312.224286 153.463952 312.224286 154.18 
C 312.224286 154.896048 312.508775 155.582866 313.015098 156.089188 
C 313.521421 156.595511 314.208238 156.88 314.924286 156.88 
z
" clip-path="url(#pa3ff9ce275)" style="fill: #ffffff; stroke: #000000; stroke-width: 1.35; stroke-linejoin: miter"/>
   </g>
  </g>
 </g>
 <defs>
  <clipPath id="pa3ff9ce275">
   <rect x="0" y="-0" width="429.668286" height="252.28"/>
  </clipPath>
 </defs>
</svg>
