<svg xmlns="http://www.w3.org/2000/svg" xmlns:xlink="http://www.w3.org/1999/xlink" xml:lang="en" height="287.64pt" width="247.33400000000003pt" viewBox="-135.52 -126.8 247.33400000000003 287.64" style="background-color:white;"><circle cx="-4.9598195365467806e-15" cy="81.0" r="18.0" style="stroke:black;fill:none;stroke-width:2.0;stroke-dasharray:-;" /><path d="M 0.0,54.0 L 0.0,39.0 L -24.0,39.0 L -24.0,14.999999999999998 L 0.0,14.999999999999998 L 0.0,-0.0" style="stroke:black;fill:none;stroke-width:2.0;stroke-dasharray:-;stroke-linecap:round;stroke-linejoin:round;" /><path d="M -29.999999999999996,39.0 L -29.999999999999996,14.999999999999998" style="stroke:black;fill:none;stroke-width:2.0;stroke-dasharray:-;stroke-linecap:round;stroke-linejoin:round;" /><path d="M -49.2,27.0 L -29.999999999999996,27.0" style="stroke:black;fill:none;stroke-width:2.0;stroke-dasharray:-;stroke-linecap:round;stroke-linejoin:round;" /><path d="M 0.0,-0.0 L 1.3226185430791415e-15,-21.599999999999998 L 2.645237086158283e-15,-43.199999999999996" style="stroke:black;fill:none;stroke-width:2.0;stroke-dasharray:-;stroke-linecap:round;stroke-linejoin:round;" /><path d="M -21.599999999999998,-43.199999999999996 L 0.0,-43.199999999999996 L 21.599999999999998,-43.199999999999996" style="stroke:black;fill:none;stroke-width:2.0;stroke-dasharray:-;stroke-linecap:round;stroke-linejoin:round;" /><path d="M -99.6,27.0 L -74.39999999999999,27.0 L -49.2,27.0" style="stroke:black;fill:none;stroke-width:2.0;stroke-dasharray:-;stroke-linecap:round;stroke-linejoin:round;" /><path d="M 0.0,54.0 L 23.400000000000002,54.0 L 46.800000000000004,54.0" style="stroke:black;fill:none;stroke-width:2.0;stroke-dasharray:-;stroke-linecap:round;stroke-linejoin:round;" /><path d="M 0.0,54.0 L -1.6532731788489267e-15,63.0 L -1.6532731788489267e-15,63.0 M -8.266365894244634e-15,99.0 L -8.266365894244634e-15,99.0 L -9.919639073093561e-15,108.0" style="stroke:black;fill:none;stroke-width:2.0;stroke-dasharray:-;stroke-linecap:round;stroke-linejoin:round;" /><path d="M -3.3065463576978533e-15,72.0 L -5.165782330686734e-15,81.0" style="stroke:black;fill:none;stroke-width:2.0;stroke-dasharray:-;stroke-linecap:round;stroke-linejoin:round;" /><path d="M -6.291468185460379e-15 88.0 L -2.7000000000000046 81.0 L 2.699999999999995 81.0 Z" style="stroke:black;fill:black;stroke-linecap:butt;stroke-linejoin:miter;" /><path d="M 0.0,108.0 L 0.0,122.39999999999999 L -9.0,122.39999999999999 L 9.0,122.39999999999999 M -6.3,126.72 L 6.3,126.72 M -1.8,131.04 L 1.8,131.04" style="stroke:black;fill:none;stroke-width:2.0;stroke-dasharray:-;stroke-linecap:round;stroke-linejoin:round;" /><text x="3.6" y="-71.4" dominant-baseline="central" fill="black" font-size="12" font-family="sans" text-anchor="middle"><tspan x="3.6" dy="12">12 V</tspan></text><text x="-98.88" y="10.68" dominant-baseline="central" fill="black" font-size="12" font-family="sans" text-anchor="end"><tspan x="-98.88" dy="12">1</tspan></text><text x="54.72" y="37.67999999999999" dominant-baseline="central" fill="black" font-size="12" font-family="sans" text-anchor="start"><tspan x="54.72" dy="12">1</tspan></text><text x="6.613092715395705e-16" y="38.4" dominant-baseline="ideographic" fill="black" font-size="12" font-family="sans" text-anchor="middle"><tspan x="6.613092715395705e-16" dy="12">10.78 mA</tspan></text><text x="3.5999999999999996" y="-104.0" dominant-baseline="central" fill="black" font-size="14" font-family="sans" text-anchor="middle"><tspan x="3.5999999999999996" dy="14">MOSFET Common-Drain</tspan></text><circle cx="0.0" cy="-43.199999999999996" r="2.6999999999999997" style="stroke:black;fill:black;stroke-width:2.0;stroke-dasharray:-;" /><circle cx="0.0" cy="54.0" r="2.6999999999999997" style="stroke:black;fill:black;stroke-width:2.0;stroke-dasharray:-;" /></svg>