<svg xmlns="http://www.w3.org/2000/svg" xmlns:xlink="http://www.w3.org/1999/xlink" xml:lang="en" height="221.0pt" width="208.52599999999998pt" viewBox="-87.226 -142.96 208.52599999999998 221.0" style="background-color:white;"><circle cx="19.8" cy="-0.0" r="19.8" style="stroke:black;fill:none;stroke-width:2.0;stroke-dasharray:-;" /><path d="M 0.0,-0.0 L 13.2,-0.0" style="stroke:black;fill:none;stroke-width:2.0;stroke-dasharray:-;stroke-linecap:round;stroke-linejoin:round;" /><path d="M 13.2,-13.2 L 13.2,13.2" style="stroke:black;fill:none;stroke-width:2.0;stroke-dasharray:-;stroke-linecap:round;stroke-linejoin:round;" /><path d="M 13.2,-6.6 L 27.06,-18.48 L 27.06,-25.08" style="stroke:black;fill:none;stroke-width:2.0;stroke-dasharray:-;stroke-linecap:round;stroke-linejoin:round;" /><path d="M 13.2,6.6 L 27.06,18.48 L 27.06,25.08" style="stroke:black;fill:none;stroke-width:2.0;stroke-dasharray:-;stroke-linecap:round;stroke-linejoin:round;" /><path d="M 13.2,6.6 L 20.22669057871233,12.622877638896282" style="stroke:black;fill:none;stroke-width:2.0;stroke-dasharray:-;stroke-linecap:round;stroke-linejoin:round;" /><path d="M 25.541486795269407 17.178417253088064 L 17.88384163427084 15.356201407411351 L 22.569539523153814 9.889553870381217 Z" style="stroke:black;fill:black;stroke-linecap:butt;stroke-linejoin:miter;" /><path d="M -43.199999999999996,-0.0 L -21.599999999999998,-0.0 L 0.0,-0.0" style="stroke:black;fill:none;stroke-width:2.0;stroke-dasharray:-;stroke-linecap:round;stroke-linejoin:round;" /><path d="M -43.199999999999996,-0.0 L -43.199999999999996,12.6 L -43.2,25.2" style="stroke:black;fill:none;stroke-width:2.0;stroke-dasharray:-;stroke-linecap:round;stroke-linejoin:round;" /><path d="M -43.2,25.2 L -43.2,39.6 L -52.2,39.6 L -34.2,39.6 M -49.50000000000001,43.92 L -36.900000000000006,43.92 M -45.00000000000001,48.239999999999995 L -41.400000000000006,48.239999999999995" style="stroke:black;fill:none;stroke-width:2.0;stroke-dasharray:-;stroke-linecap:round;stroke-linejoin:round;" /><path d="M 27.06,-25.08 L 27.06,-25.98 L 27.06,-26.880000000000003" style="stroke:black;fill:none;stroke-width:2.0;stroke-dasharray:-;stroke-linecap:round;stroke-linejoin:round;" /><path d="M 27.06,-26.880000000000003 L 51.36,-26.880000000000003 L 75.66,-26.880000000000003" style="stroke:black;fill:none;stroke-width:2.0;stroke-dasharray:-;stroke-linecap:round;stroke-linejoin:round;" /><path d="M 27.06,-26.880000000000003 L 27.06,-40.379999999999995 L 18.06,-43.38 L 36.06,-49.379999999999995 L 18.060000000000002,-55.38 L 36.06,-61.38 L 18.060000000000002,-67.38 L 36.06,-73.38 L 27.060000000000002,-76.38 L 27.060000000000002,-89.88" style="stroke:black;fill:none;stroke-width:2.0;stroke-dasharray:-;stroke-linecap:round;stroke-linejoin:round;" /><path d="M 7.259999999999996,-89.88 L 27.06,-89.88 L 46.86,-89.88" style="stroke:black;fill:none;stroke-width:2.0;stroke-dasharray:-;stroke-linecap:round;stroke-linejoin:round;" /><path d="M 27.06,25.08 L 27.06,26.879999999999995 L 27.06,28.68" style="stroke:black;fill:none;stroke-width:2.0;stroke-dasharray:-;stroke-linecap:round;stroke-linejoin:round;" /><path d="M -23.34,28.68 L 1.859999999999999,28.68 L 27.06,28.68" style="stroke:black;fill:none;stroke-width:2.0;stroke-dasharray:-;stroke-linecap:round;stroke-linejoin:round;" /><text x="84.66" y="-43.2" dominant-baseline="central" fill="black" font-size="12" font-family="sans" text-anchor="start"><tspan x="84.66" dy="12">1</tspan></text><text x="27.06" y="-35.28" dominant-baseline="hanging" fill="black" font-size="12" font-family="sans" text-anchor="middle"><tspan x="27.06" dy="12">1</tspan></text><text x="30.659999999999997" y="-119.16" dominant-baseline="central" fill="black" font-size="12" font-family="sans" text-anchor="middle"><tspan x="30.659999999999997" dy="12">1</tspan></text><text x="-24.06" y="12.36" dominant-baseline="central" fill="black" font-size="12" font-family="sans" text-anchor="end"><tspan x="-24.06" dy="12">1</tspan></text><text x="-5.3999999999999995" y="-30.0" dominant-baseline="central" fill="black" font-size="12" font-family="sans" text-anchor="middle"><tspan x="-5.3999999999999995" dy="12">B</tspan></text><text x="37.86" y="-47.160000000000004" dominant-baseline="central" fill="black" font-size="12" font-family="sans" text-anchor="middle"><tspan x="37.86" dy="12">C</tspan></text><text x="37.14" y="11.280000000000001" dominant-baseline="central" fill="black" font-size="12" font-family="sans" text-anchor="middle"><tspan x="37.14" dy="12">E</tspan></text><text x="3.6" y="-114.80000000000001" dominant-baseline="central" fill="black" font-size="14" font-family="sans" text-anchor="middle"><tspan x="3.6" dy="14">BJT Common-Base</tspan></text><circle cx="27.06" cy="-26.880000000000003" r="2.6999999999999997" style="stroke:black;fill:black;stroke-width:2.0;stroke-dasharray:-;" /><circle cx="75.66" cy="-26.880000000000003" r="2.6999999999999997" style="stroke:black;fill:white;stroke-width:2.0;stroke-dasharray:-;" /><circle cx="27.06" cy="-89.88" r="2.6999999999999997" style="stroke:black;fill:black;stroke-width:2.0;stroke-dasharray:-;" /><circle cx="-23.34" cy="28.68" r="2.6999999999999997" style="stroke:black;fill:white;stroke-width:2.0;stroke-dasharray:-;" /></svg>