<svg xmlns="http://www.w3.org/2000/svg" xmlns:xlink="http://www.w3.org/1999/xlink" xml:lang="en" height="295.44pt" width="260.86400000000003pt" viewBox="-142.64800000000002 -138.20000000000002 260.86400000000003 295.44" style="background-color:white;"><circle cx="7.199999999999996" cy="79.2" r="18.0" style="stroke:black;fill:none;stroke-width:2.0;stroke-dasharray:-;" /><path d="M 7.2,54.0 L 7.2,39.0 L -16.799999999999997,39.0 L -16.799999999999997,14.999999999999998 L 7.2,14.999999999999998 L 7.2,-0.0" style="stroke:black;fill:none;stroke-width:2.0;stroke-dasharray:-;stroke-linecap:round;stroke-linejoin:round;" /><path d="M -22.799999999999997,39.0 L -22.799999999999997,14.999999999999998" style="stroke:black;fill:none;stroke-width:2.0;stroke-dasharray:-;stroke-linecap:round;stroke-linejoin:round;" /><path d="M -42.0,27.0 L -22.799999999999997,27.0" style="stroke:black;fill:none;stroke-width:2.0;stroke-dasharray:-;stroke-linecap:round;stroke-linejoin:round;" /><path d="M 7.2,-0.0 L 28.8,-0.0 L 50.4,-0.0" style="stroke:black;fill:none;stroke-width:2.0;stroke-dasharray:-;stroke-linecap:round;stroke-linejoin:round;" /><path d="M 7.2,-0.0 L 7.200000000000001,-10.8 L -1.7999999999999985,-13.8 L 16.200000000000003,-19.8 L -1.7999999999999976,-25.8 L 16.200000000000003,-31.799999999999997 L -1.7999999999999976,-37.800000000000004 L 16.200000000000003,-43.800000000000004 L 7.200000000000004,-46.800000000000004 L 7.200000000000005,-57.6" style="stroke:black;fill:none;stroke-width:2.0;stroke-dasharray:-;stroke-linecap:round;stroke-linejoin:round;" /><path d="M -12.600000000000001,-57.6 L 7.2,-57.6 L 27.0,-57.6" style="stroke:black;fill:none;stroke-width:2.0;stroke-dasharray:-;stroke-linecap:round;stroke-linejoin:round;" /><path d="M -96.00000000000001,27.0 L -72.24000000000001,27.0 M -72.24000000000001,18.0 L -72.24000000000001,36.0 M -65.76,18.0 L -65.76,36.0 M -65.76,27.0 L -42.0,27.0" style="stroke:black;fill:none;stroke-width:2.0;stroke-dasharray:-;stroke-linecap:round;stroke-linejoin:round;" /><path d="M 7.2,54.0 L 7.199999999999999,61.199999999999996 L 7.199999999999999,61.199999999999996 M 7.199999999999992,97.2 L 7.199999999999992,97.2 L 7.199999999999991,104.39999999999999" style="stroke:black;fill:none;stroke-width:2.0;stroke-dasharray:-;stroke-linecap:round;stroke-linejoin:round;" /><path d="M -1.8000000000000036,79.2 L -1.0500000000000043,81.06349712473815 L -0.30000000000000493,82.8 L 0.4499999999999944,84.29116882454313 L 1.1999999999999937,85.43538290724797 L 1.949999999999994,86.15466594928128 L 2.6999999999999944,86.39999999999999 L 3.449999999999994,86.15466594928128 L 4.199999999999994,85.43538290724797 L 4.949999999999994,84.29116882454313 L 5.699999999999995,82.8 L 6.449999999999995,81.06349712473815 L 7.199999999999996,79.2 L 7.949999999999996,77.33650287526186 L 8.699999999999996,75.60000000000001 L 9.449999999999996,74.10883117545686 L 10.199999999999996,72.96461709275205 L 10.949999999999996,72.24533405071871 L 11.699999999999996,72.0 L 12.449999999999996,72.24533405071871 L 13.199999999999998,72.96461709275204 L 13.949999999999996,74.10883117545686 L 14.699999999999996,75.6 L 15.449999999999996,77.33650287526184 L 16.199999999999996,79.2" style="stroke:black;fill:none;stroke-width:2.0;stroke-dasharray:-;stroke-linecap:round;stroke-linejoin:round;" /><path d="M 7.2,104.39999999999999 L 7.2,118.8 L -1.7999999999999996,118.8 L 16.2,118.8 M 0.9000000000000008,123.12 L 13.5,123.12 M 5.4,127.44 L 9.0,127.44" style="stroke:black;fill:none;stroke-width:2.0;stroke-dasharray:-;stroke-linecap:round;stroke-linejoin:round;" /><text x="58.32000000000001" y="-16.32" dominant-baseline="central" fill="black" font-size="12" font-family="sans" text-anchor="start"><tspan x="58.32000000000001" dy="12">1</tspan></text><text x="7.200000000000005" y="-73.2" dominant-baseline="ideographic" fill="black" font-size="12" font-family="sans" text-anchor="middle"><tspan x="7.200000000000005" dy="12">5.926 kohm</tspan></text><text x="10.8" y="-85.80000000000001" dominant-baseline="central" fill="black" font-size="12" font-family="sans" text-anchor="middle"><tspan x="10.8" dy="12">15 V</tspan></text><text x="-69.00000000000001" y="2.4000000000000004" dominant-baseline="ideographic" fill="black" font-size="12" font-family="sans" text-anchor="middle"><tspan x="-69.00000000000001" dy="12">C</tspan></text><text x="-96.72000000000001" y="10.68" dominant-baseline="central" fill="black" font-size="12" font-family="sans" text-anchor="end"><tspan x="-96.72000000000001" dy="12">VB</tspan></text><text x="7.200000000000001" y="38.4" dominant-baseline="ideographic" fill="black" font-size="12" font-family="sans" text-anchor="middle"><tspan x="7.200000000000001" dy="12">1</tspan></text><text x="10.799999999999999" y="-115.4" dominant-baseline="central" fill="black" font-size="14" font-family="sans" text-anchor="middle"><tspan x="10.799999999999999" dy="14">MOSFET Common-Gate</tspan></text><circle cx="7.2" cy="-0.0" r="2.6999999999999997" style="stroke:black;fill:black;stroke-width:2.0;stroke-dasharray:-;" /><circle cx="50.4" cy="-0.0" r="2.6999999999999997" style="stroke:black;fill:white;stroke-width:2.0;stroke-dasharray:-;" /><circle cx="-96.00000000000001" cy="27.0" r="2.6999999999999997" style="stroke:black;fill:white;stroke-width:2.0;stroke-dasharray:-;" /></svg>