<svg xmlns="http://www.w3.org/2000/svg" xmlns:xlink="http://www.w3.org/1999/xlink" xml:lang="en" height="309.36pt" width="246.50000000000003pt" viewBox="-91.36 -163.28 246.50000000000003 309.36" style="background-color:white;"><circle cx="30.6" cy="10.799999999999999" r="19.8" style="stroke:black;fill:none;stroke-width:2.0;stroke-dasharray:-;" /><path d="M 10.799999999999999,10.799999999999999 L 24.0,10.799999999999999" style="stroke:black;fill:none;stroke-width:2.0;stroke-dasharray:-;stroke-linecap:round;stroke-linejoin:round;" /><path d="M 24.0,-2.3999999999999995 L 24.0,24.0" style="stroke:black;fill:none;stroke-width:2.0;stroke-dasharray:-;stroke-linecap:round;stroke-linejoin:round;" /><path d="M 24.0,4.2 L 37.85999999999999,-7.68 L 37.85999999999999,-14.28" style="stroke:black;fill:none;stroke-width:2.0;stroke-dasharray:-;stroke-linecap:round;stroke-linejoin:round;" /><path d="M 24.0,17.4 L 37.85999999999999,29.279999999999998 L 37.85999999999999,35.879999999999995" style="stroke:black;fill:none;stroke-width:2.0;stroke-dasharray:-;stroke-linecap:round;stroke-linejoin:round;" /><path d="M 24.0,17.4 L 31.026690578712326,23.422877638896278" style="stroke:black;fill:none;stroke-width:2.0;stroke-dasharray:-;stroke-linecap:round;stroke-linejoin:round;" /><path d="M 36.3414867952694 27.97841725308806 L 28.683841634270838 26.156201407411345 L 33.36953952315381 20.68955387038121 Z" style="stroke:black;fill:black;stroke-linecap:butt;stroke-linejoin:miter;" /><path d="M 9.0,10.799999999999999 L 9.000000000000002,-17.939999999999994 L 1.9984014443252818e-15,-20.939999999999998 L 18.0,-26.93999999999999 L 2.9976021664879227e-15,-32.93999999999999 L 18.000000000000004,-38.93999999999999 L 2.9976021664879227e-15,-44.93999999999999 L 18.000000000000004,-50.93999999999999 L 9.000000000000004,-53.93999999999999 L 9.000000000000005,-82.67999999999999" style="stroke:black;fill:none;stroke-width:2.0;stroke-dasharray:-;stroke-linecap:round;stroke-linejoin:round;" /><path d="M 9.0,10.799999999999999 L 8.999999999999995,37.74000000000001 L 17.999999999999993,40.74000000000001 L -5.995204332975845e-15,46.74000000000001 L 17.999999999999993,52.74 L -7.993605777301127e-15,58.74000000000001 L 17.99999999999999,64.74000000000001 L -1.199040866595169e-14,70.74000000000001 L 8.999999999999988,73.74 L 8.999999999999982,100.68" style="stroke:black;fill:none;stroke-width:2.0;stroke-dasharray:-;stroke-linecap:round;stroke-linejoin:round;" /><path d="M 9.0,-82.67999999999999 L 54.029999999999994,-82.67999999999999 L 99.05999999999999,-82.67999999999999" style="stroke:black;fill:none;stroke-width:2.0;stroke-dasharray:-;stroke-linecap:round;stroke-linejoin:round;" /><path d="M 9.0,100.68 L 54.029999999999994,100.68 L 99.05999999999999,100.68" style="stroke:black;fill:none;stroke-width:2.0;stroke-dasharray:-;stroke-linecap:round;stroke-linejoin:round;" /><path d="M -54.0,10.799999999999999 L -25.74,10.799999999999999 M -25.74,1.7999999999999996 L -25.74,19.8 M -19.259999999999998,1.7999999999999996 L -19.259999999999998,19.8 M -19.259999999999998,10.799999999999999 L 9.0,10.799999999999999" style="stroke:black;fill:none;stroke-width:2.0;stroke-dasharray:-;stroke-linecap:round;stroke-linejoin:round;" /><path d="M 37.85999999999999,-16.08 L 37.85999999999999,-31.379999999999992 L 28.859999999999996,-34.379999999999995 L 46.85999999999999,-40.379999999999995 L 28.859999999999996,-46.379999999999995 L 46.85999999999999,-52.37999999999999 L 28.86,-58.379999999999995 L 46.85999999999999,-64.38 L 37.85999999999999,-67.38 L 37.86,-82.67999999999999" style="stroke:black;fill:none;stroke-width:2.0;stroke-dasharray:-;stroke-linecap:round;stroke-linejoin:round;" /><path d="M 37.85999999999999,-16.08 L 59.82,-16.08 M 59.82,-25.08 L 59.82,-7.08 M 66.3,-25.08 L 66.3,-7.08 M 66.3,-16.08 L 88.26,-16.08" style="stroke:black;fill:none;stroke-width:2.0;stroke-dasharray:-;stroke-linecap:round;stroke-linejoin:round;" /><path d="M 88.26,-16.08 L 99.06,-16.08 L 109.86,-16.08" style="stroke:black;fill:none;stroke-width:2.0;stroke-dasharray:-;stroke-linecap:round;stroke-linejoin:round;" /><path d="M 37.85999999999999,37.68 L 37.85999999999999,51.18000000000001 L 46.85999999999999,54.18000000000001 L 28.859999999999992,60.18000000000001 L 46.859999999999985,66.18 L 28.859999999999985,72.17999999999999 L 46.859999999999985,78.18 L 28.859999999999985,84.18 L 37.859999999999985,87.18 L 37.859999999999985,100.68" style="stroke:black;fill:none;stroke-width:2.0;stroke-dasharray:-;stroke-linecap:round;stroke-linejoin:round;" /><text x="9.0" y="2.3999999999999986" dominant-baseline="hanging" fill="black" font-size="12" font-family="sans" text-anchor="middle"><tspan x="9.0" dy="12">R1</tspan></text><text x="8.999999999999982" y="92.28000000000002" dominant-baseline="hanging" fill="black" font-size="12" font-family="sans" text-anchor="middle"><tspan x="8.999999999999982" dy="12">R2</tspan></text><text x="68.46" y="-110.88" dominant-baseline="central" fill="black" font-size="12" font-family="sans" text-anchor="middle"><tspan x="68.46" dy="12">9 V</tspan></text><text x="-22.5" y="-13.799999999999999" dominant-baseline="ideographic" fill="black" font-size="12" font-family="sans" text-anchor="middle"><tspan x="-22.5" dy="12">C1</tspan></text><text x="-54.72" y="-5.520000000000001" dominant-baseline="central" fill="black" font-size="12" font-family="sans" text-anchor="end"><tspan x="-54.72" dy="12">1</tspan></text><text x="37.86" y="-98.28" dominant-baseline="ideographic" fill="black" font-size="12" font-family="sans" text-anchor="middle"><tspan x="37.86" dy="12">6.675 kohm</tspan></text><text x="63.059999999999995" y="-40.68" dominant-baseline="ideographic" fill="black" font-size="12" font-family="sans" text-anchor="middle"><tspan x="63.059999999999995" dy="12">C2</tspan></text><text x="118.50000000000001" y="-32.4" dominant-baseline="central" fill="black" font-size="12" font-family="sans" text-anchor="start"><tspan x="118.50000000000001" dy="12">1</tspan></text><text x="37.85999999999999" y="22.08" dominant-baseline="ideographic" fill="black" font-size="12" font-family="sans" text-anchor="middle"><tspan x="37.85999999999999" dy="12">1.387 kohm</tspan></text><text x="14.399999999999999" y="-140.48" dominant-baseline="central" fill="black" font-size="14" font-family="sans" text-anchor="middle"><tspan x="14.399999999999999" dy="14">BJT Common-Emitter</tspan></text><circle cx="9.0" cy="10.799999999999999" r="2.6999999999999997" style="stroke:black;fill:black;stroke-width:2.0;stroke-dasharray:-;" /><circle cx="59.459999999999994" cy="-82.67999999999999" r="2.6999999999999997" style="stroke:black;fill:black;stroke-width:2.0;stroke-dasharray:-;" /><circle cx="9.0" cy="100.68" r="2.6999999999999997" style="stroke:black;fill:black;stroke-width:2.0;stroke-dasharray:-;" /><circle cx="66.66" cy="100.68" r="2.6999999999999997" style="stroke:black;fill:black;stroke-width:2.0;stroke-dasharray:-;" /><circle cx="-54.0" cy="10.799999999999999" r="2.6999999999999997" style="stroke:black;fill:white;stroke-width:2.0;stroke-dasharray:-;" /><circle cx="37.85999999999999" cy="-16.08" r="2.6999999999999997" style="stroke:black;fill:black;stroke-width:2.0;stroke-dasharray:-;" /><circle cx="109.86" cy="-16.08" r="2.6999999999999997" style="stroke:black;fill:white;stroke-width:2.0;stroke-dasharray:-;" /><circle cx="37.85999999999999" cy="37.68" r="2.6999999999999997" style="stroke:black;fill:black;stroke-width:2.0;stroke-dasharray:-;" /></svg>