<svg xmlns="http://www.w3.org/2000/svg" xmlns:xlink="http://www.w3.org/1999/xlink" xml:lang="en" height="330.84pt" width="594.242pt" viewBox="-110.80000000000001 -205.99999999999997 594.242 330.84" style="background-color:white;"><circle cx="28.800000000000004" cy="-54.0" r="18.0" style="stroke:black;fill:none;stroke-width:2.0;stroke-dasharray:-;" /><polygon points="81.0,29.7 71.99999999999999,42.3 62.99999999999999,29.7 " style="stroke:black;fill:none;stroke-width:2.0;stroke-dasharray:-;stroke-linecap:round;stroke-linejoin:round;" /><path d="M 28.8,-18.0 L 28.8,-36.0 L 28.8,-36.0 M 28.800000000000004,-72.0 L 28.800000000000004,-72.0 L 28.800000000000004,-90.0" style="stroke:black;fill:none;stroke-width:2.0;stroke-dasharray:-;stroke-linecap:round;stroke-linejoin:round;" /><path d="M 37.800000000000004,-54.0 L 37.050000000000004,-55.86349712473816 L 36.300000000000004,-57.6 L 35.550000000000004,-59.091168824543146 L 34.800000000000004,-60.23538290724795 L 34.050000000000004,-60.95466594928129 L 33.300000000000004,-61.199999999999996 L 32.550000000000004,-60.9546659492813 L 31.800000000000004,-60.23538290724795 L 31.050000000000004,-59.09116882454314 L 30.300000000000004,-57.6 L 29.550000000000004,-55.863497124738146 L 28.800000000000004,-54.0 L 28.050000000000004,-52.136502875261854 L 27.300000000000008,-50.400000000000006 L 26.55,-48.908831175456854 L 25.800000000000004,-47.76461709275205 L 25.050000000000008,-47.04533405071871 L 24.3,-46.800000000000004 L 23.550000000000004,-47.0453340507187 L 22.800000000000008,-47.76461709275205 L 22.05,-48.908831175456854 L 21.300000000000004,-50.4 L 20.550000000000008,-52.136502875261854 L 19.8,-54.0" style="stroke:black;fill:none;stroke-width:2.0;stroke-dasharray:-;stroke-linecap:round;stroke-linejoin:round;" /><path d="M 28.800000000000004,-90.0 L 61.56000000000001,-90.0 M 61.56000000000001,-99.0 L 61.56000000000001,-81.0 M 68.04,-99.0 L 68.04,-81.0 M 68.04,-90.0 L 100.80000000000001,-90.0" style="stroke:black;fill:none;stroke-width:2.0;stroke-dasharray:-;stroke-linecap:round;stroke-linejoin:round;" /><path d="M 100.80000000000001,-90.0 L 100.80000000000001,-72.0 L 109.80000000000001,-69.0 L 91.80000000000001,-63.0 L 109.80000000000001,-57.00000000000001 L 91.8,-51.0 L 109.8,-45.0 L 91.8,-39.00000000000001 L 100.8,-36.0 L 100.8,-18.0" style="stroke:black;fill:none;stroke-width:2.0;stroke-dasharray:-;stroke-linecap:round;stroke-linejoin:round;" /><path d="M 100.8,-18.0 L 100.8,-3.599999999999999 L 91.8,-3.599999999999999 L 109.8,-3.599999999999999 M 94.5,0.7200000000000006 L 107.1,0.7200000000000006 M 99.0,5.040000000000001 L 102.6,5.040000000000001" style="stroke:black;fill:none;stroke-width:2.0;stroke-dasharray:-;stroke-linecap:round;stroke-linejoin:round;" /><path d="M 72.0,-0.0 L 71.99999999999999,29.7 M 81.0,42.3 L 62.99999999999999,42.3 M 71.99999999999999,42.3 L 71.99999999999999,71.99999999999999" style="stroke:black;fill:none;stroke-width:2.0;stroke-dasharray:-;stroke-linecap:round;stroke-linejoin:round;" /><path d="M 71.99999999999999,71.99999999999999 L 71.99999999999999,86.39999999999999 L 62.999999999999986,86.39999999999999 L 80.99999999999999,86.39999999999999 M 65.69999999999999,90.71999999999998 L 78.29999999999998,90.71999999999998 M 70.19999999999999,95.03999999999999 L 73.79999999999998,95.03999999999999" style="stroke:black;fill:none;stroke-width:2.0;stroke-dasharray:-;stroke-linecap:round;stroke-linejoin:round;" /><path d="M 0.0,-0.0 L -36.0,-4.408728476930472e-15 L -72.0,-8.817456953860943e-15" style="stroke:black;fill:none;stroke-width:2.0;stroke-dasharray:-;stroke-linecap:round;stroke-linejoin:round;" /><path d="M -72.0,-8.817456953860943e-15 L -72.0,14.399999999999993 L -81.0,14.399999999999993 L -63.0,14.399999999999993 M -78.3,18.71999999999999 L -65.7,18.71999999999999 M -73.8,23.039999999999992 L -70.2,23.039999999999992" style="stroke:black;fill:none;stroke-width:2.0;stroke-dasharray:-;stroke-linecap:round;stroke-linejoin:round;" /><text x="72.0" y="-15.6" dominant-baseline="ideographic" fill="black" font-size="12" font-family="sans" text-anchor="middle"><tspan x="72.0" dy="12">D</tspan></text><text x="133.2" y="-183.20000000000002" dominant-baseline="central" fill="black" font-size="14" font-family="sans" text-anchor="middle"><tspan x="133.2" dy="14">Clamper</tspan></text><text x="306.0" y="-166.8" dominant-baseline="central" fill="black" font-size="12" font-family="sans" text-anchor="start"><tspan x="306.0" dy="12">Inputs</tspan></text><text x="306.0" y="-153.56" dominant-baseline="central" fill="black" font-size="11" font-family="sans" text-anchor="start"><tspan x="306.0" dy="11">input peak voltage: 0.2845 V</tspan></text><text x="306.0" y="-141.32000000000002" dominant-baseline="central" fill="black" font-size="11" font-family="sans" text-anchor="start"><tspan x="306.0" dy="11">diode drop: -0.1181</tspan></text><text x="306.0" y="-129.08000000000004" dominant-baseline="central" fill="black" font-size="11" font-family="sans" text-anchor="start"><tspan x="306.0" dy="11">load resistance: 4.861</tspan></text><text x="306.0" y="-116.84000000000003" dominant-baseline="central" fill="black" font-size="11" font-family="sans" text-anchor="start"><tspan x="306.0" dy="11">capacitance: -2.53 F</tspan></text><text x="306.0" y="-104.60000000000004" dominant-baseline="central" fill="black" font-size="11" font-family="sans" text-anchor="start"><tspan x="306.0" dy="11">frequency: 3.528 Hz</tspan></text><text x="306.0" y="-92.36000000000004" dominant-baseline="central" fill="black" font-size="11" font-family="sans" text-anchor="start"><tspan x="306.0" dy="11">clamper type: -0.1181</tspan></text><text x="306.0" y="-102.0" dominant-baseline="central" fill="black" font-size="12" font-family="sans" text-anchor="start"><tspan x="306.0" dy="12">Predicted Outputs</tspan></text><text x="306.0" y="-88.76" dominant-baseline="central" fill="black" font-size="11" font-family="sans" text-anchor="start"><tspan x="306.0" dy="11">output peak voltage: 0.4312 V</tspan></text><circle cx="100.80000000000001" cy="-90.0" r="2.6999999999999997" style="stroke:black;fill:black;stroke-width:2.0;stroke-dasharray:-;" /></svg>