<svg xmlns="http://www.w3.org/2000/svg" xmlns:xlink="http://www.w3.org/1999/xlink" xml:lang="en" height="292.68pt" width="214.844pt" viewBox="-98.944 -153.56000000000003 214.844 292.68" style="background-color:white;"><circle cx="19.8" cy="-0.0" r="19.8" style="stroke:black;fill:none;stroke-width:2.0;stroke-dasharray:-;" /><path d="M 0.0,-0.0 L 13.2,-0.0" style="stroke:black;fill:none;stroke-width:2.0;stroke-dasharray:-;stroke-linecap:round;stroke-linejoin:round;" /><path d="M 13.2,-13.2 L 13.2,13.2" style="stroke:black;fill:none;stroke-width:2.0;stroke-dasharray:-;stroke-linecap:round;stroke-linejoin:round;" /><path d="M 13.2,-6.6 L 27.06,-18.48 L 27.06,-25.08" style="stroke:black;fill:none;stroke-width:2.0;stroke-dasharray:-;stroke-linecap:round;stroke-linejoin:round;" /><path d="M 13.2,6.6 L 27.06,18.48 L 27.06,25.08" style="stroke:black;fill:none;stroke-width:2.0;stroke-dasharray:-;stroke-linecap:round;stroke-linejoin:round;" /><path d="M 13.2,6.6 L 20.22669057871233,12.622877638896282" style="stroke:black;fill:none;stroke-width:2.0;stroke-dasharray:-;stroke-linecap:round;stroke-linejoin:round;" /><path d="M 25.541486795269407 17.178417253088064 L 17.88384163427084 15.356201407411351 L 22.569539523153814 9.889553870381217 Z" style="stroke:black;fill:black;stroke-linecap:butt;stroke-linejoin:miter;" /><path d="M 27.06,-25.08 L 27.06,-48.480000000000004 L 27.060000000000002,-71.88" style="stroke:black;fill:none;stroke-width:2.0;stroke-dasharray:-;stroke-linecap:round;stroke-linejoin:round;" /><path d="M 7.259999999999996,-71.88 L 27.06,-71.88 L 46.86,-71.88" style="stroke:black;fill:none;stroke-width:2.0;stroke-dasharray:-;stroke-linecap:round;stroke-linejoin:round;" /><path d="M -52.199999999999996,-0.0 L -26.099999999999998,-0.0 L 0.0,-0.0" style="stroke:black;fill:none;stroke-width:2.0;stroke-dasharray:-;stroke-linecap:round;stroke-linejoin:round;" /><path d="M 27.06,25.08 L 27.06,25.98 L 27.06,26.880000000000003" style="stroke:black;fill:none;stroke-width:2.0;stroke-dasharray:-;stroke-linecap:round;stroke-linejoin:round;" /><path d="M 27.06,26.880000000000003 L 48.66,26.880000000000003 L 70.26,26.880000000000003" style="stroke:black;fill:none;stroke-width:2.0;stroke-dasharray:-;stroke-linecap:round;stroke-linejoin:round;" /><path d="M 27.06,26.880000000000003 L 27.059999999999995,38.580000000000005 L 36.059999999999995,41.58 L 18.059999999999995,47.580000000000005 L 36.059999999999995,53.58 L 18.059999999999995,59.57999999999999 L 36.059999999999995,65.58 L 18.059999999999988,71.58 L 27.059999999999988,74.58 L 27.059999999999985,86.28" style="stroke:black;fill:none;stroke-width:2.0;stroke-dasharray:-;stroke-linecap:round;stroke-linejoin:round;" /><path d="M 27.06,86.28 L 27.06,100.67999999999999 L 18.06,100.67999999999999 L 36.059999999999995,100.67999999999999 M 20.759999999999998,105.0 L 33.35999999999999,105.0 M 25.259999999999994,109.32 L 28.86,109.32" style="stroke:black;fill:none;stroke-width:2.0;stroke-dasharray:-;stroke-linecap:round;stroke-linejoin:round;" /><text x="30.659999999999997" y="-101.16" dominant-baseline="central" fill="black" font-size="12" font-family="sans" text-anchor="middle"><tspan x="30.659999999999997" dy="12">1</tspan></text><text x="-52.91999999999999" y="-16.32" dominant-baseline="central" fill="black" font-size="12" font-family="sans" text-anchor="end"><tspan x="-52.91999999999999" dy="12">1</tspan></text><text x="79.26" y="10.560000000000002" dominant-baseline="central" fill="black" font-size="12" font-family="sans" text-anchor="start"><tspan x="79.26" dy="12">1</tspan></text><text x="27.06" y="11.280000000000001" dominant-baseline="ideographic" fill="black" font-size="12" font-family="sans" text-anchor="middle"><tspan x="27.06" dy="12">1</tspan></text><text x="-5.4" y="-22.799999999999997" dominant-baseline="central" fill="black" font-size="12" font-family="sans" text-anchor="middle"><tspan x="-5.4" dy="12">B</tspan></text><text x="37.86" y="-39.96" dominant-baseline="central" fill="black" font-size="12" font-family="sans" text-anchor="middle"><tspan x="37.86" dy="12">C</tspan></text><text x="37.14" y="18.48" dominant-baseline="central" fill="black" font-size="12" font-family="sans" text-anchor="middle"><tspan x="37.14" dy="12">E</tspan></text><text x="3.5999999999999996" y="-130.76" dominant-baseline="central" fill="black" font-size="14" font-family="sans" text-anchor="middle"><tspan x="3.5999999999999996" dy="14">BJT Common-Collector</tspan></text><circle cx="27.06" cy="-71.88" r="2.6999999999999997" style="stroke:black;fill:black;stroke-width:2.0;stroke-dasharray:-;" /><circle cx="-52.199999999999996" cy="-0.0" r="2.6999999999999997" style="stroke:black;fill:white;stroke-width:2.0;stroke-dasharray:-;" /><circle cx="27.06" cy="26.880000000000003" r="2.6999999999999997" style="stroke:black;fill:black;stroke-width:2.0;stroke-dasharray:-;" /><circle cx="70.26" cy="26.880000000000003" r="2.6999999999999997" style="stroke:black;fill:white;stroke-width:2.0;stroke-dasharray:-;" /></svg>