<?xml version="1.0" encoding="utf-8" standalone="no"?>
<!DOCTYPE svg PUBLIC "-//W3C//DTD SVG 1.1//EN"
  "http://www.w3.org/Graphics/SVG/1.1/DTD/svg11.dtd">
<svg xmlns:xlink="http://www.w3.org/1999/xlink" width="533.090286pt" height="239.1pt" viewBox="0 0 533.090286 239.1" xmlns="http://www.w3.org/2000/svg" version="1.1">
 <metadata>
  <rdf:RDF xmlns:dc="http://purl.org/dc/elements/1.1/" xmlns:cc="http://creativecommons.org/ns#" xmlns:rdf="http://www.w3.org/1999/02/22-rdf-syntax-ns#">
   <cc:Work>
    <dc:type rdf:resource="http://purl.org/dc/dcmitype/StillImage"/>
    <dc:date>2026-03-25T06:28:27.637493</dc:date>
    <dc:format>image/svg+xml</dc:format>
    <dc:creator>
     <cc:Agent>
      <dc:title>Matplotlib v3.10.8, https://matplotlib.org/</dc:title>
     </cc:Agent>
    </dc:creator>
   </cc:Work>
  </rdf:RDF>
 </metadata>
 <defs>
  <style type="text/css">*{stroke-linejoin: round; stroke-linecap: butt}</style>
 </defs>
 <g id="figure_1">
  <g id="patch_1">
   <path d="M 0 239.1 
L 533.090286 239.1 
L 533.090286 0 
L 0 0 
z
" style="fill: #ffffff"/>
  </g>
  <g id="axes_1">
   <g id="patch_2">
    <path d="M 174.456 120.48 
L 187.056 129.48 
L 174.456 138.48 
L 174.456 120.48 
z
" clip-path="url(#pb0b1f8bc68)" style="fill: none; stroke: #000000; stroke-width: 2; stroke-linecap: round"/>
   </g>
   <g id="line2d_1">
    <path d="M 115.956 129.48 
L 130.356 129.48 
L 144.756 129.48 
" clip-path="url(#pb0b1f8bc68)" style="fill: none; stroke: #000000; stroke-width: 2; stroke-linecap: round"/>
   </g>
   <g id="line2d_2">
    <path d="M 144.756 129.48 
L 174.456 129.48 
M 187.056 120.48 
L 187.056 138.48 
M 187.056 129.48 
L 216.756 129.48 
" clip-path="url(#pb0b1f8bc68)" style="fill: none; stroke: #000000; stroke-width: 2; stroke-linecap: round"/>
   </g>
   <g id="line2d_3">
    <path d="M 195.156 129.48 
L 213.156 129.48 
L 231.156 129.48 
" clip-path="url(#pb0b1f8bc68)" style="fill: none; stroke: #000000; stroke-width: 2; stroke-linecap: round"/>
   </g>
   <g id="line2d_4">
    <path d="M 148.356 154.68 
L 160.956 154.68 
L 164.556 154.68 
" clip-path="url(#pb0b1f8bc68)" style="fill: none; stroke: #000000; stroke-width: 2; stroke-linecap: round"/>
   </g>
   <g id="patch_3">
    <path d="M 164.556 151.98 
L 173.556 154.68 
L 164.556 157.38 
z
" clip-path="url(#pb0b1f8bc68)"/>
   </g>
   <g id="line2d_5">
    <path d="M 274.356 163.68 
L 274.356 118.68 
L 352.298286 163.68 
L 274.356 208.68 
L 274.356 163.68 
M 352.298286 163.68 
" clip-path="url(#pb0b1f8bc68)" style="fill: none; stroke: #000000; stroke-width: 2; stroke-linecap: round"/>
   </g>
   <g id="line2d_6">
    <path d="M 280.498786 141.18 
L 287.698786 141.18 
" clip-path="url(#pb0b1f8bc68)" style="fill: none; stroke: #000000; stroke-width: 2; stroke-linecap: round"/>
   </g>
   <g id="line2d_7">
    <path d="M 280.498786 186.18 
L 287.698786 186.18 
" clip-path="url(#pb0b1f8bc68)" style="fill: none; stroke: #000000; stroke-width: 2; stroke-linecap: round"/>
   </g>
   <g id="line2d_8">
    <path d="M 284.098786 189.78 
L 284.098786 182.58 
" clip-path="url(#pb0b1f8bc68)" style="fill: none; stroke: #000000; stroke-width: 2; stroke-linecap: round"/>
   </g>
   <g id="line2d_9">
    <path d="M 231.156 129.48 
L 253.53417 129.48 
L 275.91234 129.48 
" clip-path="url(#pb0b1f8bc68)" style="fill: none; stroke: #000000; stroke-width: 2; stroke-linecap: round"/>
   </g>
   <g id="line2d_10">
    <path d="M 274.356 186.18 
L 258.156 186.18 
L 241.956 186.18 
" clip-path="url(#pb0b1f8bc68)" style="fill: none; stroke: #000000; stroke-width: 2; stroke-linecap: round"/>
   </g>
   <g id="line2d_11">
    <path d="M 241.956 186.18 
L 241.956 200.58 
L 232.956 200.58 
L 250.956 200.58 
M 235.656 204.9 
L 248.256 204.9 
M 240.156 209.22 
L 243.756 209.22 
" clip-path="url(#pb0b1f8bc68)" style="fill: none; stroke: #000000; stroke-width: 2; stroke-linecap: round"/>
   </g>
   <g id="line2d_12">
    <path d="M 352.298286 163.68 
L 395.498286 163.68 
L 438.698286 163.68 
" clip-path="url(#pb0b1f8bc68)" style="fill: none; stroke: #000000; stroke-width: 2; stroke-linecap: round"/>
   </g>
   <g id="line2d_13">
    <path d="M 438.698286 163.68 
L 438.698286 133.08 
L 438.698286 102.48 
" clip-path="url(#pb0b1f8bc68)" style="fill: none; stroke: #000000; stroke-width: 2; stroke-linecap: round"/>
   </g>
   <g id="line2d_14">
    <path d="M 438.698286 102.48 
L 352.927143 102.48 
L 349.927143 111.48 
L 343.927143 93.48 
L 337.927143 111.48 
L 331.927143 93.48 
L 325.927143 111.48 
L 319.927143 93.48 
L 316.927143 102.48 
L 231.156 102.48 
" clip-path="url(#pb0b1f8bc68)" style="fill: none; stroke: #000000; stroke-width: 2; stroke-linecap: round"/>
   </g>
   <g id="line2d_15">
    <path d="M 231.156 102.48 
L 231.156 115.98 
L 231.156 129.48 
" clip-path="url(#pb0b1f8bc68)" style="fill: none; stroke: #000000; stroke-width: 2; stroke-linecap: round"/>
   </g>
   <g id="text_1">
    <!-- D -->
    <g transform="translate(176.136 114.384375) scale(0.12 -0.12)">
     <defs>
      <path id="DejaVuSans-44" d="M 1259 4147 
L 1259 519 
L 2022 519 
Q 2988 519 3436 956 
Q 3884 1394 3884 2338 
Q 3884 3275 3436 3711 
Q 2988 4147 2022 4147 
L 1259 4147 
z
M 628 4666 
L 1925 4666 
Q 3281 4666 3915 4102 
Q 4550 3538 4550 2338 
Q 4550 1131 3912 565 
Q 3275 0 1925 0 
L 628 0 
L 628 4666 
z
" transform="scale(0.015625)"/>
     </defs>
     <use xlink:href="#DejaVuSans-44"/>
    </g>
   </g>
   <g id="text_2">
    <!-- If=0.4995 nA -->
    <g transform="translate(124.837875 166.99125) scale(0.12 -0.12)">
     <defs>
      <path id="DejaVuSans-49" d="M 628 4666 
L 1259 4666 
L 1259 0 
L 628 0 
L 628 4666 
z
" transform="scale(0.015625)"/>
      <path id="DejaVuSans-66" d="M 2375 4863 
L 2375 4384 
L 1825 4384 
Q 1516 4384 1395 4259 
Q 1275 4134 1275 3809 
L 1275 3500 
L 2222 3500 
L 2222 3053 
L 1275 3053 
L 1275 0 
L 697 0 
L 697 3053 
L 147 3053 
L 147 3500 
L 697 3500 
L 697 3744 
Q 697 4328 969 4595 
Q 1241 4863 1831 4863 
L 2375 4863 
z
" transform="scale(0.015625)"/>
      <path id="DejaVuSans-3d" d="M 678 2906 
L 4684 2906 
L 4684 2381 
L 678 2381 
L 678 2906 
z
M 678 1631 
L 4684 1631 
L 4684 1100 
L 678 1100 
L 678 1631 
z
" transform="scale(0.015625)"/>
      <path id="DejaVuSans-30" d="M 2034 4250 
Q 1547 4250 1301 3770 
Q 1056 3291 1056 2328 
Q 1056 1369 1301 889 
Q 1547 409 2034 409 
Q 2525 409 2770 889 
Q 3016 1369 3016 2328 
Q 3016 3291 2770 3770 
Q 2525 4250 2034 4250 
z
M 2034 4750 
Q 2819 4750 3233 4129 
Q 3647 3509 3647 2328 
Q 3647 1150 3233 529 
Q 2819 -91 2034 -91 
Q 1250 -91 836 529 
Q 422 1150 422 2328 
Q 422 3509 836 4129 
Q 1250 4750 2034 4750 
z
" transform="scale(0.015625)"/>
      <path id="DejaVuSans-2e" d="M 684 794 
L 1344 794 
L 1344 0 
L 684 0 
L 684 794 
z
" transform="scale(0.015625)"/>
      <path id="DejaVuSans-34" d="M 2419 4116 
L 825 1625 
L 2419 1625 
L 2419 4116 
z
M 2253 4666 
L 3047 4666 
L 3047 1625 
L 3713 1625 
L 3713 1100 
L 3047 1100 
L 3047 0 
L 2419 0 
L 2419 1100 
L 313 1100 
L 313 1709 
L 2253 4666 
z
" transform="scale(0.015625)"/>
      <path id="DejaVuSans-39" d="M 703 97 
L 703 672 
Q 941 559 1184 500 
Q 1428 441 1663 441 
Q 2288 441 2617 861 
Q 2947 1281 2994 2138 
Q 2813 1869 2534 1725 
Q 2256 1581 1919 1581 
Q 1219 1581 811 2004 
Q 403 2428 403 3163 
Q 403 3881 828 4315 
Q 1253 4750 1959 4750 
Q 2769 4750 3195 4129 
Q 3622 3509 3622 2328 
Q 3622 1225 3098 567 
Q 2575 -91 1691 -91 
Q 1453 -91 1209 -44 
Q 966 3 703 97 
z
M 1959 2075 
Q 2384 2075 2632 2365 
Q 2881 2656 2881 3163 
Q 2881 3666 2632 3958 
Q 2384 4250 1959 4250 
Q 1534 4250 1286 3958 
Q 1038 3666 1038 3163 
Q 1038 2656 1286 2365 
Q 1534 2075 1959 2075 
z
" transform="scale(0.015625)"/>
      <path id="DejaVuSans-35" d="M 691 4666 
L 3169 4666 
L 3169 4134 
L 1269 4134 
L 1269 2991 
Q 1406 3038 1543 3061 
Q 1681 3084 1819 3084 
Q 2600 3084 3056 2656 
Q 3513 2228 3513 1497 
Q 3513 744 3044 326 
Q 2575 -91 1722 -91 
Q 1428 -91 1123 -41 
Q 819 9 494 109 
L 494 744 
Q 775 591 1075 516 
Q 1375 441 1709 441 
Q 2250 441 2565 725 
Q 2881 1009 2881 1497 
Q 2881 1984 2565 2268 
Q 2250 2553 1709 2553 
Q 1456 2553 1204 2497 
Q 953 2441 691 2322 
L 691 4666 
z
" transform="scale(0.015625)"/>
      <path id="DejaVuSans-20" transform="scale(0.015625)"/>
      <path id="DejaVuSans-6e" d="M 3513 2113 
L 3513 0 
L 2938 0 
L 2938 2094 
Q 2938 2591 2744 2837 
Q 2550 3084 2163 3084 
Q 1697 3084 1428 2787 
Q 1159 2491 1159 1978 
L 1159 0 
L 581 0 
L 581 3500 
L 1159 3500 
L 1159 2956 
Q 1366 3272 1645 3428 
Q 1925 3584 2291 3584 
Q 2894 3584 3203 3211 
Q 3513 2838 3513 2113 
z
" transform="scale(0.015625)"/>
      <path id="DejaVuSans-41" d="M 2188 4044 
L 1331 1722 
L 3047 1722 
L 2188 4044 
z
M 1831 4666 
L 2547 4666 
L 4325 0 
L 3669 0 
L 3244 1197 
L 1141 1197 
L 716 0 
L 50 0 
L 1831 4666 
z
" transform="scale(0.015625)"/>
     </defs>
     <use xlink:href="#DejaVuSans-49"/>
     <use xlink:href="#DejaVuSans-66" transform="translate(29.492188 0)"/>
     <use xlink:href="#DejaVuSans-3d" transform="translate(64.697266 0)"/>
     <use xlink:href="#DejaVuSans-30" transform="translate(148.486328 0)"/>
     <use xlink:href="#DejaVuSans-2e" transform="translate(212.109375 0)"/>
     <use xlink:href="#DejaVuSans-34" transform="translate(243.896484 0)"/>
     <use xlink:href="#DejaVuSans-39" transform="translate(307.519531 0)"/>
     <use xlink:href="#DejaVuSans-39" transform="translate(371.142578 0)"/>
     <use xlink:href="#DejaVuSans-35" transform="translate(434.765625 0)"/>
     <use xlink:href="#DejaVuSans-20" transform="translate(498.388672 0)"/>
     <use xlink:href="#DejaVuSans-6e" transform="translate(530.175781 0)"/>
     <use xlink:href="#DejaVuSans-41" transform="translate(593.554688 0)"/>
    </g>
   </g>
   <g id="text_3">
    <!-- Vo=-11.4 V -->
    <g transform="translate(442.298286 166.99125) scale(0.12 -0.12)">
     <defs>
      <path id="DejaVuSans-56" d="M 1831 0 
L 50 4666 
L 709 4666 
L 2188 738 
L 3669 4666 
L 4325 4666 
L 2547 0 
L 1831 0 
z
" transform="scale(0.015625)"/>
      <path id="DejaVuSans-6f" d="M 1959 3097 
Q 1497 3097 1228 2736 
Q 959 2375 959 1747 
Q 959 1119 1226 758 
Q 1494 397 1959 397 
Q 2419 397 2687 759 
Q 2956 1122 2956 1747 
Q 2956 2369 2687 2733 
Q 2419 3097 1959 3097 
z
M 1959 3584 
Q 2709 3584 3137 3096 
Q 3566 2609 3566 1747 
Q 3566 888 3137 398 
Q 2709 -91 1959 -91 
Q 1206 -91 779 398 
Q 353 888 353 1747 
Q 353 2609 779 3096 
Q 1206 3584 1959 3584 
z
" transform="scale(0.015625)"/>
      <path id="DejaVuSans-2d" d="M 313 2009 
L 1997 2009 
L 1997 1497 
L 313 1497 
L 313 2009 
z
" transform="scale(0.015625)"/>
      <path id="DejaVuSans-31" d="M 794 531 
L 1825 531 
L 1825 4091 
L 703 3866 
L 703 4441 
L 1819 4666 
L 2450 4666 
L 2450 531 
L 3481 531 
L 3481 0 
L 794 0 
L 794 531 
z
" transform="scale(0.015625)"/>
     </defs>
     <use xlink:href="#DejaVuSans-56"/>
     <use xlink:href="#DejaVuSans-6f" transform="translate(60.658203 0)"/>
     <use xlink:href="#DejaVuSans-3d" transform="translate(121.839844 0)"/>
     <use xlink:href="#DejaVuSans-2d" transform="translate(205.628906 0)"/>
     <use xlink:href="#DejaVuSans-31" transform="translate(241.712891 0)"/>
     <use xlink:href="#DejaVuSans-31" transform="translate(305.335938 0)"/>
     <use xlink:href="#DejaVuSans-2e" transform="translate(368.958984 0)"/>
     <use xlink:href="#DejaVuSans-34" transform="translate(400.746094 0)"/>
     <use xlink:href="#DejaVuSans-20" transform="translate(464.369141 0)"/>
     <use xlink:href="#DejaVuSans-56" transform="translate(496.15625 0)"/>
    </g>
   </g>
   <g id="text_4">
    <!-- 50.77 kohm -->
    <g transform="translate(299.268393 87.384375) scale(0.12 -0.12)">
     <defs>
      <path id="DejaVuSans-37" d="M 525 4666 
L 3525 4666 
L 3525 4397 
L 1831 0 
L 1172 0 
L 2766 4134 
L 525 4134 
L 525 4666 
z
" transform="scale(0.015625)"/>
      <path id="DejaVuSans-6b" d="M 581 4863 
L 1159 4863 
L 1159 1991 
L 2875 3500 
L 3609 3500 
L 1753 1863 
L 3688 0 
L 2938 0 
L 1159 1709 
L 1159 0 
L 581 0 
L 581 4863 
z
" transform="scale(0.015625)"/>
      <path id="DejaVuSans-68" d="M 3513 2113 
L 3513 0 
L 2938 0 
L 2938 2094 
Q 2938 2591 2744 2837 
Q 2550 3084 2163 3084 
Q 1697 3084 1428 2787 
Q 1159 2491 1159 1978 
L 1159 0 
L 581 0 
L 581 4863 
L 1159 4863 
L 1159 2956 
Q 1366 3272 1645 3428 
Q 1925 3584 2291 3584 
Q 2894 3584 3203 3211 
Q 3513 2838 3513 2113 
z
" transform="scale(0.015625)"/>
      <path id="DejaVuSans-6d" d="M 3328 2828 
Q 3544 3216 3844 3400 
Q 4144 3584 4550 3584 
Q 5097 3584 5394 3201 
Q 5691 2819 5691 2113 
L 5691 0 
L 5113 0 
L 5113 2094 
Q 5113 2597 4934 2840 
Q 4756 3084 4391 3084 
Q 3944 3084 3684 2787 
Q 3425 2491 3425 1978 
L 3425 0 
L 2847 0 
L 2847 2094 
Q 2847 2600 2669 2842 
Q 2491 3084 2119 3084 
Q 1678 3084 1418 2786 
Q 1159 2488 1159 1978 
L 1159 0 
L 581 0 
L 581 3500 
L 1159 3500 
L 1159 2956 
Q 1356 3278 1631 3431 
Q 1906 3584 2284 3584 
Q 2666 3584 2933 3390 
Q 3200 3197 3328 2828 
z
" transform="scale(0.015625)"/>
     </defs>
     <use xlink:href="#DejaVuSans-35"/>
     <use xlink:href="#DejaVuSans-30" transform="translate(63.623047 0)"/>
     <use xlink:href="#DejaVuSans-2e" transform="translate(127.246094 0)"/>
     <use xlink:href="#DejaVuSans-37" transform="translate(159.033203 0)"/>
     <use xlink:href="#DejaVuSans-37" transform="translate(222.65625 0)"/>
     <use xlink:href="#DejaVuSans-20" transform="translate(286.279297 0)"/>
     <use xlink:href="#DejaVuSans-6b" transform="translate(318.066406 0)"/>
     <use xlink:href="#DejaVuSans-6f" transform="translate(372.351562 0)"/>
     <use xlink:href="#DejaVuSans-68" transform="translate(433.533203 0)"/>
     <use xlink:href="#DejaVuSans-6d" transform="translate(496.912109 0)"/>
    </g>
   </g>
   <g id="text_5">
    <!-- Antilog Amplifier -->
    <g transform="translate(217.146937 39.19125) scale(0.12 -0.12)">
     <defs>
      <path id="DejaVuSans-74" d="M 1172 4494 
L 1172 3500 
L 2356 3500 
L 2356 3053 
L 1172 3053 
L 1172 1153 
Q 1172 725 1289 603 
Q 1406 481 1766 481 
L 2356 481 
L 2356 0 
L 1766 0 
Q 1100 0 847 248 
Q 594 497 594 1153 
L 594 3053 
L 172 3053 
L 172 3500 
L 594 3500 
L 594 4494 
L 1172 4494 
z
" transform="scale(0.015625)"/>
      <path id="DejaVuSans-69" d="M 603 3500 
L 1178 3500 
L 1178 0 
L 603 0 
L 603 3500 
z
M 603 4863 
L 1178 4863 
L 1178 4134 
L 603 4134 
L 603 4863 
z
" transform="scale(0.015625)"/>
      <path id="DejaVuSans-6c" d="M 603 4863 
L 1178 4863 
L 1178 0 
L 603 0 
L 603 4863 
z
" transform="scale(0.015625)"/>
      <path id="DejaVuSans-67" d="M 2906 1791 
Q 2906 2416 2648 2759 
Q 2391 3103 1925 3103 
Q 1463 3103 1205 2759 
Q 947 2416 947 1791 
Q 947 1169 1205 825 
Q 1463 481 1925 481 
Q 2391 481 2648 825 
Q 2906 1169 2906 1791 
z
M 3481 434 
Q 3481 -459 3084 -895 
Q 2688 -1331 1869 -1331 
Q 1566 -1331 1297 -1286 
Q 1028 -1241 775 -1147 
L 775 -588 
Q 1028 -725 1275 -790 
Q 1522 -856 1778 -856 
Q 2344 -856 2625 -561 
Q 2906 -266 2906 331 
L 2906 616 
Q 2728 306 2450 153 
Q 2172 0 1784 0 
Q 1141 0 747 490 
Q 353 981 353 1791 
Q 353 2603 747 3093 
Q 1141 3584 1784 3584 
Q 2172 3584 2450 3431 
Q 2728 3278 2906 2969 
L 2906 3500 
L 3481 3500 
L 3481 434 
z
" transform="scale(0.015625)"/>
      <path id="DejaVuSans-70" d="M 1159 525 
L 1159 -1331 
L 581 -1331 
L 581 3500 
L 1159 3500 
L 1159 2969 
Q 1341 3281 1617 3432 
Q 1894 3584 2278 3584 
Q 2916 3584 3314 3078 
Q 3713 2572 3713 1747 
Q 3713 922 3314 415 
Q 2916 -91 2278 -91 
Q 1894 -91 1617 61 
Q 1341 213 1159 525 
z
M 3116 1747 
Q 3116 2381 2855 2742 
Q 2594 3103 2138 3103 
Q 1681 3103 1420 2742 
Q 1159 2381 1159 1747 
Q 1159 1113 1420 752 
Q 1681 391 2138 391 
Q 2594 391 2855 752 
Q 3116 1113 3116 1747 
z
" transform="scale(0.015625)"/>
      <path id="DejaVuSans-65" d="M 3597 1894 
L 3597 1613 
L 953 1613 
Q 991 1019 1311 708 
Q 1631 397 2203 397 
Q 2534 397 2845 478 
Q 3156 559 3463 722 
L 3463 178 
Q 3153 47 2828 -22 
Q 2503 -91 2169 -91 
Q 1331 -91 842 396 
Q 353 884 353 1716 
Q 353 2575 817 3079 
Q 1281 3584 2069 3584 
Q 2775 3584 3186 3129 
Q 3597 2675 3597 1894 
z
M 3022 2063 
Q 3016 2534 2758 2815 
Q 2500 3097 2075 3097 
Q 1594 3097 1305 2825 
Q 1016 2553 972 2059 
L 3022 2063 
z
" transform="scale(0.015625)"/>
      <path id="DejaVuSans-72" d="M 2631 2963 
Q 2534 3019 2420 3045 
Q 2306 3072 2169 3072 
Q 1681 3072 1420 2755 
Q 1159 2438 1159 1844 
L 1159 0 
L 581 0 
L 581 3500 
L 1159 3500 
L 1159 2956 
Q 1341 3275 1631 3429 
Q 1922 3584 2338 3584 
Q 2397 3584 2469 3576 
Q 2541 3569 2628 3553 
L 2631 2963 
z
" transform="scale(0.015625)"/>
     </defs>
     <use xlink:href="#DejaVuSans-41"/>
     <use xlink:href="#DejaVuSans-6e" transform="translate(68.408203 0)"/>
     <use xlink:href="#DejaVuSans-74" transform="translate(131.787109 0)"/>
     <use xlink:href="#DejaVuSans-69" transform="translate(170.996094 0)"/>
     <use xlink:href="#DejaVuSans-6c" transform="translate(198.779297 0)"/>
     <use xlink:href="#DejaVuSans-6f" transform="translate(226.5625 0)"/>
     <use xlink:href="#DejaVuSans-67" transform="translate(287.744141 0)"/>
     <use xlink:href="#DejaVuSans-20" transform="translate(351.220703 0)"/>
     <use xlink:href="#DejaVuSans-41" transform="translate(383.007812 0)"/>
     <use xlink:href="#DejaVuSans-6d" transform="translate(451.416016 0)"/>
     <use xlink:href="#DejaVuSans-70" transform="translate(548.828125 0)"/>
     <use xlink:href="#DejaVuSans-6c" transform="translate(612.304688 0)"/>
     <use xlink:href="#DejaVuSans-69" transform="translate(640.087891 0)"/>
     <use xlink:href="#DejaVuSans-66" transform="translate(667.871094 0)"/>
     <use xlink:href="#DejaVuSans-69" transform="translate(703.076172 0)"/>
     <use xlink:href="#DejaVuSans-65" transform="translate(730.859375 0)"/>
     <use xlink:href="#DejaVuSans-72" transform="translate(792.382812 0)"/>
    </g>
   </g>
   <g id="patch_4">
    <path d="M 115.956 132.18 
C 116.672048 132.18 117.358866 131.895511 117.865188 131.389188 
C 118.371511 130.882866 118.656 130.196048 118.656 129.48 
C 118.656 128.763952 118.371511 128.077134 117.865188 127.570812 
C 117.358866 127.064489 116.672048 126.78 115.956 126.78 
C 115.239952 126.78 114.553134 127.064489 114.046812 127.570812 
C 113.540489 128.077134 113.256 128.763952 113.256 129.48 
C 113.256 130.196048 113.540489 130.882866 114.046812 131.389188 
C 114.553134 131.895511 115.239952 132.18 115.956 132.18 
z
" clip-path="url(#pb0b1f8bc68)" style="stroke: #000000; stroke-width: 2; stroke-linejoin: miter"/>
   </g>
   <g id="text_6">
    <!-- Vi=0.002755 V -->
    <g transform="translate(19.046625 132.79125) scale(0.12 -0.12)">
     <defs>
      <path id="DejaVuSans-32" d="M 1228 531 
L 3431 531 
L 3431 0 
L 469 0 
L 469 531 
Q 828 903 1448 1529 
Q 2069 2156 2228 2338 
Q 2531 2678 2651 2914 
Q 2772 3150 2772 3378 
Q 2772 3750 2511 3984 
Q 2250 4219 1831 4219 
Q 1534 4219 1204 4116 
Q 875 4013 500 3803 
L 500 4441 
Q 881 4594 1212 4672 
Q 1544 4750 1819 4750 
Q 2544 4750 2975 4387 
Q 3406 4025 3406 3419 
Q 3406 3131 3298 2873 
Q 3191 2616 2906 2266 
Q 2828 2175 2409 1742 
Q 1991 1309 1228 531 
z
" transform="scale(0.015625)"/>
     </defs>
     <use xlink:href="#DejaVuSans-56"/>
     <use xlink:href="#DejaVuSans-69" transform="translate(66.158203 0)"/>
     <use xlink:href="#DejaVuSans-3d" transform="translate(93.941406 0)"/>
     <use xlink:href="#DejaVuSans-30" transform="translate(177.730469 0)"/>
     <use xlink:href="#DejaVuSans-2e" transform="translate(241.353516 0)"/>
     <use xlink:href="#DejaVuSans-30" transform="translate(273.140625 0)"/>
     <use xlink:href="#DejaVuSans-30" transform="translate(336.763672 0)"/>
     <use xlink:href="#DejaVuSans-32" transform="translate(400.386719 0)"/>
     <use xlink:href="#DejaVuSans-37" transform="translate(464.009766 0)"/>
     <use xlink:href="#DejaVuSans-35" transform="translate(527.632812 0)"/>
     <use xlink:href="#DejaVuSans-35" transform="translate(591.255859 0)"/>
     <use xlink:href="#DejaVuSans-20" transform="translate(654.878906 0)"/>
     <use xlink:href="#DejaVuSans-56" transform="translate(686.666016 0)"/>
    </g>
   </g>
   <g id="patch_5">
    <path d="M 231.156 132.18 
C 231.872048 132.18 232.558866 131.895511 233.065188 131.389188 
C 233.571511 130.882866 233.856 130.196048 233.856 129.48 
C 233.856 128.763952 233.571511 128.077134 233.065188 127.570812 
C 232.558866 127.064489 231.872048 126.78 231.156 126.78 
C 230.439952 126.78 229.753134 127.064489 229.246812 127.570812 
C 228.740489 128.077134 228.456 128.763952 228.456 129.48 
C 228.456 130.196048 228.740489 130.882866 229.246812 131.389188 
C 229.753134 131.895511 230.439952 132.18 231.156 132.18 
z
" clip-path="url(#pb0b1f8bc68)" style="stroke: #000000; stroke-width: 2; stroke-linejoin: miter"/>
   </g>
   <g id="patch_6">
    <path d="M 352.298286 166.38 
C 353.014335 166.38 353.701152 166.095511 354.207475 165.589188 
C 354.713797 165.082866 354.998286 164.396048 354.998286 163.68 
C 354.998286 162.963952 354.713797 162.277134 354.207475 161.770812 
C 353.701152 161.264489 353.014335 160.98 352.298286 160.98 
C 351.582238 160.98 350.895421 161.264489 350.389098 161.770812 
C 349.882775 162.277134 349.598286 162.963952 349.598286 163.68 
C 349.598286 164.396048 349.882775 165.082866 350.389098 165.589188 
C 350.895421 166.095511 351.582238 166.38 352.298286 166.38 
z
" clip-path="url(#pb0b1f8bc68)" style="stroke: #000000; stroke-width: 2; stroke-linejoin: miter"/>
   </g>
   <g id="patch_7">
    <path d="M 438.698286 166.38 
C 439.414335 166.38 440.101152 166.095511 440.607475 165.589188 
C 441.113797 165.082866 441.398286 164.396048 441.398286 163.68 
C 441.398286 162.963952 441.113797 162.277134 440.607475 161.770812 
C 440.101152 161.264489 439.414335 160.98 438.698286 160.98 
C 437.982238 160.98 437.295421 161.264489 436.789098 161.770812 
C 436.282775 162.277134 435.998286 162.963952 435.998286 163.68 
C 435.998286 164.396048 436.282775 165.082866 436.789098 165.589188 
C 437.295421 166.095511 437.982238 166.38 438.698286 166.38 
z
" clip-path="url(#pb0b1f8bc68)" style="stroke: #000000; stroke-width: 2; stroke-linejoin: miter"/>
   </g>
  </g>
 </g>
 <defs>
  <clipPath id="pb0b1f8bc68">
   <rect x="0" y="-0" width="533.090286" height="239.1"/>
  </clipPath>
 </defs>
</svg>
