<svg xmlns="http://www.w3.org/2000/svg" xmlns:xlink="http://www.w3.org/1999/xlink" xml:lang="en" height="395.5pt" width="403.15999999999997pt" viewBox="-159.93999999999997 -220.38 403.15999999999997 395.5" style="background-color:white;"><circle cx="19.8" cy="3.6" r="19.8" style="stroke:black;fill:none;stroke-width:2.0;stroke-dasharray:-;" /><path d="M 0.0,3.6 L 13.2,3.6" style="stroke:black;fill:none;stroke-width:2.0;stroke-dasharray:-;stroke-linecap:round;stroke-linejoin:round;" /><path d="M 13.2,-9.599999999999998 L 13.2,16.8" style="stroke:black;fill:none;stroke-width:2.0;stroke-dasharray:-;stroke-linecap:round;stroke-linejoin:round;" /><path d="M 13.2,-2.999999999999999 L 27.06,-14.879999999999999 L 27.06,-21.48" style="stroke:black;fill:none;stroke-width:2.0;stroke-dasharray:-;stroke-linecap:round;stroke-linejoin:round;" /><path d="M 13.2,10.2 L 27.06,22.08 L 27.06,28.68" style="stroke:black;fill:none;stroke-width:2.0;stroke-dasharray:-;stroke-linecap:round;stroke-linejoin:round;" /><path d="M 13.2,10.2 L 20.22669057871233,16.222877638896282" style="stroke:black;fill:none;stroke-width:2.0;stroke-dasharray:-;stroke-linecap:round;stroke-linejoin:round;" /><path d="M 25.541486795269407 20.77841725308806 L 17.88384163427084 18.95620140741135 L 22.569539523153814 13.489553870381211 Z" style="stroke:black;fill:black;stroke-linecap:butt;stroke-linejoin:miter;" /><path d="M 27.06,-21.48 L 27.06,-43.080000000000005 L 18.060000000000002,-46.08000000000001 L 36.06,-52.080000000000005 L 18.060000000000002,-58.08 L 36.06,-64.08 L 18.060000000000002,-70.08 L 36.06,-76.08 L 27.060000000000002,-79.08 L 27.060000000000002,-100.68" style="stroke:black;fill:none;stroke-width:2.0;stroke-dasharray:-;stroke-linecap:round;stroke-linejoin:round;" /><path d="M -68.39999999999999,-100.68 L 18.93,-100.68 L 106.26,-100.68" style="stroke:black;fill:none;stroke-width:2.0;stroke-dasharray:-;stroke-linecap:round;stroke-linejoin:round;" /><path d="M -68.39999999999999,3.6 L -34.199999999999996,3.6 L 0.0,3.6" style="stroke:black;fill:none;stroke-width:2.0;stroke-dasharray:-;stroke-linecap:round;stroke-linejoin:round;" /><path d="M -68.39999999999999,3.6 L -68.39999999999999,-30.540000000000006 L -77.39999999999999,-33.540000000000006 L -59.4,-39.54 L -77.39999999999999,-45.540000000000006 L -59.4,-51.54 L -77.39999999999999,-57.54 L -59.4,-63.540000000000006 L -68.39999999999999,-66.54 L -68.39999999999999,-100.68" style="stroke:black;fill:none;stroke-width:2.0;stroke-dasharray:-;stroke-linecap:round;stroke-linejoin:round;" /><path d="M -68.39999999999999,3.6 L -68.39999999999999,19.799999999999997 L -59.4,22.799999999999997 L -77.39999999999999,28.799999999999997 L -59.400000000000006,34.8 L -77.39999999999999,40.8 L -59.400000000000006,46.800000000000004 L -77.4,52.800000000000004 L -68.4,55.800000000000004 L -68.4,72.0" style="stroke:black;fill:none;stroke-width:2.0;stroke-dasharray:-;stroke-linecap:round;stroke-linejoin:round;" /><path d="M -100.8,90.72 L -89.1,90.72 L -86.39999999999999,90.72" style="stroke:black;fill:none;stroke-width:2.0;stroke-dasharray:-;stroke-linecap:round;stroke-linejoin:round;" /><path d="M -79.39999999999999 90.72 L -86.39999999999999 93.42 L -86.39999999999999 88.02 Z" style="stroke:black;fill:black;stroke-linecap:butt;stroke-linejoin:miter;" /><path d="M -68.39999999999999,72.0 L -68.39999999999999,83.7 L -68.4,95.39999999999999" style="stroke:black;fill:none;stroke-width:2.0;stroke-dasharray:-;stroke-linecap:round;stroke-linejoin:round;" /><path d="M -68.4,95.39999999999999 L -68.4,109.8 L -77.4,109.8 L -59.400000000000006,109.8 M -74.7,114.12 L -62.1,114.12 M -70.2,118.44 L -66.60000000000001,118.44" style="stroke:black;fill:none;stroke-width:2.0;stroke-dasharray:-;stroke-linecap:round;stroke-linejoin:round;" /><path d="M 27.06,28.68 L 66.66,28.68 L 106.26,28.68" style="stroke:black;fill:none;stroke-width:2.0;stroke-dasharray:-;stroke-linecap:round;stroke-linejoin:round;" /><path d="M 40.019999999999996,5.52 L 40.019999999999996,-2.5800000000000005 L 40.019999999999996,-1.6800000000000008" style="stroke:black;fill:none;stroke-width:2.0;stroke-dasharray:-;stroke-linecap:round;stroke-linejoin:round;" /><path d="M 40.019999999999996 -8.680000000000001 L 42.72 -1.6800000000000015 L 37.31999999999999 -1.6800000000000015 Z" style="stroke:black;fill:black;stroke-linecap:butt;stroke-linejoin:miter;" /><path d="M 140.82,67.2 L 140.82,76.2 L 140.82,76.2" style="stroke:black;fill:none;stroke-width:2.0;stroke-dasharray:-;stroke-linecap:round;stroke-linejoin:round;" /><path d="M 140.82 83.2 L 138.12 76.2 L 143.51999999999998 76.2 Z" style="stroke:black;fill:black;stroke-linecap:butt;stroke-linejoin:miter;" /><path d="M 27.06,28.68 L 27.059999999999995,48.47999999999999 L 36.059999999999995,51.47999999999999 L 18.059999999999995,57.47999999999999 L 36.059999999999995,63.48 L 18.059999999999988,69.47999999999999 L 36.05999999999999,75.48 L 18.059999999999985,81.47999999999998 L 27.059999999999985,84.48 L 27.059999999999985,104.28" style="stroke:black;fill:none;stroke-width:2.0;stroke-dasharray:-;stroke-linecap:round;stroke-linejoin:round;" /><path d="M 106.26,28.68 L 106.26,48.47999999999999 L 115.26,51.47999999999999 L 97.26,57.47999999999999 L 115.26,63.48 L 97.25999999999999,69.47999999999999 L 115.25999999999999,75.48 L 97.25999999999999,81.47999999999998 L 106.25999999999999,84.48 L 106.25999999999999,104.28" style="stroke:black;fill:none;stroke-width:2.0;stroke-dasharray:-;stroke-linecap:round;stroke-linejoin:round;" /><path d="M 27.06,104.28 L 79.26,104.28 L 131.45999999999998,104.28" style="stroke:black;fill:none;stroke-width:2.0;stroke-dasharray:-;stroke-linecap:round;stroke-linejoin:round;" /><path d="M 27.06,104.28 L 27.06,118.67999999999999 L 18.06,118.67999999999999 L 36.059999999999995,118.67999999999999 M 20.759999999999998,123.0 L 33.35999999999999,123.0 M 25.259999999999994,127.32 L 28.86,127.32" style="stroke:black;fill:none;stroke-width:2.0;stroke-dasharray:-;stroke-linecap:round;stroke-linejoin:round;" /><text x="27.060000000000002" y="-115.28000000000002" dominant-baseline="ideographic" fill="black" font-size="11" font-family="sans" text-anchor="middle"><tspan x="27.060000000000002" dy="11">4.439 kohm</tspan></text><text x="5.459999999999999" y="-129.68" dominant-baseline="central" fill="black" font-size="11" font-family="sans" text-anchor="start"><tspan x="5.459999999999999" dy="11">+12 V</tspan></text><text x="-68.39999999999999" y="-3.7999999999999963" dominant-baseline="hanging" fill="black" font-size="11" font-family="sans" text-anchor="middle"><tspan x="-68.39999999999999" dy="11">138.3 kohm</tspan></text><text x="-68.4" y="64.60000000000001" dominant-baseline="hanging" fill="black" font-size="11" font-family="sans" text-anchor="middle"><tspan x="-68.4" dy="11">27.32 kohm</tspan></text><text x="-74.87999999999998" y="63.879999999999995" dominant-baseline="central" fill="black" font-size="11" font-family="sans" text-anchor="end"><tspan x="-74.87999999999998" dy="11">V<tspan baseline-shift="-2" font-size="smaller">in</tspan></tspan></text><text x="-98.99999999999999" y="77.12" dominant-baseline="central" fill="black" font-size="10" font-family="sans" text-anchor="end"><tspan x="-98.99999999999999" dy="10">I<tspan baseline-shift="-2" font-size="smaller">in</tspan></tspan></text><text x="124.98" y="20.56" dominant-baseline="central" fill="black" font-size="11" font-family="sans" text-anchor="start"><tspan x="124.98" dy="11">V<tspan baseline-shift="-2" font-size="smaller">out</tspan></tspan></text><text x="52.26" y="-2.6799999999999997" dominant-baseline="central" fill="black" font-size="10" font-family="sans" text-anchor="start"><tspan x="52.26" dy="10">Ic=-1.379 kA</tspan></text><text x="1.1399999999999975" y="8.600000000000001" dominant-baseline="central" fill="black" font-size="10" font-family="sans" text-anchor="end"><tspan x="1.1399999999999975" dy="10">Vce=1.065e+05</tspan></text><text x="129.29999999999998" y="4.999999999999998" dominant-baseline="central" fill="black" font-size="10" font-family="sans" text-anchor="start"><tspan x="129.29999999999998" dy="10">Av=2.273e+05</tspan></text><text x="129.29999999999998" y="45.68" dominant-baseline="central" fill="black" font-size="10" font-family="sans" text-anchor="start"><tspan x="129.29999999999998" dy="10">fH=9.183e+10</tspan></text><text x="140.1" y="59.36" dominant-baseline="central" fill="black" font-size="10" font-family="sans" text-anchor="start"><tspan x="140.1" dy="10">I<tspan baseline-shift="-2" font-size="smaller">f</tspan></tspan></text><text x="10.859999999999996" y="59.08" dominant-baseline="central" fill="black" font-size="11" font-family="sans" text-anchor="end"><tspan x="10.859999999999996" dy="11">1.257 kohm</tspan></text><text x="129.66000000000003" y="59.08" dominant-baseline="central" fill="black" font-size="11" font-family="sans" text-anchor="start"><tspan x="129.66000000000003" dy="11">11.07 kohm</tspan></text><text x="3.6" y="-179.57999999999998" dominant-baseline="central" fill="black" font-size="14" font-family="sans" text-anchor="middle"><tspan x="3.6" dy="14">BJT Common-Base Amplifier</tspan></text><circle cx="27.06" cy="-21.48" r="2.6999999999999997" style="stroke:black;fill:black;stroke-width:2.0;stroke-dasharray:-;" /><circle cx="-8.940000000000003" cy="-100.68" r="2.6999999999999997" style="stroke:black;fill:white;stroke-width:2.0;stroke-dasharray:-;" /><circle cx="-68.39999999999999" cy="3.6" r="2.6999999999999997" style="stroke:black;fill:black;stroke-width:2.0;stroke-dasharray:-;" /><circle cx="-68.39999999999999" cy="72.0" r="2.6999999999999997" style="stroke:black;fill:black;stroke-width:2.0;stroke-dasharray:-;" /><circle cx="27.06" cy="28.68" r="2.6999999999999997" style="stroke:black;fill:black;stroke-width:2.0;stroke-dasharray:-;" /><circle cx="106.26" cy="28.68" r="2.6999999999999997" style="stroke:black;fill:white;stroke-width:2.0;stroke-dasharray:-;" /><circle cx="27.06" cy="104.28" r="2.6999999999999997" style="stroke:black;fill:black;stroke-width:2.0;stroke-dasharray:-;" /><circle cx="106.26" cy="104.28" r="2.6999999999999997" style="stroke:black;fill:black;stroke-width:2.0;stroke-dasharray:-;" /></svg>